<svg width="147" height="37" viewBox="0 0 147 37" fill="none" xmlns="http://www.w3.org/2000/svg">
<path d="M57.475 20.375C55.675 20.375 54.1208 19.9833 52.8125 19.2C51.5125 18.4167 50.5083 17.3208 49.8 15.9125C49.1 14.5042 48.75 12.8667 48.75 11C48.75 9.13333 49.1 7.49583 49.8 6.0875C50.5083 4.67917 51.5125 3.58333 52.8125 2.8C54.1208 2.01667 55.675 1.625 57.475 1.625C59.5417 1.625 61.275 2.1375 62.675 3.1625C64.0833 4.1875 65.075 5.575 65.65 7.325L62.225 8.275C61.8917 7.18333 61.3292 6.3375 60.5375 5.7375C59.7458 5.12917 58.725 4.825 57.475 4.825C56.3333 4.825 55.3792 5.07917 54.6125 5.5875C53.8542 6.09583 53.2833 6.8125 52.9 7.7375C52.5167 8.6625 52.325 9.75 52.325 11C52.325 12.25 52.5167 13.3375 52.9 14.2625C53.2833 15.1875 53.8542 15.9042 54.6125 16.4125C55.3792 16.9208 56.3333 17.175 57.475 17.175C58.725 17.175 59.7458 16.8708 60.5375 16.2625C61.3292 15.6542 61.8917 14.8083 62.225 13.725L65.65 14.675C65.075 16.425 64.0833 17.8125 62.675 18.8375C61.275 19.8625 59.5417 20.375 57.475 20.375ZM71.1523 20V2H78.7523C78.9273 2 79.1607 2.00833 79.4523 2.025C79.7523 2.03333 80.019 2.05833 80.2523 2.1C81.3273 2.26667 82.2065 2.62083 82.8898 3.1625C83.5815 3.70417 84.0898 4.3875 84.4148 5.2125C84.7398 6.02917 84.9023 6.94167 84.9023 7.95C84.9023 9.45833 84.5273 10.75 83.7773 11.825C83.0273 12.8917 81.8523 13.55 80.2523 13.8L78.7523 13.9H74.5523V20H71.1523ZM81.3023 20L77.7523 12.675L81.2523 12L85.1523 20H81.3023ZM74.5523 10.725H78.6023C78.7773 10.725 78.969 10.7167 79.1773 10.7C79.3857 10.6833 79.5773 10.65 79.7523 10.6C80.2107 10.475 80.5648 10.2667 80.8148 9.975C81.0648 9.675 81.2357 9.34583 81.3273 8.9875C81.4273 8.62083 81.4773 8.275 81.4773 7.95C81.4773 7.625 81.4273 7.28333 81.3273 6.925C81.2357 6.55833 81.0648 6.22917 80.8148 5.9375C80.5648 5.6375 80.2107 5.425 79.7523 5.3C79.5773 5.25 79.3857 5.21667 79.1773 5.2C78.969 5.18333 78.7773 5.175 78.6023 5.175H74.5523V10.725ZM94.6842 20V12.675L88.5342 2H92.5092L96.4092 8.775L100.309 2H104.284L98.1342 12.675V20H94.6842ZM115.505 20.375C113.705 20.375 112.151 19.9833 110.843 19.2C109.543 18.4167 108.539 17.3208 107.83 15.9125C107.13 14.5042 106.78 12.8667 106.78 11C106.78 9.13333 107.13 7.49583 107.83 6.0875C108.539 4.67917 109.543 3.58333 110.843 2.8C112.151 2.01667 113.705 1.625 115.505 1.625C117.572 1.625 119.305 2.1375 120.705 3.1625C122.114 4.1875 123.105 5.575 123.68 7.325L120.255 8.275C119.922 7.18333 119.359 6.3375 118.568 5.7375C117.776 5.12917 116.755 4.825 115.505 4.825C114.364 4.825 113.409 5.07917 112.643 5.5875C111.884 6.09583 111.314 6.8125 110.93 7.7375C110.547 8.6625 110.355 9.75 110.355 11C110.355 12.25 110.547 13.3375 110.93 14.2625C111.314 15.1875 111.884 15.9042 112.643 16.4125C113.409 16.9208 114.364 17.175 115.505 17.175C116.755 17.175 117.776 16.8708 118.568 16.2625C119.359 15.6542 119.922 14.8083 120.255 13.725L123.68 14.675C123.105 16.425 122.114 17.8125 120.705 18.8375C119.305 19.8625 117.572 20.375 115.505 20.375ZM136.908 20.375C135.108 20.375 133.553 19.9833 132.245 19.2C130.945 18.4167 129.941 17.3208 129.233 15.9125C128.533 14.5042 128.183 12.8667 128.183 11C128.183 9.13333 128.533 7.49583 129.233 6.0875C129.941 4.67917 130.945 3.58333 132.245 2.8C133.553 2.01667 135.108 1.625 136.908 1.625C138.708 1.625 140.258 2.01667 141.558 2.8C142.866 3.58333 143.87 4.67917 144.57 6.0875C145.278 7.49583 145.633 9.13333 145.633 11C145.633 12.8667 145.278 14.5042 144.57 15.9125C143.87 17.3208 142.866 18.4167 141.558 19.2C140.258 19.9833 138.708 20.375 136.908 20.375ZM136.908 17.175C138.049 17.1917 138.999 16.9458 139.758 16.4375C140.516 15.9292 141.083 15.2083 141.458 14.275C141.841 13.3417 142.033 12.25 142.033 11C142.033 9.75 141.841 8.66667 141.458 7.75C141.083 6.83333 140.516 6.12083 139.758 5.6125C138.999 5.10417 138.049 4.84167 136.908 4.825C135.766 4.80833 134.816 5.05417 134.058 5.5625C133.299 6.07083 132.728 6.79167 132.345 7.725C131.97 8.65833 131.783 9.75 131.783 11C131.783 12.25 131.97 13.3333 132.345 14.25C132.728 15.1667 133.299 15.8792 134.058 16.3875C134.816 16.8958 135.766 17.1583 136.908 17.175Z" fill="#EBF7FD"/>
<path d="M53.392 36.18C52.532 36.18 51.802 35.99 51.202 35.61C50.602 35.23 50.144 34.702 49.828 34.026C49.516 33.35 49.36 32.568 49.36 31.68C49.36 30.792 49.516 30.01 49.828 29.334C50.144 28.658 50.602 28.13 51.202 27.75C51.802 27.37 52.532 27.18 53.392 27.18C54.392 27.18 55.214 27.434 55.858 27.942C56.506 28.45 56.952 29.134 57.196 29.994L56.11 30.282C55.934 29.638 55.62 29.13 55.168 28.758C54.716 28.386 54.124 28.2 53.392 28.2C52.748 28.2 52.212 28.346 51.784 28.638C51.356 28.93 51.034 29.338 50.818 29.862C50.602 30.382 50.492 30.988 50.488 31.68C50.484 32.368 50.59 32.974 50.806 33.498C51.022 34.018 51.346 34.426 51.778 34.722C52.21 35.014 52.748 35.16 53.392 35.16C54.124 35.16 54.716 34.974 55.168 34.602C55.62 34.226 55.934 33.718 56.11 33.078L57.196 33.366C56.952 34.222 56.506 34.906 55.858 35.418C55.214 35.926 54.392 36.18 53.392 36.18ZM59.1119 36V27.36H62.5259C62.6099 27.36 62.7099 27.364 62.8259 27.372C62.9419 27.376 63.0539 27.388 63.1619 27.408C63.6299 27.48 64.0219 27.64 64.3379 27.888C64.6579 28.136 64.8979 28.45 65.0579 28.83C65.2179 29.206 65.2979 29.624 65.2979 30.084C65.2979 30.752 65.1239 31.332 64.7759 31.824C64.4279 32.312 63.9179 32.618 63.2459 32.742L62.8379 32.808H60.1799V36H59.1119ZM64.2539 36L62.5499 32.484L63.6059 32.16L65.4779 36H64.2539ZM60.1799 31.794H62.4899C62.5659 31.794 62.6519 31.79 62.7479 31.782C62.8479 31.774 62.9419 31.76 63.0299 31.74C63.3059 31.676 63.5299 31.56 63.7019 31.392C63.8779 31.22 64.0059 31.02 64.0859 30.792C64.1659 30.56 64.2059 30.324 64.2059 30.084C64.2059 29.844 64.1659 29.61 64.0859 29.382C64.0059 29.15 63.8779 28.948 63.7019 28.776C63.5299 28.604 63.3059 28.488 63.0299 28.428C62.9419 28.404 62.8479 28.39 62.7479 28.386C62.6519 28.378 62.5659 28.374 62.4899 28.374H60.1799V31.794ZM69.317 36V32.406L66.407 27.36H67.649L69.857 31.182L72.059 27.36H73.301L70.397 32.406V36H69.317ZM74.7377 36V27.36H78.1517C78.2357 27.36 78.3357 27.364 78.4517 27.372C78.5677 27.376 78.6797 27.388 78.7877 27.408C79.2557 27.48 79.6477 27.64 79.9637 27.888C80.2837 28.136 80.5237 28.45 80.6837 28.83C80.8437 29.206 80.9237 29.624 80.9237 30.084C80.9237 30.54 80.8417 30.958 80.6777 31.338C80.5177 31.714 80.2777 32.028 79.9577 32.28C79.6417 32.528 79.2517 32.688 78.7877 32.76C78.6797 32.776 78.5677 32.788 78.4517 32.796C78.3357 32.804 78.2357 32.808 78.1517 32.808H75.8057V36H74.7377ZM75.8057 31.794H78.1157C78.1917 31.794 78.2777 31.79 78.3737 31.782C78.4737 31.774 78.5677 31.76 78.6557 31.74C78.9317 31.676 79.1557 31.56 79.3277 31.392C79.5037 31.22 79.6317 31.02 79.7117 30.792C79.7917 30.56 79.8317 30.324 79.8317 30.084C79.8317 29.844 79.7917 29.61 79.7117 29.382C79.6317 29.15 79.5037 28.948 79.3277 28.776C79.1557 28.604 78.9317 28.488 78.6557 28.428C78.5677 28.404 78.4737 28.39 78.3737 28.386C78.2777 28.378 78.1917 28.374 78.1157 28.374H75.8057V31.794ZM84.9465 36V28.374H82.0005V27.36H88.9605V28.374H86.0145V36H84.9465ZM94.0678 36.18C93.2078 36.18 92.4778 35.99 91.8778 35.61C91.2778 35.23 90.8198 34.702 90.5038 34.026C90.1918 33.35 90.0358 32.568 90.0358 31.68C90.0358 30.792 90.1918 30.01 90.5038 29.334C90.8198 28.658 91.2778 28.13 91.8778 27.75C92.4778 27.37 93.2078 27.18 94.0678 27.18C94.9318 27.18 95.6638 27.37 96.2638 27.75C96.8638 28.13 97.3198 28.658 97.6318 29.334C97.9438 30.01 98.0998 30.792 98.0998 31.68C98.0998 32.568 97.9438 33.35 97.6318 34.026C97.3198 34.702 96.8638 35.23 96.2638 35.61C95.6638 35.99 94.9318 36.18 94.0678 36.18ZM94.0678 35.16C94.7118 35.164 95.2478 35.02 95.6758 34.728C96.1078 34.432 96.4298 34.022 96.6418 33.498C96.8578 32.974 96.9658 32.368 96.9658 31.68C96.9658 30.988 96.8578 30.382 96.6418 29.862C96.4298 29.342 96.1078 28.936 95.6758 28.644C95.2478 28.352 94.7118 28.204 94.0678 28.2C93.4238 28.196 92.8878 28.34 92.4598 28.632C92.0358 28.924 91.7158 29.332 91.4998 29.856C91.2838 30.38 91.1738 30.988 91.1698 31.68C91.1658 32.368 91.2718 32.972 91.4878 33.492C91.7038 34.012 92.0258 34.42 92.4538 34.716C92.8858 35.008 93.4238 35.156 94.0678 35.16ZM105.133 36V28.374H102.187V27.36H109.147V28.374H106.201V36H105.133ZM110.702 36V27.36H111.77V31.17H116.318V27.36H117.386V36H116.318V32.184H111.77V36H110.702ZM119.67 36V27.36H125.13V28.374H120.738V31.08H124.41V32.094H120.738V34.986H125.13V36H119.67ZM127.172 36V27.36H128.144L131.408 34.242L134.654 27.36H135.638V35.994H134.624V29.706L131.69 36H131.12L128.186 29.706V36H127.172ZM137.92 36V27.36H143.38V28.374H138.988V31.08H142.66V32.094H138.988V34.986H143.38V36H137.92Z" fill="#83889C"/>
<g clip-path="url(#clip0_141_46)">
<path fill-rule="evenodd" clip-rule="evenodd" d="M32.801 2.86084L36.3184 6.45171L34.481 5.14905L34.1642 4.61521L33.747 4.00152L33.2934 3.41749L32.801 2.86084ZM38.0235 8.47301L35.0988 6.39924L35.1945 6.61597L35.459 7.33232L35.6824 8.07149L35.8647 8.83346L36.0061 9.61597L36.0881 10.2844L39.7811 12.9011L39.7195 12.5544L39.5508 11.8494L39.3434 11.165L39.0972 10.5011L38.8145 9.86008L38.4977 9.24183L38.1443 8.64867L38.0235 8.47301ZM39.9133 13.8114L39.9384 14.0236L39.9885 14.7833L39.9976 15.5589L39.9657 16.3506L39.8905 17.1559L39.8814 17.2152L35.9605 14.4365L36.0517 13.8046L36.1314 12.9354L36.1656 12.0799L36.1542 11.2426L36.1474 11.1491L39.9133 13.8114ZM39.7788 17.9521L35.8351 15.1574L35.753 15.5818L35.5296 16.4897L35.2606 17.3977L35.0464 18.0183L39.0334 20.8449L39.1587 20.4844L39.4072 19.6426L39.6147 18.8008L39.7765 17.9703L39.7788 17.9521ZM38.7986 21.4951L38.5433 22.1361L38.1808 22.9414L37.7841 23.7331L37.5995 24.0684L33.5965 21.2327L33.7766 20.9065L34.2052 20.051L34.5973 19.1818L34.8047 18.6639L38.7986 21.4951ZM37.2712 24.6479L33.2706 21.8122L32.8124 22.5627L32.2789 23.3658L32.1581 23.5346C32.63 24.1574 33.0677 24.7711 33.4689 25.3757L35.7006 26.9567L35.8738 26.7354L36.3982 26.0099L36.8928 25.2662L37.2712 24.6479ZM35.2903 27.4814L34.9369 27.8989C34.7637 27.5475 34.5722 27.1894 34.3648 26.8266L35.2903 27.4814ZM31.7455 28.3916L29.4477 26.7627L29.8375 26.3658L30.3002 25.857C30.8952 26.7468 31.3831 27.5954 31.7455 28.3916ZM32.4066 30.4449C32.3587 30.1483 32.2835 29.838 32.1809 29.5141L28.969 27.2373L28.4538 27.7255L27.7243 28.3665L26.9743 28.9802L26.792 29.1194L30.6376 31.8456L30.7698 31.7521L31.4834 31.2114L32.1786 30.6433L32.4066 30.4449ZM30.0632 32.2494L30.0404 32.2654L29.2904 32.7513L28.5267 33.2076L27.7494 33.6319L27.4166 33.7985L23.7145 31.1749L23.7806 31.1384L24.6058 30.6456L25.4151 30.1209L26.2061 29.5665L26.2403 29.5414L30.0632 32.2494ZM26.7327 34.127L23.0648 31.5285L22.9372 31.597L22.0823 32.0213L21.2161 32.4114L20.3384 32.765L20.1014 32.8494L23.5572 35.2996L23.6917 35.2631L24.5215 35.0053L25.3421 34.7133L26.1559 34.3848L26.7327 34.127ZM22.7138 35.5164L22.0162 35.6669L21.1728 35.8106L20.327 35.9156L19.479 35.9795L18.6333 36L18.5649 35.9977L15.6995 33.9673L15.8362 33.9513L16.7481 33.7962L17.6553 33.6L18.5581 33.3627L19.3331 33.1232L22.7138 35.5164ZM17.3385 35.943L14.7078 34.0791L14.008 34.1316L13.0939 34.1544L12.1912 34.1316L11.3135 34.0631L10.461 33.9513L9.63347 33.7962L8.83333 33.6L8.06055 33.3627L13.9738 35.2677L14.6896 35.489L15.4305 35.6715L16.1964 35.8152L16.9851 35.9202L17.3385 35.943Z" fill="white"/>
<path fill-rule="evenodd" clip-rule="evenodd" d="M22.9692 0C23.2359 0.00684411 23.5072 0.0136882 23.7762 0.0182509C24.036 0.0387833 24.2959 0.0570342 24.5558 0.0730038C24.8065 0.107224 25.0618 0.139163 25.3172 0.171103C25.5611 0.21673 25.805 0.260076 26.0512 0.301141C26.2905 0.358175 26.5276 0.419772 26.7647 0.474525C26.9949 0.545247 27.2229 0.609125 27.4531 0.677567C27.6765 0.761977 27.8977 0.844106 28.1188 0.921673C28.3308 1.01521 28.5405 1.11103 28.7525 1.19772C28.9577 1.30494 29.1605 1.40989 29.3657 1.51483C29.5572 1.6289 29.7555 1.74297 29.9493 1.85475C30.1385 1.98251 30.3231 2.10798 30.5078 2.23118C30.6833 2.36806 30.8588 2.50266 31.0389 2.63954C31.2053 2.78783 31.3718 2.93612 31.5359 3.07985C31.6932 3.23726 31.8482 3.3924 32.0055 3.54753C32.1491 3.71635 32.295 3.88061 32.4454 4.04487C32.5799 4.22281 32.7167 4.39848 32.8535 4.57186C32.9811 4.75437 33.1042 4.93916 33.2296 5.12395C33.3413 5.31787 33.4576 5.50951 33.5738 5.70114C33.6764 5.89962 33.7767 6.10038 33.8839 6.30342C33.9728 6.51559 34.064 6.72319 34.1551 6.9308C34.2372 7.14981 34.317 7.36654 34.3945 7.58327C34.4606 7.80912 34.529 8.0327 34.5974 8.25855C34.6544 8.49125 34.7091 8.72167 34.7661 8.95665C34.8094 9.1962 34.8527 9.43346 34.8937 9.673C34.9234 9.91711 34.953 10.1658 34.9826 10.4076C34.9986 10.6631 35.0168 10.9141 35.0328 11.1673C35.0351 11.4251 35.0396 11.6852 35.0465 11.9407C35.0305 12.2099 35.0191 12.4745 35.01 12.7369C34.9826 13.0061 34.9598 13.2753 34.937 13.5422C34.896 13.8182 34.8573 14.0897 34.8208 14.3658C34.7683 14.6487 34.7136 14.927 34.6612 15.2053C34.5883 15.4905 34.5199 15.7757 34.4538 16.0586C34.3694 16.3414 34.2896 16.6266 34.2076 16.9118C34.1073 17.1947 34.0115 17.4798 33.9181 17.7582C33.8064 18.0365 33.6947 18.3148 33.5875 18.5954C33.4667 18.8669 33.3436 19.143 33.2251 19.419C33.0906 19.6905 32.9584 19.9643 32.8216 20.2312C32.6757 20.4958 32.5343 20.7627 32.3885 21.0274C32.2312 21.2897 32.0784 21.5544 31.9234 21.8144C31.757 22.07 31.5906 22.3278 31.4265 22.581L31.4173 22.5947C31.0002 22.0745 30.5602 21.5521 30.102 21.0274C30.1909 21.1278 30.2775 21.2304 30.3665 21.3308L30.5967 20.9407L30.7563 20.6715L30.7699 20.6509C30.8155 20.5688 30.8406 20.5209 30.9614 20.2973C30.9705 20.2791 30.925 20.3658 31.137 19.9779L31.1484 19.9574C31.2213 19.8137 31.2897 19.6722 31.3604 19.5308L31.5062 19.2342C31.5655 19.0951 31.6157 18.9833 31.6544 18.8897L31.8049 18.5452L31.8186 18.5133C31.9234 18.2418 32.0055 18.0365 32.0875 17.8335L32.1081 17.7787L32.1628 17.619C32.2084 17.4844 32.254 17.3452 32.3497 17.0783L32.3679 17.019C32.4295 16.8 32.491 16.5833 32.5685 16.3255L32.5799 16.289L32.5982 16.2114C32.6643 15.9376 32.7281 15.6593 32.7509 15.5772L32.7623 15.5384L32.8307 15.1848L32.8991 14.8266L32.9036 14.7901C32.9173 14.6852 32.9538 14.4411 32.988 14.197L33.0062 14.0669C33.0336 13.7635 33.0587 13.4646 33.0655 13.3939L33.0678 13.346C33.0746 13.1475 33.0837 12.9468 33.0974 12.6958V12.6411C33.0906 12.4221 33.0883 12.2144 33.086 12.0068V11.9635L33.0404 11.2836L32.9652 10.6654L32.9584 10.6266L32.8489 10.0221L32.8444 9.98555C32.7372 9.53384 32.8307 9.93764 32.7122 9.4403L32.7008 9.3924L32.6848 9.33764C32.6233 9.13688 32.5617 8.9384 32.5207 8.79239L32.507 8.75133L32.45 8.59392C32.3976 8.44791 32.3429 8.29962 32.3018 8.1924L32.2881 8.15817C32.2084 7.97567 32.2312 8.03042 32.1719 7.89582C32.1468 7.84106 32.1149 7.76122 32.0625 7.6403L32.0328 7.58099C31.9303 7.38935 31.8801 7.28897 31.8277 7.18859L31.7752 7.08593L31.7547 7.04715L31.6772 6.91711V6.91483C31.5952 6.77795 31.5131 6.64106 31.4743 6.57262L31.4493 6.53156C31.3307 6.35361 31.2099 6.17566 31.1233 6.05247L31.1028 6.02281L30.9318 5.8038H30.9295C30.8611 5.71483 30.8019 5.63954 30.7654 5.58935L30.7266 5.53916L30.5443 5.3384C30.5032 5.29049 30.444 5.22433 30.3687 5.13536L30.33 5.0943L30.1339 4.90038L29.9037 4.66996C29.7031 4.4943 29.7373 4.52624 29.6963 4.48973C29.4387 4.2616 29.7441 4.5308 29.4888 4.30266L29.2244 4.09962L29.0101 3.9308L28.7343 3.74601V3.74373L28.4972 3.58403L28.21 3.41749C28.1074 3.35817 28.0253 3.31027 27.9729 3.27833L27.9341 3.25551C27.6879 3.13004 27.9113 3.24639 27.6765 3.12548L27.4235 2.99316L27.3688 2.96806C27.2594 2.92243 27.1796 2.88821 27.1135 2.85856L26.849 2.74221L26.7989 2.72167C26.6712 2.67605 26.5846 2.64639 26.5253 2.62357L26.2495 2.52091L26.1994 2.50494L26.0307 2.45703C25.9099 2.42281 25.789 2.38631 25.6272 2.33612L25.5793 2.32243C25.4539 2.29278 25.3354 2.2654 25.2191 2.23574C25.1963 2.2289 25.2533 2.24487 24.9821 2.17871L24.9387 2.1673L24.6356 2.11255C24.1021 2.01673 24.1728 2.03042 24.2708 2.04867L24.2412 2.04411C23.9927 2.01445 23.7397 1.98251 23.6553 1.9711L23.6029 1.96654C23.416 1.95513 23.2017 1.94144 22.9601 1.92091H22.919L22.5794 1.91407C22.4745 1.91179 22.3651 1.90951 22.2443 1.90494H22.2032C22.071 1.90951 21.9593 1.91407 21.8613 1.91863L21.5171 1.93004L21.4783 1.93232L21.1409 1.9597C20.9973 1.9711 20.8856 1.98023 20.8058 1.98479L20.758 1.98935L20.4183 2.03726L20.0764 2.08289L20.0445 2.08517L20.0376 2.08745C19.7572 2.13764 19.4768 2.18783 19.3651 2.20608L19.3264 2.21293L19.0734 2.26996C18.9594 2.29506 18.8454 2.32243 18.6448 2.36578L18.6106 2.37719C18.5057 2.40456 18.3439 2.44791 18.1798 2.49125L17.929 2.55513L17.8925 2.56654C17.66 2.63954 17.4275 2.71711 17.1927 2.78783L16.8576 2.91103L16.5293 3.02509L16.4906 3.04106C16.3105 3.11635 16.0757 3.21217 15.8409 3.30798L15.8272 3.31483L15.8067 3.32624L15.4762 3.47452C15.385 3.51559 15.2801 3.56122 15.1502 3.61825L15.116 3.63422C14.8994 3.74373 14.6851 3.85095 14.4709 3.95589L14.4731 3.95817L14.4481 3.96958C14.2247 4.09049 14.0013 4.20684 13.7801 4.33004L13.5476 4.46692C13.3151 4.60608 13.2125 4.66768 13.1441 4.70646L13.1213 4.72015L12.9481 4.83194C12.8455 4.8981 12.7406 4.96654 12.4967 5.12624L12.4831 5.13308L11.8698 5.55513L11.8448 5.57566L11.667 5.70798C11.5917 5.66464 11.5165 5.61901 11.4413 5.57566C11.0241 5.33384 10.6092 5.11255 10.1989 4.90722C10.2787 4.84335 10.3585 4.77947 10.4383 4.71331C10.6753 4.53764 10.9124 4.3597 11.1472 4.18175C11.3888 4.01521 11.6328 3.84867 11.8744 3.68213C12.1183 3.52243 12.3645 3.36502 12.613 3.20532C12.8637 3.05932 13.1145 2.90875 13.3675 2.75817C13.6206 2.62129 13.8782 2.48441 14.1335 2.34297C14.3888 2.21521 14.6464 2.08973 14.904 1.95741C15.1661 1.84335 15.4283 1.727 15.6882 1.60836C15.9526 1.50114 16.217 1.39392 16.4815 1.28213C16.7459 1.19087 17.0126 1.09278 17.2793 0.994677C17.546 0.912547 17.8127 0.828137 18.0817 0.741445C18.3507 0.670722 18.6197 0.602281 18.8933 0.526996C19.1623 0.469962 19.4335 0.403802 19.7048 0.342205C19.9761 0.296578 20.2473 0.248669 20.5186 0.20076C20.7899 0.168821 21.0612 0.132319 21.337 0.0935361C21.6083 0.0752852 21.8773 0.0524715 22.1531 0.0273764C22.4221 0.0205323 22.6911 0.0114068 22.9692 0ZM22.2283 2.5711C21.9935 2.58023 21.7656 2.58935 21.5376 2.5962C21.3051 2.61673 21.0771 2.63498 20.8492 2.65095C20.6166 2.68289 20.3887 2.71255 20.1584 2.74221C19.9282 2.78327 19.7002 2.82433 19.47 2.86084C19.2398 2.91331 19.0095 2.96806 18.7838 3.01597C18.5536 3.07985 18.3256 3.13688 18.1 3.1962C17.872 3.27148 17.6463 3.34221 17.4229 3.41065C17.1972 3.49278 16.9716 3.5749 16.7482 3.65247C16.5248 3.74601 16.3014 3.83726 16.078 3.92852C15.8568 4.02662 15.6357 4.127 15.4146 4.22281C15.1958 4.33232 14.9792 4.43954 14.7626 4.54677C14.5461 4.6654 14.3295 4.78175 14.1152 4.89582C13.901 5.02357 13.689 5.14905 13.477 5.27452C13.2672 5.40913 13.0598 5.54144 12.8546 5.67605L12.2802 6.07072C13.2786 6.67528 14.3113 7.34373 15.3599 8.06236L15.3667 8.06692C15.4602 8.1308 15.5559 8.19696 15.6494 8.26312C15.7451 8.32928 15.8409 8.39544 15.9366 8.46388C16.0301 8.53004 16.1236 8.5962 16.217 8.66236L16.2239 8.66692L16.2444 8.68061C16.3287 8.73992 16.4153 8.80152 16.4997 8.86312L16.5248 8.88137C16.6114 8.94297 16.698 9.00684 16.7869 9.06844L16.8006 9.07985L16.8143 9.09125C16.8986 9.15285 16.983 9.21217 17.065 9.27376L17.0878 9.28973L17.0947 9.2943L17.1061 9.30342C17.1881 9.36274 17.2702 9.42433 17.3523 9.48365L17.391 9.51331C17.4776 9.57719 17.5643 9.64106 17.6486 9.70494L17.6988 9.74144C20.7853 12.0342 23.9129 14.692 26.6918 17.4274L26.6963 17.4319L26.7009 17.4365C27.8338 18.5521 28.9075 19.6791 29.8969 20.8015C29.9903 20.6441 30.0815 20.4867 30.175 20.3293C30.2981 20.1057 30.4189 19.8798 30.542 19.6563C30.656 19.4281 30.7677 19.2 30.8816 18.9696C30.9819 18.7369 31.0845 18.5042 31.1871 18.2738C31.2783 18.0388 31.3718 17.8038 31.4652 17.5665C31.545 17.3316 31.6248 17.0897 31.7091 16.8525C31.7775 16.6106 31.8459 16.3711 31.9166 16.1316C31.9736 15.8943 32.0306 15.6525 32.0921 15.4106C32.1377 15.1757 32.1833 14.9407 32.2266 14.7011C32.2585 14.4684 32.2904 14.238 32.3246 14.0053C32.3451 13.7795 32.3634 13.5513 32.3862 13.3255C32.3953 13.1042 32.4021 12.8806 32.4181 12.6525C32.4135 12.4357 32.409 12.219 32.4067 12C32.393 11.7878 32.3793 11.5734 32.3657 11.3589C32.3406 11.1536 32.3155 10.9437 32.2904 10.7384C32.254 10.5376 32.2175 10.3346 32.181 10.1338C32.1331 9.93536 32.0853 9.73916 32.0397 9.54296C31.9804 9.35361 31.9234 9.16198 31.8664 8.97262C31.8003 8.79011 31.7342 8.6076 31.6635 8.42281C31.586 8.24715 31.5085 8.07148 31.4333 7.89125C31.3421 7.72015 31.2555 7.55133 31.1712 7.38251C31.0754 7.22053 30.9751 7.05856 30.8816 6.8943C30.7768 6.73916 30.6719 6.58175 30.5648 6.4289C30.4485 6.28061 30.3323 6.1346 30.2206 5.98403C30.0929 5.84487 29.9698 5.7057 29.849 5.56426C29.7168 5.43422 29.5846 5.3019 29.4523 5.16958C29.311 5.04639 29.1719 4.92319 29.0329 4.79772C28.8824 4.68365 28.7343 4.56958 28.5861 4.45323C28.4288 4.34829 28.2738 4.24335 28.1142 4.13384C27.9501 4.0403 27.7814 3.94221 27.6195 3.84639C27.4463 3.75741 27.273 3.67072 27.1021 3.57947C26.9243 3.50418 26.7465 3.42433 26.5664 3.34449C26.3794 3.27833 26.1925 3.20989 26.0033 3.13916C25.8095 3.08213 25.6158 3.02738 25.422 2.96806C25.2214 2.92243 25.0208 2.86996 24.8179 2.82205C24.6105 2.78783 24.403 2.74905 24.1979 2.71255C23.9836 2.68517 23.767 2.66008 23.555 2.63042C23.3362 2.61901 23.1151 2.60304 22.8962 2.58479C22.6819 2.58023 22.454 2.57795 22.2283 2.5711ZM28.251 23.1376C28.1097 22.9665 27.9638 22.7932 27.8156 22.6221L27.8019 22.6084L27.7518 22.5513C27.6902 22.4806 27.6287 22.4099 27.5671 22.3392L27.501 22.2639C27.4395 22.1932 27.3779 22.1224 27.3141 22.0517L27.2503 21.981C27.191 21.9148 27.134 21.851 27.0747 21.7848L26.9949 21.6958C26.9402 21.6365 26.8855 21.5749 26.8308 21.5156L26.7305 21.4061C26.6804 21.3513 26.6325 21.2989 26.5823 21.2441L26.4661 21.1186L26.3293 20.9703C26.2837 20.9202 26.2381 20.8722 26.1902 20.8221L26.074 20.6989C26.0147 20.6373 25.9554 20.5734 25.8939 20.5118L25.8779 20.4935L25.8278 20.4411L25.8209 20.4342C25.7571 20.3681 25.691 20.2996 25.6272 20.2335L25.577 20.181C20.6987 15.1643 14.2087 10.2821 9.5059 8.44335L9.39421 8.55285C9.21868 8.73764 9.04999 8.92243 8.87674 9.10494C8.71033 9.2943 8.54392 9.48593 8.37751 9.67528C8.21794 9.87148 8.05836 10.0654 7.89879 10.2616C7.74606 10.4646 7.59105 10.6677 7.44059 10.8639C7.29698 11.0715 7.14881 11.2791 7.00519 11.4867C6.86614 11.6989 6.73164 11.9133 6.59487 12.1255C6.46265 12.3422 6.33499 12.5612 6.20733 12.7757C6.08652 12.9992 5.9657 13.2228 5.84488 13.4418C5.73546 13.6677 5.62604 13.8935 5.51434 14.1217C5.40948 14.3521 5.31146 14.5802 5.20887 14.8129C5.11541 15.0502 5.02423 15.2829 4.93532 15.5179C4.85326 15.7574 4.77119 15.997 4.69141 16.2297C4.61846 16.4692 4.55007 16.7087 4.48396 16.9483C4.42697 17.1856 4.3677 17.4251 4.31071 17.6578C4.26512 17.8905 4.21725 18.1255 4.17394 18.3582C4.13975 18.5863 4.10555 18.8167 4.07364 19.0471C4.05312 19.2753 4.0326 19.5034 4.01437 19.7247C4.00297 19.9506 3.98929 20.1719 3.98017 20.3954C3.98245 20.6144 3.98473 20.8357 3.98701 21.0548C4.00069 21.2692 4.01437 21.4836 4.03032 21.6958C4.0554 21.908 4.08276 22.1156 4.10783 22.3232C4.14202 22.5262 4.18078 22.7316 4.21497 22.9369C4.26056 23.1376 4.31071 23.3361 4.36087 23.5346C4.42014 23.7285 4.47712 23.9247 4.53411 24.1163C4.6025 24.3034 4.67317 24.4882 4.74156 24.6753C4.81906 24.8555 4.89885 25.0357 4.98091 25.2205C5.06982 25.3962 5.15872 25.5673 5.24991 25.7407C5.35021 25.9072 5.45051 26.0738 5.54853 26.2449C5.65795 26.4068 5.77193 26.5643 5.88363 26.724C6.00217 26.8768 6.12299 27.0274 6.24381 27.1779C6.37147 27.3217 6.5014 27.4654 6.63134 27.6091C6.77267 27.746 6.90945 27.8806 7.05078 28.0152C7.19668 28.143 7.34713 28.2684 7.49758 28.3939C7.65488 28.5103 7.80989 28.6266 7.96946 28.7407C8.13587 28.8502 8.3 28.9574 8.46869 29.0624C8.64422 29.1627 8.82203 29.2608 8.99756 29.3567C9.1822 29.4433 9.36685 29.5323 9.54694 29.6144C9.7407 29.6943 9.93447 29.7696 10.126 29.8449C10.3266 29.911 10.5272 29.9749 10.7255 30.0433C10.9352 30.0981 11.1449 30.1529 11.3547 30.2053C11.5712 30.2509 11.7855 30.2943 12.0021 30.3354C12.2232 30.365 12.4489 30.3992 12.6723 30.4266C12.9025 30.4494 13.135 30.4654 13.3653 30.4814C13.6023 30.4859 13.8394 30.4928 14.081 30.4973C14.3181 30.4928 14.5598 30.4859 14.8037 30.4814C15.0453 30.4654 15.287 30.4471 15.5309 30.4266C15.7725 30.3992 16.0141 30.365 16.2558 30.3354C16.4974 30.2943 16.7391 30.2487 16.9807 30.2053C17.22 30.1529 17.4617 30.0958 17.7033 30.0411C17.9427 29.9772 18.182 29.9133 18.4214 29.8449C18.6585 29.7696 18.8978 29.692 19.1372 29.6122C19.3743 29.5255 19.6113 29.4388 19.8507 29.3498C20.0855 29.254 20.318 29.1536 20.5528 29.0532C20.783 28.9506 21.0133 28.8411 21.2458 28.7316C21.4715 28.6152 21.7017 28.4966 21.9297 28.3825C22.1508 28.257 22.3765 28.1316 22.5999 28.0015C22.8187 27.8669 23.0376 27.73 23.261 27.5932C23.473 27.4471 23.6895 27.3057 23.9061 27.1597C24.1158 27.0091 24.3255 26.8586 24.5375 26.7034C24.7404 26.5414 24.9456 26.3817 25.1553 26.2198C25.3536 26.051 25.552 25.8844 25.7548 25.7156C25.9463 25.5422 26.1378 25.3688 26.3361 25.1886C26.5231 25.0061 26.7077 24.8236 26.8969 24.6433C27.0793 24.4563 27.2594 24.2692 27.4395 24.0776C27.6104 23.8836 27.7837 23.6875 27.9569 23.4913C28.0527 23.3749 28.1507 23.2563 28.251 23.1376ZM29.6324 24.9057C29.2563 24.3901 28.8482 23.8677 28.4151 23.3384C28.504 23.4456 28.5907 23.5551 28.6773 23.6624L28.6317 23.7171L28.4516 23.9338L27.9341 24.5202L27.9205 24.5361C27.8429 24.6182 27.7495 24.7163 27.6446 24.8259C27.5557 24.9194 27.4645 25.0129 27.3711 25.111L27.3551 25.127C27.1773 25.2981 27.0109 25.4601 26.8468 25.6221L26.8012 25.6677C26.5914 25.8525 26.3863 26.0464 26.1766 26.2335C26.0375 26.3475 25.8164 26.5346 25.5953 26.724C25.4881 26.8152 25.365 26.9019 25.2533 26.9909L24.9296 27.2487C24.6925 27.4198 25.0276 27.1757 24.6105 27.4768L24.2959 27.7049L24.2799 27.7186C24.0132 27.8989 24.2891 27.7118 24.0315 27.8829C23.9334 27.949 23.8331 28.0152 23.6394 28.1475L23.6097 28.1658C23.3681 28.3141 23.3066 28.3506 23.2473 28.3894L22.9487 28.5741L22.9327 28.5856C22.6956 28.7201 22.8187 28.6471 22.495 28.8297L22.2557 28.9643L22.2306 28.9802L21.8909 29.1536V29.1513C21.7838 29.2061 21.6721 29.2631 21.5558 29.3247L21.533 29.3384C21.3096 29.4456 21.2868 29.457 21.1843 29.5049C21.1364 29.5278 21.0361 29.5734 20.8286 29.6669L20.8218 29.6715C20.7671 29.6943 20.9654 29.6099 20.4662 29.8221C20.2815 29.9019 20.1425 29.9589 20.1083 29.9726L20.0901 29.9772C19.7663 30.0981 19.5817 30.1665 19.3993 30.2327C19.2671 30.2806 19.1281 30.3217 18.9936 30.3673H18.9913L18.6311 30.4814L18.6106 30.4882C18.3302 30.5658 18.1114 30.6251 17.8925 30.6844C17.8743 30.689 17.8561 30.6935 17.8355 30.6981C17.6668 30.7369 17.5027 30.7757 17.1311 30.8578L17.0947 30.8646C16.8006 30.9194 16.5088 30.9719 16.3743 30.997L16.3447 30.9992L16.1076 31.0312C15.9002 31.0586 15.695 31.0859 15.6129 31.0951H15.5924C15.2801 31.1224 15.0658 31.1384 14.8515 31.1544V31.1521L14.8196 31.1544L14.097 31.1703H14.0719L13.3561 31.1544H13.3174C13.1099 31.1384 12.9048 31.1247 12.613 31.0973H12.5948C12.5104 31.0859 12.3212 31.0608 12.1274 31.0335L11.8812 30.9992L11.5507 30.9331L11.227 30.8669L11.1974 30.8624L10.8805 30.7825V30.7802L10.5614 30.6981L10.2285 30.5909L9.88888 30.4768L9.79085 30.438C9.62672 30.3741 9.46031 30.308 9.29618 30.2395L9.27567 30.2281C9.08646 30.1414 9.01123 30.1049 8.93601 30.0707C8.76048 29.9886 8.81519 30.0114 8.71945 29.9681L8.67841 29.9475L8.54848 29.8768C8.32964 29.7559 8.18146 29.6738 8.14043 29.6509L8.11991 29.6373C8.07204 29.6076 7.9763 29.546 7.85776 29.4684C7.52266 29.2517 7.63436 29.3247 7.607 29.3065L7.58649 29.2905C7.36537 29.1331 7.23999 29.0373 7.11005 28.9414V28.9392C7.02115 28.873 6.93225 28.7909 6.8479 28.7202C6.69061 28.5878 6.6359 28.5422 6.61538 28.524L6.59715 28.5034C6.41706 28.3323 6.36007 28.2776 6.30536 28.2251L6.14123 28.0631C6.03864 27.9513 6.23241 28.1635 5.94518 27.8441C5.76737 27.6479 5.80157 27.6867 5.74686 27.6251L5.72862 27.6023C5.63744 27.4882 5.57589 27.4152 5.54169 27.3719L5.34109 27.1163L5.17012 26.8768C5.11541 26.7992 5.05842 26.7194 4.99915 26.6281L4.97408 26.5871C4.91253 26.4821 4.86693 26.4046 4.83046 26.343C4.71192 26.1445 4.80311 26.2996 4.68001 26.0943L4.66405 26.0624L4.52272 25.7954L4.37454 25.5034L4.25145 25.2228C4.22409 25.1612 4.18762 25.0745 4.13063 24.9445L4.11923 24.9217C4.11239 24.9011 4.14202 24.9787 4.01437 24.6388C3.9665 24.511 3.92774 24.4106 3.90951 24.3536L3.89583 24.3125C3.87759 24.2509 3.87987 24.2578 3.81148 24.0274L3.72486 23.7354L3.71802 23.7057L3.56985 23.0989L3.50374 22.7293L3.44903 22.4144L3.37152 21.7871L3.32593 21.1049C3.32593 20.8631 3.31909 20.6213 3.31909 20.3795C3.32821 20.1376 3.33961 19.9414 3.35101 19.7452L3.35329 19.7019V19.6836C3.35785 19.6312 3.38748 19.3141 3.41483 18.997L3.41711 18.965L3.42167 18.9354C3.45815 18.6707 3.49462 18.4061 3.51742 18.2669L3.52198 18.2441C3.56073 18.0388 3.57897 17.9407 3.59036 17.8882L3.65875 17.5346L3.66559 17.5049C3.72486 17.2631 3.78413 17.019 3.8434 16.7772C3.87075 16.6768 3.90723 16.5536 3.94826 16.4099L4.06224 16.0198C4.18306 15.6639 4.13519 15.8076 4.15798 15.7414L4.30843 15.3057L4.31299 15.2875C4.34263 15.2076 4.3905 15.0844 4.44977 14.9316L4.5911 14.5734L4.59794 14.5506L4.68457 14.3544C4.75296 14.197 4.82134 14.0418 4.90797 13.8525L4.91481 13.8365C5.13593 13.3757 5.17696 13.2935 5.21799 13.2091L5.24535 13.1544L5.44139 12.7985L5.62148 12.4654L5.79017 12.1825C5.92922 11.9498 5.97482 11.8722 6.02497 11.7878L6.1891 11.53C6.23241 11.4616 6.27572 11.3932 6.44897 11.1285C6.59259 10.9141 6.7476 10.7019 6.89577 10.4897L6.91173 10.4669L6.96872 10.3939C7.11233 10.2046 7.26051 10.0129 7.36537 9.87148L7.3836 9.84639L7.86232 9.26008L7.87828 9.24183C8.24301 8.8289 8.08344 9.00912 8.13587 8.94981C8.38207 8.66692 8.16095 8.91559 8.37751 8.67148L8.39574 8.65323C8.45957 8.58707 8.55304 8.48441 8.64878 8.38175C8.70121 8.32471 8.75364 8.26996 8.81747 8.20152C8.22021 7.99848 7.65716 7.85247 7.13513 7.77034C6.94364 7.98707 6.75672 8.2038 6.56523 8.42053C6.37602 8.65323 6.18682 8.88365 5.99761 9.11635C5.81752 9.35817 5.63516 9.59544 5.45507 9.83042C5.2841 10.0745 5.11085 10.3232 4.93988 10.5673C4.77575 10.8183 4.61618 11.0738 4.45433 11.3247C4.29932 11.5825 4.14658 11.8403 3.99385 12.0935C3.85024 12.3582 3.7089 12.6228 3.56529 12.8829C3.43535 13.1498 3.30541 13.4167 3.17548 13.6882C3.05238 13.962 2.93384 14.2335 2.81302 14.5072C2.70132 14.7878 2.59418 15.0639 2.48932 15.3422C2.3913 15.6251 2.29555 15.9103 2.19981 16.1863C2.11547 16.4692 2.0334 16.7521 1.95362 17.0373C1.88523 17.3179 1.81684 17.6008 1.74845 17.8768C1.69374 18.1529 1.63903 18.4312 1.5866 18.7072C1.54557 18.9764 1.50682 19.2502 1.46806 19.524C1.44299 19.7932 1.41791 20.0646 1.3974 20.327C1.38372 20.5939 1.37004 20.8563 1.35864 21.1209C1.36092 21.381 1.3632 21.6411 1.36776 21.9011C1.38372 22.1544 1.40195 22.4076 1.41791 22.6608C1.44755 22.9118 1.47946 23.1582 1.5091 23.4046C1.55013 23.6441 1.59572 23.8882 1.63675 24.1323C1.69146 24.3696 1.75073 24.6068 1.81 24.8395C1.87839 25.07 1.94906 25.3004 2.01517 25.5262C2.09495 25.7475 2.1793 25.9665 2.26136 26.1878C2.35254 26.4023 2.44601 26.6167 2.54403 26.8335C2.64889 27.0411 2.75375 27.2441 2.86317 27.4494C2.98171 27.6479 3.10253 27.8441 3.21879 28.0449C3.34873 28.2365 3.48322 28.4236 3.61544 28.6106C3.75677 28.7909 3.89811 28.9688 4.04172 29.1468C4.19446 29.3179 4.34491 29.4867 4.5022 29.6578C4.66861 29.8198 4.83274 29.9795 4.99915 30.1392C5.1724 30.2897 5.35021 30.438 5.52802 30.5863C5.71266 30.7255 5.89731 30.8624 6.08652 30.997C6.28256 31.1247 6.47861 31.2548 6.67921 31.3779C6.88665 31.4966 7.09638 31.6129 7.30382 31.727C7.52266 31.8297 7.7415 31.9346 7.95578 32.0327C8.18602 32.1285 8.41398 32.2175 8.63966 32.3065C8.87674 32.3863 9.11382 32.4616 9.35089 32.5414C9.59937 32.6076 9.84556 32.6692 10.094 32.7331C10.3494 32.7855 10.6047 32.838 10.86 32.8882C11.1221 32.9247 11.3888 32.9635 11.6533 32.9977C11.9268 33.0251 12.2004 33.0433 12.4739 33.0639C12.7543 33.0707 13.037 33.0776 13.3219 33.0844C13.6046 33.0776 13.8896 33.0707 14.1768 33.0639C14.4617 33.0433 14.749 33.0251 15.0362 32.9977C15.3211 32.9658 15.6084 32.9247 15.8933 32.8882C16.1806 32.838 16.4655 32.7855 16.7527 32.7331C17.0354 32.6692 17.3226 32.603 17.6099 32.5392C17.8925 32.4639 18.1775 32.3863 18.4601 32.3087C18.7405 32.2198 19.0232 32.1262 19.3082 32.035C19.5885 31.9323 19.8689 31.8297 20.1516 31.7247C20.4274 31.6129 20.7055 31.492 20.9814 31.3734C21.2549 31.2502 21.5285 31.1224 21.802 30.9924C22.0687 30.8532 22.3423 30.7141 22.6113 30.5795C22.8734 30.4312 23.1401 30.2806 23.4069 30.13C23.6667 29.9703 23.9243 29.8084 24.191 29.6464C24.4441 29.473 24.6994 29.3042 24.9547 29.1331C25.2032 28.9551 25.4517 28.7749 25.7024 28.5924C25.944 28.4008 26.1857 28.2114 26.4319 28.0198C26.6667 27.8213 26.8992 27.6228 27.1408 27.4221C27.3688 27.2167 27.5945 27.0114 27.8293 26.7992C28.0504 26.5848 28.2692 26.3681 28.4926 26.1536C28.7092 25.9323 28.9212 25.7087 29.1332 25.4829L29.6324 24.9057Z" fill="#2DD98F"/>
<path fill-rule="evenodd" clip-rule="evenodd" d="M21.0156 19.3641C21.6105 20.3063 21.9183 21.2029 21.9342 22.047C21.9525 22.8934 21.6744 23.6576 21.1022 24.3352C20.6121 24.9147 20.0878 25.339 19.527 25.6036C18.973 25.8683 18.3758 25.9709 17.7466 25.9139C17.1152 25.8546 16.4769 25.663 15.8318 25.3344C15.6699 25.2523 15.5012 25.1588 15.328 25.0516L13.4769 27.2462L12.0385 26.0303L13.8006 23.9428C13.7414 23.8926 13.6798 23.8424 13.6206 23.7922L12.3622 22.7291L10.6024 24.8166L9.16395 23.6006L10.9238 21.5132L8.25439 19.2569L8.73767 18.682C9.00438 18.8052 9.22778 18.8873 9.40787 18.9261C9.59024 18.9626 9.7612 18.9489 9.92078 18.8805C10.0826 18.8143 10.2513 18.6957 10.4223 18.5291C10.5955 18.3603 10.8007 18.1344 11.0332 17.8584L15.948 12.0295C16.894 12.6797 17.8515 13.3824 18.8043 14.1238L17.5301 15.6455L18.6904 16.6242C19.2694 17.1147 19.796 17.4158 20.2724 17.5276C20.7466 17.6371 21.1956 17.6097 21.631 17.4432C21.8522 17.3611 22.0733 17.2265 22.3012 17.044C23.1264 17.7808 23.9311 18.536 24.7039 19.2979C23.7305 19.7474 22.5246 19.7451 21.0817 19.2888L21.0156 19.3641ZM17.8036 9.81201C18.7382 10.5078 19.6774 11.2379 20.6098 11.993L21.0315 11.4934C21.4373 11.79 21.8453 12.1094 22.2511 12.4516C22.7617 12.8827 23.1401 13.3048 23.3795 13.7154C23.5436 13.9983 23.6394 14.2903 23.6667 14.5869C24.6629 15.4721 25.6363 16.3801 26.5709 17.2949C26.6302 17.1352 26.6758 16.9732 26.7054 16.809C26.8012 16.2843 26.751 15.7709 26.5527 15.2736C26.3316 14.7192 25.9873 14.1694 25.5132 13.6196C25.4288 13.5215 25.3354 13.4211 25.2328 13.3139L27.0405 11.1717L25.6021 9.95574L23.8422 12.0432L22.4038 10.8272L24.1637 8.73977L22.7252 7.5238L20.9654 9.61125L18.296 7.35498L17.8127 7.92989C17.986 8.17855 18.1022 8.38844 18.1683 8.56639C18.2299 8.74662 18.2458 8.91544 18.2071 9.08198C18.1683 9.25308 18.0817 9.43559 17.9358 9.63179C17.8925 9.69338 17.8492 9.75042 17.8036 9.81201ZM12.7725 21.2827C13.0985 21.5884 13.4883 21.9329 13.9329 22.3094C14.4868 22.777 14.9974 23.0919 15.4716 23.2561C15.9435 23.4204 16.4222 23.4158 16.9054 23.2447C17.3887 23.0713 17.8788 22.6881 18.3803 22.0949C18.7337 21.6751 18.9844 21.2759 19.1349 20.8881C19.2808 20.4979 19.3309 20.1261 19.2717 19.7656C19.2192 19.4052 19.0802 19.063 18.8613 18.7322C18.6425 18.4059 18.3165 18.0569 17.8788 17.6873L16.6684 16.6652L12.7725 21.2827Z" fill="#040215"/>
<path fill-rule="evenodd" clip-rule="evenodd" d="M4.27422 11.5301C0.934616 -6.63189 45.1405 31.0198 30.0245 32.8905C36.6125 36.9035 37.8503 33.6936 36.5418 29.051C34.4423 21.6115 21.5877 9.94226 12.1593 4.48978C2.97941 -0.821241 -5.32514 2.69435 4.27422 11.5301Z" fill="#2DD98F"/>
</g>
<defs>
<clipPath id="clip0_141_46">
<rect width="40" height="36" fill="white"/>
</clipPath>
</defs>
</svg>
