<svg width="76" height="146" viewBox="0 0 76 146" fill="none" xmlns="http://www.w3.org/2000/svg">
<g clip-path="url(#clip0_381_389)">
<mask id="mask0_381_389" style="mask-type:luminance" maskUnits="userSpaceOnUse" x="0" y="0" width="83" height="146">
<path d="M83 0H0V146H83V0Z" fill="white"/>
</mask>
<g mask="url(#mask0_381_389)">
<path d="M37.9521 116.922C18.0963 105.109 2 76.8036 2 53.6995C2 30.5955 18.0963 21.4422 37.9521 33.2552C57.8078 45.0681 73.9041 73.3739 73.9041 96.478C73.9041 119.582 57.8078 128.735 37.9521 116.922Z" fill="white" stroke="#0D0B33" stroke-width="1.28663"/>
<path d="M37.71 47.8223L52.5592 84.8459L37.71 86.4079L22.8606 67.6994L37.71 47.8223Z" fill="#0D0B33"/>
<path d="M37.7097 103.686L22.8606 70.9507L37.71 89.6542L52.5682 88.1027L37.71 103.687L37.7097 103.686Z" fill="#0D0B33"/>
<path d="M37.952 33.2551C28.132 27.4128 19.2315 26.6988 12.743 30.2643L19.8789 26.2065C33.919 18.2225 56.6826 31.7654 70.7228 56.4554C84.7629 81.1455 84.7629 107.633 70.7228 115.617L63.8598 119.52C63.8603 119.515 63.8607 119.511 63.8611 119.506C70.0803 115.686 73.904 107.739 73.904 96.4779C73.904 73.3739 57.8077 45.068 37.952 33.2551Z" fill="#2DD98F" stroke="#0D0B33" stroke-width="1.28663"/>
<path d="M73.6734 91.5755L81.023 87.4991C80.9199 83.5662 80.4727 80.7268 78.9563 74.6094L71.2 78.9233C72.4454 83.1762 73.2918 87.4321 73.6734 91.5755Z" fill="#0D0B33"/>
<path d="M67.8708 69.684L75.063 65.4756C67.3751 48.9834 61.5006 41.2235 47.8307 30.4709L40.368 34.7855C51.8418 42.4976 61.8436 55.5973 67.8708 69.684Z" fill="#0D0B33"/>
</g>
</g>
<defs>
<clipPath id="clip0_381_389">
<rect width="83" height="146" fill="white"/>
</clipPath>
</defs>
</svg>
