<svg width="67" height="101" viewBox="0 0 67 101" fill="none" xmlns="http://www.w3.org/2000/svg">
<g clip-path="url(#clip0_381_3550)">
<path d="M24.6994 87.5416C7.00657 76.934 -7.33628 51.5155 -7.33628 30.7682C-7.33628 10.021 7.00657 1.80145 24.6994 12.4094C42.3922 23.0173 56.7351 48.4356 56.7351 69.1831C56.7351 89.9302 42.3922 98.15 24.6994 87.5416Z" fill="white" stroke="#0D0B33" stroke-width="1.72736"/>
<path fill-rule="evenodd" clip-rule="evenodd" d="M40.6843 55.148C41.3519 50.3349 37.9486 45.5585 33.2949 40.9856L34.8045 34.8177L31.1178 31.6037L29.6481 37.6091C28.6802 36.765 27.685 35.9208 26.6961 35.0828L28.1763 29.0384L24.4927 25.8263L22.982 31.991C22.18 31.3118 21.3927 30.6436 20.6284 29.9778L20.6326 29.9582L15.5497 25.5239L14.5692 29.5344C14.5692 29.5344 17.3038 31.8548 17.2461 31.8664C18.7388 33.1686 19.0097 34.4757 18.9635 35.3601L17.244 42.3867C17.3469 42.4771 17.4802 42.5986 17.6272 42.7526L17.2388 42.4142L14.8274 52.2559C14.6448 52.6773 14.1818 53.1996 13.1383 52.2919C13.1751 52.3756 10.4594 49.955 10.4594 49.955L8.62956 53.8012L13.427 57.9839C13.9685 58.4569 14.5034 58.9305 15.0324 59.3989L15.0342 59.4005C15.3764 59.7035 15.7161 60.0043 16.0536 60.3013L14.5282 66.5418L18.2098 69.753L19.7215 63.5813C20.7261 64.4834 21.7023 65.3446 22.6576 66.1765L21.1523 72.3188L24.838 75.532L26.3633 69.3062C32.6483 74.3468 37.3754 76.5394 39.3626 71.082C40.9657 66.6883 39.2839 62.6375 35.9771 58.7089C38.3853 59.4615 40.1993 58.6735 40.6832 55.1474L40.6843 55.148ZM21.6324 59.7457C21.3634 59.5063 21.1224 59.2922 20.9172 59.1133L22.9411 50.8492C23.1922 51.0682 23.4989 51.3268 23.8464 51.6197C26.9568 54.2416 33.331 59.6149 32.2631 63.9899L32.262 63.9893C31.2156 68.2687 24.6389 62.4196 21.6324 59.7457ZM24.4716 47.6023C26.9803 49.8406 32.4484 54.7198 33.401 50.8334C34.3749 46.857 29.0576 42.394 26.4608 40.2143C26.1689 39.9693 25.9113 39.7531 25.701 39.5697L23.8659 47.0654C24.0396 47.2167 24.2434 47.3986 24.4716 47.6023Z" fill="black"/>
<path d="M24.6994 12.4092C15.9492 7.16289 8.01821 6.5217 2.2365 9.72354L8.59504 6.07963C21.1058 -1.08995 41.3897 11.0715 53.9004 33.2429C66.4113 55.4144 66.4113 79.2 53.9004 86.3696L47.7851 89.8739C47.7855 89.8698 47.7859 89.8658 47.7863 89.8618C53.3279 86.4312 56.7351 79.2949 56.7351 69.1829C56.7351 48.4355 42.3922 23.0171 24.6994 12.4092Z" fill="#79EFBD" stroke="#0D0B33" stroke-width="1.72736"/>
<path d="M56.5295 64.7806L63.0788 61.12C62.9865 57.5882 62.5883 55.0385 61.2369 49.5452L54.3256 53.4189C55.4353 57.238 56.1895 61.0598 56.5295 64.7806Z" fill="#0D0B33"/>
<path d="M51.359 45.1221L57.7678 41.343C50.9174 26.5332 45.6828 19.5649 33.502 9.90918L26.8522 13.7836C37.0762 20.709 45.9885 32.4725 51.359 45.1221Z" fill="#0D0B33"/>
</g>
<defs>
<clipPath id="clip0_381_3550">
<rect width="75" height="101" fill="white" transform="translate(-8)"/>
</clipPath>
</defs>
</svg>
