<svg width="85" height="113" viewBox="0 0 85 113" fill="none" xmlns="http://www.w3.org/2000/svg">
<g clip-path="url(#clip0_317_695)">
<path d="M37.0463 98.0826C16.9944 86.2147 0.739153 57.7763 0.739151 34.5641C0.73915 11.3518 16.9944 2.15569 37.0463 14.024C57.0982 25.8922 73.3534 54.3306 73.3534 77.5428C73.3534 100.755 57.0982 109.951 37.0463 98.0826Z" fill="white" stroke="#0D0B33" stroke-width="1.72736"/>
<path d="M36.8018 28.6592L51.7977 65.8561L36.8018 67.4254L21.8058 48.6293L36.8018 28.6592Z" fill="#070707"/>
<path d="M36.8015 84.7843L21.8058 51.896L36.8018 70.6871L51.8068 69.1283L36.8018 84.7851L36.8015 84.7843Z" fill="#070707"/>
<path d="M37.0463 14.024C27.1293 8.15432 18.141 7.43692 11.5884 11.0192L18.7947 6.94233C32.9735 -1.07909 55.9619 12.5273 70.1407 37.3329C84.3193 62.1386 84.3193 88.75 70.1407 96.7715L63.21 100.693C63.2104 100.688 63.2109 100.683 63.2113 100.679C69.4919 96.8404 73.3534 88.8563 73.3534 77.5428C73.3534 54.3306 57.0982 25.8922 37.0463 14.024Z" fill="#2DD98F" stroke="#0D0B33" stroke-width="1.72736"/>
<path d="M73.1205 72.6173L80.5424 68.5217C80.4386 64.5705 79.9873 61.7178 78.4558 55.5718L70.6226 59.9058C71.8803 64.1786 72.735 68.4545 73.1205 72.6173Z" fill="#0D0B33"/>
<path d="M67.2606 50.6233L74.5238 46.3952C66.7601 29.8258 60.8275 22.0295 47.0225 11.2266L39.4862 15.5614C51.0733 23.3096 61.1738 36.4707 67.2606 50.6233Z" fill="#0D0B33"/>
</g>
<defs>
<clipPath id="clip0_317_695">
<rect width="85" height="113" fill="white"/>
</clipPath>
</defs>
</svg>
