<svg width="85" height="113" viewBox="0 0 85 113" fill="none" xmlns="http://www.w3.org/2000/svg">
<g clip-path="url(#clip0_317_689)">
<path d="M37.0593 97.9427C17.0074 86.0747 0.752197 57.6362 0.752197 34.4239C0.752197 11.2117 17.0074 2.01556 37.0593 13.8838C57.1112 25.7521 73.3664 54.1905 73.3664 77.4029C73.3664 100.615 57.1112 109.811 37.0593 97.9427Z" fill="white" stroke="#0D0B33" stroke-width="1.72736"/>
<path fill-rule="evenodd" clip-rule="evenodd" d="M55.1755 61.6999C55.9322 56.315 52.075 50.9711 46.8009 45.8548L48.5117 38.9542L44.3334 35.3583L42.6678 42.0772C41.5708 41.1328 40.443 40.1883 39.3223 39.2507L40.9998 32.4882L36.825 28.8944L35.1129 35.7916C34.204 35.0316 33.3117 34.2841 32.4455 33.5392L32.4503 33.5173L26.6896 28.5562L25.5784 33.0431C25.5784 33.0431 28.6776 35.6392 28.6122 35.6522C30.304 37.1091 30.611 38.5715 30.5586 39.561L28.6098 47.4224C28.7264 47.5235 28.8775 47.6595 29.0441 47.8318L28.6039 47.4532L25.871 58.4642C25.664 58.9357 25.1394 59.52 23.9567 58.5045C23.9984 58.5981 20.9206 55.89 20.9206 55.89L18.8468 60.1931L24.2839 64.8728C24.8976 65.4019 25.5038 65.9318 26.1034 66.4559L26.1054 66.4576C26.4932 66.7966 26.8782 67.1332 27.2607 67.4655L25.5319 74.4474L29.7044 78.0401L31.4176 71.1352C32.5562 72.1444 33.6626 73.108 34.7453 74.0387L33.0392 80.9108L37.2164 84.5058L38.9451 77.5402C46.068 83.1797 51.4254 85.6328 53.6776 79.5271C55.4944 74.6114 53.5884 70.0793 49.8407 65.6839C52.57 66.5259 54.6259 65.6443 55.1743 61.6993L55.1755 61.6999ZM33.5834 66.8438C33.2784 66.5761 33.0054 66.3365 32.7727 66.1364L35.0665 56.8904C35.3511 57.1354 35.6988 57.4247 36.0925 57.7524C39.6176 60.6859 46.8417 66.6975 45.6314 71.5923L45.6302 71.5916C44.4444 76.3795 36.9907 69.8355 33.5834 66.8438ZM36.8011 53.2577C39.6443 55.762 45.8415 61.2209 46.9211 56.8727C48.0248 52.4238 41.9986 47.4306 39.0555 44.992C38.7247 44.7178 38.4328 44.4759 38.1944 44.2707L36.1147 52.657C36.3115 52.8263 36.5424 53.0298 36.8011 53.2577Z" fill="black"/>
<path d="M37.0593 13.8838C27.1423 8.01415 18.1539 7.29678 11.6013 10.879L18.8077 6.80219C32.9865 -1.21922 55.9749 12.3871 70.1538 37.1928C84.3327 61.9985 84.3327 88.6101 70.1538 96.6316L63.223 100.552C63.2235 100.548 63.2239 100.543 63.2244 100.539C69.5049 96.7004 73.3664 88.7164 73.3664 77.4029C73.3664 54.1904 57.1111 25.7521 37.0593 13.8838Z" fill="#2DD98F" stroke="#0D0B33" stroke-width="1.72736"/>
<path d="M73.1334 72.4772L80.5559 68.3817C80.4513 64.4303 80 61.5776 78.4685 55.4316L70.6356 59.7657C71.8933 64.0385 72.7481 68.3144 73.1334 72.4772Z" fill="#0D0B33"/>
<path d="M67.2735 50.4831L74.5368 46.2549C66.773 29.6856 60.8405 21.8894 47.0356 11.0864L39.4991 15.4212C51.0863 23.1694 61.1869 36.3305 67.2735 50.4831Z" fill="#0D0B33"/>
</g>
<defs>
<clipPath id="clip0_317_689">
<rect width="85" height="113" fill="white"/>
</clipPath>
</defs>
</svg>
