<svg width="107" height="107" viewBox="0 0 107 107" fill="none" xmlns="http://www.w3.org/2000/svg">
<mask id="mask0_188_180" style="mask-type:luminance" maskUnits="userSpaceOnUse" x="20" y="20" width="66" height="66">
<path d="M80.9109 35.9339L80.9109 35.934C90.5523 51.1327 86.0472 71.2695 70.8485 80.9108L70.8484 80.9109C55.6497 90.5523 35.5129 86.0472 25.8716 70.8485L25.8715 70.8484C16.2301 55.6497 20.7352 35.5129 35.9339 25.8715L35.934 25.8715C51.1327 16.2301 71.2695 20.7352 80.9109 35.9339Z" fill="white"/>
</mask>
<g mask="url(#mask0_188_180)">
<path d="M80.9109 35.9341L80.911 35.9342C90.5524 51.1329 86.0473 71.2697 70.8486 80.9111L70.8485 80.9111C55.6498 90.5525 35.513 86.0474 25.8716 70.8487L25.8716 70.8486C16.2302 55.6499 20.7353 35.5131 35.934 25.8718L35.9341 25.8717C51.1328 16.2303 71.2696 20.7354 80.9109 35.9341Z" fill="#0A0718"/>
<g filter="url(#filter0_f_188_180)">
<path d="M48.4758 72.352C40.9558 60.4974 44.4697 44.7912 56.3242 37.2712C68.1788 29.7512 83.885 33.265 91.405 45.1196C98.925 56.9742 95.4112 72.6804 83.5566 80.2004C71.702 87.7204 55.9958 84.2066 48.4758 72.352Z" fill="#232DE3"/>
</g>
<g filter="url(#filter1_f_188_180)">
<path d="M23.3414 59.1791C12.7802 42.5305 16.8741 21.006 32.4854 11.103C48.0966 1.19988 69.3136 6.66824 79.8747 23.3169C90.4359 39.9655 86.342 61.4899 70.7307 71.393C55.1194 81.2961 33.9025 75.8277 23.3414 59.1791Z" fill="#232DE3"/>
</g>
<g filter="url(#filter2_f_188_180)">
<path d="M27.9967 36.7221C19.177 22.8188 23.2982 4.39814 37.2015 -4.42151C51.1048 -13.2412 69.5255 -9.12001 78.3451 4.78331C87.1647 18.6866 83.0436 37.1073 69.1403 45.9269C55.2369 54.7466 36.8163 50.6254 27.9967 36.7221Z" fill="#232DE3"/>
</g>
<g filter="url(#filter3_f_188_180)">
<path d="M38.5151 35.1084C33.7887 27.6577 35.9686 17.8043 43.3839 13.1004C50.7993 8.3964 60.6421 10.6231 65.3685 18.0738C70.0949 25.5245 67.9151 35.3778 60.4997 40.0818C53.0844 44.7857 43.2415 42.5591 38.5151 35.1084Z" fill="#EBF7FD"/>
</g>
<g filter="url(#filter4_f_188_180)">
<path d="M-25.6548 26.6424L-0.550346 20.4282C1.7032 114 116.695 87.4144 91.3684 7.61084L115.201 -0.464961L138.408 73.6403L88.8316 161.33L2.40294 116.234L-25.6548 26.6424Z" fill="#2A224D"/>
</g>
<g filter="url(#filter5_f_188_180)">
<path d="M97.7858 88.138L79.8003 82.9656C112.031 24.4649 30.3242 -0.385718 17.5204 57.9015L-0.336015 54.3333L11.7482 0.319219L74.3832 -35.9661L112.395 22.8365L97.7858 88.138Z" fill="white"/>
</g>
<g opacity="0.15" filter="url(#filter6_f_188_180)">
<path d="M54.8646 54.8256C54.0492 55.572 52.7814 55.5135 52.0326 54.6955C51.2838 53.8774 51.3376 52.6094 52.1529 51.8631C52.9683 51.1168 54.2361 51.1751 54.9849 51.9932C55.7337 52.8113 55.68 54.0793 54.8646 54.8256Z" fill="white"/>
<path fill-rule="evenodd" clip-rule="evenodd" d="M48.7877 48.2764C48.7151 47.4571 48.6731 46.679 48.6621 45.9525C48.4915 45.9 48.3323 45.8027 48.2031 45.6616C47.8173 45.2401 47.845 44.5869 48.265 44.2024C48.3981 44.0807 48.5545 44.0004 48.7183 43.9611C48.7916 43.0442 48.9339 42.2535 49.1498 41.6325C49.4177 40.8625 49.8414 40.2372 50.5037 40.0917C51.1659 39.9465 51.816 40.3359 52.3855 40.9221C52.9718 41.525 53.5663 42.4284 54.1403 43.5469C54.619 44.4796 55.0902 45.575 55.5349 46.7952C56.5963 46.0532 57.6081 45.4286 58.533 44.9418C59.6421 44.3577 60.6449 43.9616 61.4692 43.8066C62.2705 43.6557 63.0252 43.7122 63.4842 44.2137C63.9431 44.715 63.9327 45.4717 63.7118 46.2566C63.4846 47.064 63.0015 48.028 62.3219 49.0813C61.7553 49.9595 61.0439 50.9123 60.2111 51.9041C61.0074 52.2769 61.7459 52.6567 62.4149 53.0368C62.8343 52.7255 63.4301 52.777 63.7915 53.1718C64.0196 53.421 64.1031 53.7514 64.0464 54.0593C64.7743 54.5689 65.3653 55.0743 65.7833 55.5595C66.3169 56.1785 66.6476 56.8605 66.4444 57.5072C66.2409 58.154 65.5808 58.521 64.7901 58.7198C63.9768 58.9242 62.8991 58.9849 61.6455 58.9198C60.6001 58.8653 59.4177 58.7224 58.1401 58.4941C58.2549 59.7867 58.2927 60.9773 58.2547 62.0234C58.209 63.2779 58.0535 64.3459 57.778 65.1381C57.5104 65.9081 57.0863 66.5334 56.4243 66.6787C55.762 66.8243 55.112 66.4345 54.5423 65.8486C53.9562 65.2455 53.3618 64.3421 52.7877 63.2236C52.3089 62.291 51.8376 61.1955 51.3929 59.9755C50.3314 60.7174 49.3198 61.3418 48.3951 61.8287C47.2859 62.4127 46.2831 62.8088 45.4587 62.9638C44.6574 63.1147 43.9027 63.0582 43.4439 62.5569C42.9849 62.0554 42.9952 61.2987 43.2162 60.5138C43.379 59.9351 43.6734 59.276 44.0773 58.561C44.0368 58.5283 43.9983 58.4922 43.9622 58.4528C43.5763 58.0312 43.6042 57.378 44.0242 56.9935C44.3492 56.696 44.8139 56.6467 45.1864 56.8349C45.6347 56.2046 46.1473 55.5448 46.7167 54.8666C45.5406 54.3159 44.4911 53.7499 43.6044 53.1906C42.5409 52.5201 41.6935 51.8482 41.1445 51.2112C40.611 50.5919 40.2803 49.9102 40.4836 49.2632C40.6868 48.6166 41.3472 48.2495 42.1377 48.0508C42.9512 47.8462 44.0288 47.7857 45.2824 47.8509C46.3277 47.9052 47.5103 48.048 48.7877 48.2764ZM55.1701 47.9562C54.5809 48.3906 53.9784 48.8596 53.3688 49.3601C53.7789 49.4793 54.1933 49.6049 54.6104 49.7374C55.0274 49.8699 55.4382 50.0061 55.8421 50.1457C55.6291 49.384 55.4042 48.6519 55.1701 47.9562ZM54.9196 47.2345C54.1355 47.8058 53.3289 48.437 52.5142 49.1206C51.4854 48.8418 50.486 48.607 49.5323 48.4171C49.4481 47.5259 49.401 46.6848 49.3902 45.9078C49.4873 45.864 49.5792 45.8044 49.662 45.7286C50.082 45.3441 50.1097 44.6909 49.7239 44.2695C49.6408 44.1787 49.5454 44.1059 49.4425 44.0517C49.512 43.1612 49.6465 42.4257 49.8384 41.8741C50.0876 41.1573 50.3913 40.8635 50.6624 40.8039C50.9332 40.7444 51.3333 40.8837 51.8639 41.4294C52.378 41.9582 52.9334 42.7897 53.492 43.8782C53.9804 44.8296 54.464 45.9627 54.9196 47.2345ZM44.7888 58.7876C45.0161 58.7741 45.2402 58.6852 45.4211 58.5196C45.742 58.2258 45.8339 57.7754 45.6873 57.391C46.1784 56.691 46.7553 55.9485 47.4067 55.1814C48.2958 55.5766 49.248 55.9616 50.2494 56.3277C50.5256 57.3574 50.8251 58.3399 51.1403 59.2605C50.0407 60.0382 48.997 60.6867 48.0537 61.1834C46.9744 61.7516 46.0445 62.1115 45.3215 62.2475C44.5755 62.3878 44.1684 62.2707 43.9806 62.0656C43.7928 61.8603 43.7121 61.4445 43.9178 60.7138C44.0702 60.1723 44.3635 59.5219 44.7888 58.7876ZM62.0207 53.6502C61.3277 53.258 60.5562 52.8644 59.7192 52.4782C59.081 53.2088 58.3808 53.9566 57.6282 54.7078C57.815 55.7573 57.9608 56.7733 58.0658 57.7402C59.3931 57.9851 60.6146 58.1362 61.681 58.1916C62.9009 58.2551 63.8969 58.192 64.6103 58.0126C65.3463 57.8277 65.6657 57.551 65.749 57.2864C65.8321 57.0218 65.7286 56.6109 65.2321 56.0343C64.8718 55.616 64.3445 55.1597 63.6679 54.6829C63.2478 55.0116 62.638 54.9652 62.2706 54.5638C62.036 54.3075 61.9541 53.9655 62.0207 53.6502ZM55.7876 47.5101C56.1029 48.4307 56.4022 49.4131 56.6785 50.443C57.6799 50.809 58.6322 51.194 59.5213 51.5893C60.3932 50.5625 61.131 49.5803 61.7092 48.6843C62.3705 47.6593 62.811 46.7648 63.0103 46.0567C63.2158 45.326 63.1352 44.9101 62.9474 44.705C62.7596 44.4997 62.3524 44.3828 61.6065 44.5231C60.8836 44.659 59.9536 45.0188 58.8742 45.587C57.9307 46.0839 56.8873 46.7324 55.7876 47.5101ZM56.072 50.9982C55.5261 50.8033 54.9652 50.6143 54.3921 50.4322C53.8189 50.2502 53.2519 50.0811 52.6936 49.9252C52.2537 50.3002 51.811 50.6911 51.3686 51.096C50.9262 51.5009 50.4978 51.9074 50.0855 52.3124C50.1915 52.8823 50.3099 53.462 50.4406 54.049C50.5713 54.6361 50.71 55.2114 50.8558 55.7724C51.4019 55.9673 51.9628 56.1563 52.536 56.3383C53.1092 56.5203 53.6761 56.6893 54.2345 56.8453C54.6744 56.4703 55.117 56.0795 55.5594 55.6746C56.0018 55.2696 56.4302 54.8632 56.8426 54.4581C56.7366 53.8882 56.6182 53.3085 56.4875 52.7215C56.3567 52.1345 56.2179 51.5592 56.072 50.9982ZM57.465 53.8353C57.3825 53.4162 57.294 52.9924 57.1988 52.5653C57.1037 52.1382 57.0041 51.717 56.9007 51.3023C57.6407 51.5816 58.3501 51.8703 59.0225 52.165C58.5378 52.7136 58.0174 53.2722 57.465 53.8353ZM56.9961 55.3274C56.689 55.6229 56.3743 55.9186 56.0524 56.2132C55.7304 56.508 55.4083 56.7952 55.0866 57.0751C55.852 57.2737 56.5978 57.4468 57.3164 57.5941C57.2333 56.8651 57.1264 56.1073 56.9961 55.3274ZM57.3955 58.3535C56.4418 58.1637 55.4425 57.9287 54.4136 57.6501C53.5989 58.3335 52.7924 58.9649 52.0082 59.5362C52.4638 60.8079 52.9474 61.9411 53.4357 62.8924C53.9944 63.981 54.5501 64.8123 55.0641 65.3412C55.5944 65.8869 55.9946 66.0262 56.2657 65.9666C56.5366 65.9073 56.8402 65.6134 57.0896 64.8965C57.3311 64.2018 57.4817 63.2153 57.5264 61.9943C57.5651 60.9272 57.5222 59.6973 57.3955 58.3535ZM51.7577 58.8144C52.347 58.3801 52.9495 57.911 53.5591 57.4104C53.1486 57.2915 52.7345 57.1658 52.3175 57.0333C51.9005 56.9008 51.4897 56.7646 51.0857 56.625C51.2987 57.3867 51.5236 58.1187 51.7577 58.8144ZM50.0269 55.4682C49.9236 55.0537 49.8243 54.6324 49.729 54.2054C49.6339 53.7783 49.5451 53.3546 49.4629 52.9352C48.9105 53.4983 48.3901 54.0571 47.9054 54.6057C48.5777 54.9003 49.2871 55.189 50.0269 55.4682ZM49.9318 51.4433C50.2389 51.1475 50.5535 50.8521 50.8755 50.5574C51.1974 50.2627 51.5197 49.9752 51.8412 49.6956C51.0758 49.497 50.3301 49.3239 49.6115 49.1766C49.6948 49.9054 49.8015 50.6634 49.9318 51.4433ZM48.8622 49.0307C48.967 49.9974 49.1129 51.0134 49.2996 52.063C48.5469 52.8141 47.8469 53.5618 47.2086 54.2925C45.982 53.7264 44.896 53.1448 43.9914 52.5743C42.9564 51.9218 42.1774 51.295 41.696 50.7362C41.1991 50.1597 41.0957 49.7488 41.179 49.4842C41.2621 49.2196 41.5815 48.943 42.3177 48.7579C43.031 48.5787 44.0268 48.5156 45.2471 48.5789C46.3134 48.6345 47.5348 48.7856 48.8622 49.0307Z" fill="white"/>
</g>
<g opacity="0.15" filter="url(#filter7_f_188_180)">
<path d="M54.8646 54.8256C54.0492 55.572 52.7814 55.5135 52.0326 54.6955C51.2838 53.8774 51.3376 52.6094 52.1529 51.8631C52.9683 51.1168 54.2361 51.1751 54.9849 51.9932C55.7337 52.8113 55.68 54.0793 54.8646 54.8256Z" fill="white"/>
<path fill-rule="evenodd" clip-rule="evenodd" d="M48.7877 48.2764C48.7151 47.4571 48.6731 46.679 48.6621 45.9525C48.4915 45.9 48.3323 45.8027 48.2031 45.6616C47.8173 45.2401 47.845 44.5869 48.265 44.2024C48.3981 44.0807 48.5545 44.0004 48.7183 43.9611C48.7916 43.0442 48.9339 42.2535 49.1498 41.6325C49.4177 40.8625 49.8414 40.2372 50.5037 40.0917C51.1659 39.9465 51.816 40.3359 52.3855 40.9221C52.9718 41.525 53.5663 42.4284 54.1403 43.5469C54.619 44.4796 55.0902 45.575 55.5349 46.7952C56.5963 46.0532 57.6081 45.4286 58.533 44.9418C59.6421 44.3577 60.6449 43.9616 61.4692 43.8066C62.2705 43.6557 63.0252 43.7122 63.4842 44.2137C63.9431 44.715 63.9327 45.4717 63.7118 46.2566C63.4846 47.064 63.0015 48.028 62.3219 49.0813C61.7553 49.9595 61.0439 50.9123 60.2111 51.9041C61.0074 52.2769 61.7459 52.6567 62.4149 53.0368C62.8343 52.7255 63.4301 52.777 63.7915 53.1718C64.0196 53.421 64.1031 53.7514 64.0464 54.0593C64.7743 54.5689 65.3653 55.0743 65.7833 55.5595C66.3169 56.1785 66.6476 56.8605 66.4444 57.5072C66.2409 58.154 65.5808 58.521 64.7901 58.7198C63.9768 58.9242 62.8991 58.9849 61.6455 58.9198C60.6001 58.8653 59.4177 58.7224 58.1401 58.4941C58.2549 59.7867 58.2927 60.9773 58.2547 62.0234C58.209 63.2779 58.0535 64.3459 57.778 65.1381C57.5104 65.9081 57.0863 66.5334 56.4243 66.6787C55.762 66.8243 55.112 66.4345 54.5423 65.8486C53.9562 65.2455 53.3618 64.3421 52.7877 63.2236C52.3089 62.291 51.8376 61.1955 51.3929 59.9755C50.3314 60.7174 49.3198 61.3418 48.3951 61.8287C47.2859 62.4127 46.2831 62.8088 45.4587 62.9638C44.6574 63.1147 43.9027 63.0582 43.4439 62.5569C42.9849 62.0554 42.9952 61.2987 43.2162 60.5138C43.379 59.9351 43.6734 59.276 44.0773 58.561C44.0368 58.5283 43.9983 58.4922 43.9622 58.4528C43.5763 58.0312 43.6042 57.378 44.0242 56.9935C44.3492 56.696 44.8139 56.6467 45.1864 56.8349C45.6347 56.2046 46.1473 55.5448 46.7167 54.8666C45.5406 54.3159 44.4911 53.7499 43.6044 53.1906C42.5409 52.5201 41.6935 51.8482 41.1445 51.2112C40.611 50.5919 40.2803 49.9102 40.4836 49.2632C40.6868 48.6166 41.3472 48.2495 42.1377 48.0508C42.9512 47.8462 44.0288 47.7857 45.2824 47.8509C46.3277 47.9052 47.5103 48.048 48.7877 48.2764ZM55.1701 47.9562C54.5809 48.3906 53.9784 48.8596 53.3688 49.3601C53.7789 49.4793 54.1933 49.6049 54.6104 49.7374C55.0274 49.8699 55.4382 50.0061 55.8421 50.1457C55.6291 49.384 55.4042 48.6519 55.1701 47.9562ZM54.9196 47.2345C54.1355 47.8058 53.3289 48.437 52.5142 49.1206C51.4854 48.8418 50.486 48.607 49.5323 48.4171C49.4481 47.5259 49.401 46.6848 49.3902 45.9078C49.4873 45.864 49.5792 45.8044 49.662 45.7286C50.082 45.3441 50.1097 44.6909 49.7239 44.2695C49.6408 44.1787 49.5454 44.1059 49.4425 44.0517C49.512 43.1612 49.6465 42.4257 49.8384 41.8741C50.0876 41.1573 50.3913 40.8635 50.6624 40.8039C50.9332 40.7444 51.3333 40.8837 51.8639 41.4294C52.378 41.9582 52.9334 42.7897 53.492 43.8782C53.9804 44.8296 54.464 45.9627 54.9196 47.2345ZM44.7888 58.7876C45.0161 58.7741 45.2402 58.6852 45.4211 58.5196C45.742 58.2258 45.8339 57.7754 45.6873 57.391C46.1784 56.691 46.7553 55.9485 47.4067 55.1814C48.2958 55.5766 49.248 55.9616 50.2494 56.3277C50.5256 57.3574 50.8251 58.3399 51.1403 59.2605C50.0407 60.0382 48.997 60.6867 48.0537 61.1834C46.9744 61.7516 46.0445 62.1115 45.3215 62.2475C44.5755 62.3878 44.1684 62.2707 43.9806 62.0656C43.7928 61.8603 43.7121 61.4445 43.9178 60.7138C44.0702 60.1723 44.3635 59.5219 44.7888 58.7876ZM62.0207 53.6502C61.3277 53.258 60.5562 52.8644 59.7192 52.4782C59.081 53.2088 58.3808 53.9566 57.6282 54.7078C57.815 55.7573 57.9608 56.7733 58.0658 57.7402C59.3931 57.9851 60.6146 58.1362 61.681 58.1916C62.9009 58.2551 63.8969 58.192 64.6103 58.0126C65.3463 57.8277 65.6657 57.551 65.749 57.2864C65.8321 57.0218 65.7286 56.6109 65.2321 56.0343C64.8718 55.616 64.3445 55.1597 63.6679 54.6829C63.2478 55.0116 62.638 54.9652 62.2706 54.5638C62.036 54.3075 61.9541 53.9655 62.0207 53.6502ZM55.7876 47.5101C56.1029 48.4307 56.4022 49.4131 56.6785 50.443C57.6799 50.809 58.6322 51.194 59.5213 51.5893C60.3932 50.5625 61.131 49.5803 61.7092 48.6843C62.3705 47.6593 62.811 46.7648 63.0103 46.0567C63.2158 45.326 63.1352 44.9101 62.9474 44.705C62.7596 44.4997 62.3524 44.3828 61.6065 44.5231C60.8836 44.659 59.9536 45.0188 58.8742 45.587C57.9307 46.0839 56.8873 46.7324 55.7876 47.5101ZM56.072 50.9982C55.5261 50.8033 54.9652 50.6143 54.3921 50.4322C53.8189 50.2502 53.2519 50.0811 52.6936 49.9252C52.2537 50.3002 51.811 50.6911 51.3686 51.096C50.9262 51.5009 50.4978 51.9074 50.0855 52.3124C50.1915 52.8823 50.3099 53.462 50.4406 54.049C50.5713 54.6361 50.71 55.2114 50.8558 55.7724C51.4019 55.9673 51.9628 56.1563 52.536 56.3383C53.1092 56.5203 53.6761 56.6893 54.2345 56.8453C54.6744 56.4703 55.117 56.0795 55.5594 55.6746C56.0018 55.2696 56.4302 54.8632 56.8426 54.4581C56.7366 53.8882 56.6182 53.3085 56.4875 52.7215C56.3567 52.1345 56.2179 51.5592 56.072 50.9982ZM57.465 53.8353C57.3825 53.4162 57.294 52.9924 57.1988 52.5653C57.1037 52.1382 57.0041 51.717 56.9007 51.3023C57.6407 51.5816 58.3501 51.8703 59.0225 52.165C58.5378 52.7136 58.0174 53.2722 57.465 53.8353ZM56.9961 55.3274C56.689 55.6229 56.3743 55.9186 56.0524 56.2132C55.7304 56.508 55.4083 56.7952 55.0866 57.0751C55.852 57.2737 56.5978 57.4468 57.3164 57.5941C57.2333 56.8651 57.1264 56.1073 56.9961 55.3274ZM57.3955 58.3535C56.4418 58.1637 55.4425 57.9287 54.4136 57.6501C53.5989 58.3335 52.7924 58.9649 52.0082 59.5362C52.4638 60.8079 52.9474 61.9411 53.4357 62.8924C53.9944 63.981 54.5501 64.8123 55.0641 65.3412C55.5944 65.8869 55.9946 66.0262 56.2657 65.9666C56.5366 65.9073 56.8402 65.6134 57.0896 64.8965C57.3311 64.2018 57.4817 63.2153 57.5264 61.9943C57.5651 60.9272 57.5222 59.6973 57.3955 58.3535ZM51.7577 58.8144C52.347 58.3801 52.9495 57.911 53.5591 57.4104C53.1486 57.2915 52.7345 57.1658 52.3175 57.0333C51.9005 56.9008 51.4897 56.7646 51.0857 56.625C51.2987 57.3867 51.5236 58.1187 51.7577 58.8144ZM50.0269 55.4682C49.9236 55.0537 49.8243 54.6324 49.729 54.2054C49.6339 53.7783 49.5451 53.3546 49.4629 52.9352C48.9105 53.4983 48.3901 54.0571 47.9054 54.6057C48.5777 54.9003 49.2871 55.189 50.0269 55.4682ZM49.9318 51.4433C50.2389 51.1475 50.5535 50.8521 50.8755 50.5574C51.1974 50.2627 51.5197 49.9752 51.8412 49.6956C51.0758 49.497 50.3301 49.3239 49.6115 49.1766C49.6948 49.9054 49.8015 50.6634 49.9318 51.4433ZM48.8622 49.0307C48.967 49.9974 49.1129 51.0134 49.2996 52.063C48.5469 52.8141 47.8469 53.5618 47.2086 54.2925C45.982 53.7264 44.896 53.1448 43.9914 52.5743C42.9564 51.9218 42.1774 51.295 41.696 50.7362C41.1991 50.1597 41.0957 49.7488 41.179 49.4842C41.2621 49.2196 41.5815 48.943 42.3177 48.7579C43.031 48.5787 44.0268 48.5156 45.2471 48.5789C46.3134 48.6345 47.5348 48.7856 48.8622 49.0307Z" fill="white"/>
</g>
<g opacity="0.75" filter="url(#filter8_f_188_180)">
<path d="M54.8648 54.8259C54.0494 55.5722 52.7815 55.5138 52.0328 54.6958C51.284 53.8776 51.3378 52.6097 52.1531 51.8633C52.9685 51.117 54.2363 51.1753 54.9851 51.9935C55.7338 52.8115 55.6801 54.0796 54.8648 54.8259Z" fill="white"/>
</g>
</g>
<defs>
<filter id="filter0_f_188_180" x="-16.2803" y="-27.4849" width="172.441" height="172.441" filterUnits="userSpaceOnUse" color-interpolation-filters="sRGB">
<feFlood flood-opacity="0" result="BackgroundImageFix"/>
<feBlend mode="normal" in="SourceGraphic" in2="BackgroundImageFix" result="shape"/>
<feGaussianBlur stdDeviation="30.3992" result="effect1_foregroundBlur_188_180"/>
</filter>
<filter id="filter1_f_188_180" x="-37.794" y="-49.1035" width="178.804" height="180.703" filterUnits="userSpaceOnUse" color-interpolation-filters="sRGB">
<feFlood flood-opacity="0" result="BackgroundImageFix"/>
<feBlend mode="normal" in="SourceGraphic" in2="BackgroundImageFix" result="shape"/>
<feGaussianBlur stdDeviation="27.6356" result="effect1_foregroundBlur_188_180"/>
</filter>
<filter id="filter2_f_188_180" x="-31.9163" y="-64.3345" width="170.174" height="170.174" filterUnits="userSpaceOnUse" color-interpolation-filters="sRGB">
<feFlood flood-opacity="0" result="BackgroundImageFix"/>
<feBlend mode="normal" in="SourceGraphic" in2="BackgroundImageFix" result="shape"/>
<feGaussianBlur stdDeviation="27.6356" result="effect1_foregroundBlur_188_180"/>
</filter>
<filter id="filter3_f_188_180" x="-30.3078" y="-55.691" width="164.499" height="164.564" filterUnits="userSpaceOnUse" color-interpolation-filters="sRGB">
<feFlood flood-opacity="0" result="BackgroundImageFix"/>
<feBlend mode="normal" in="SourceGraphic" in2="BackgroundImageFix" result="shape"/>
<feGaussianBlur stdDeviation="33.1627" result="effect1_foregroundBlur_188_180"/>
</filter>
<filter id="filter4_f_188_180" x="-80.9261" y="-55.7361" width="274.606" height="272.337" filterUnits="userSpaceOnUse" color-interpolation-filters="sRGB">
<feFlood flood-opacity="0" result="BackgroundImageFix"/>
<feBlend mode="normal" in="SourceGraphic" in2="BackgroundImageFix" result="shape"/>
<feGaussianBlur stdDeviation="27.6356" result="effect1_foregroundBlur_188_180"/>
</filter>
<filter id="filter5_f_188_180" x="-30.7352" y="-66.3652" width="173.53" height="184.902" filterUnits="userSpaceOnUse" color-interpolation-filters="sRGB">
<feFlood flood-opacity="0" result="BackgroundImageFix"/>
<feBlend mode="normal" in="SourceGraphic" in2="BackgroundImageFix" result="shape"/>
<feGaussianBlur stdDeviation="15.1996" result="effect1_foregroundBlur_188_180"/>
</filter>
<filter id="filter6_f_188_180" x="-50.4549" y="-50.8167" width="207.838" height="208.404" filterUnits="userSpaceOnUse" color-interpolation-filters="sRGB">
<feFlood flood-opacity="0" result="BackgroundImageFix"/>
<feBlend mode="normal" in="SourceGraphic" in2="BackgroundImageFix" result="shape"/>
<feGaussianBlur stdDeviation="45.439" result="effect1_foregroundBlur_188_180"/>
</filter>
<filter id="filter7_f_188_180" x="8.17603" y="7.81427" width="90.5759" height="91.142" filterUnits="userSpaceOnUse" color-interpolation-filters="sRGB">
<feFlood flood-opacity="0" result="BackgroundImageFix"/>
<feBlend mode="normal" in="SourceGraphic" in2="BackgroundImageFix" result="shape"/>
<feGaussianBlur stdDeviation="16.1235" result="effect1_foregroundBlur_188_180"/>
</filter>
<filter id="filter8_f_188_180" x="36.8469" y="36.6819" width="33.3242" height="33.3254" filterUnits="userSpaceOnUse" color-interpolation-filters="sRGB">
<feFlood flood-opacity="0" result="BackgroundImageFix"/>
<feBlend mode="normal" in="SourceGraphic" in2="BackgroundImageFix" result="shape"/>
<feGaussianBlur stdDeviation="7.32886" result="effect1_foregroundBlur_188_180"/>
</filter>
</defs>
</svg>
