<svg width="109" height="109" viewBox="0 0 109 109" fill="none" xmlns="http://www.w3.org/2000/svg">
<mask id="mask0_188_207" style="mask-type:luminance" maskUnits="userSpaceOnUse" x="21" y="21" width="67" height="67">
<path d="M82.0169 36.4251L82.0169 36.4253C91.7901 51.8317 87.2234 72.2437 71.817 82.0169L71.8169 82.017C56.4104 91.7901 35.9984 87.2234 26.2253 71.817L26.2252 71.8169C16.452 56.4105 21.0187 35.9984 36.4251 26.2253L36.4253 26.2252C51.8317 16.4521 72.2437 21.0187 82.0169 36.4251Z" fill="white"/>
</mask>
<g mask="url(#mask0_188_207)">
<path d="M82.0169 36.4251L82.0169 36.4253C91.7901 51.8317 87.2234 72.2437 71.817 82.0169L71.8169 82.017C56.4104 91.7901 35.9984 87.2234 26.2253 71.817L26.2252 71.8169C16.452 56.4105 21.0187 35.9984 36.4251 26.2253L36.4253 26.2252C51.8317 16.4521 72.2437 21.0187 82.0169 36.4251Z" fill="#0A0718"/>
<g filter="url(#filter0_f_188_207)">
<path d="M49.1385 73.341C41.5157 61.3244 45.0776 45.4035 57.0942 37.7807C69.1108 30.1579 85.0317 33.7198 92.6545 45.7364C100.277 57.753 96.7154 73.6739 84.6988 81.2967C72.6822 88.9195 56.7613 85.3576 49.1385 73.341Z" fill="#232DE3"/>
</g>
<g filter="url(#filter1_f_188_207)">
<path d="M23.6602 59.9877C12.9547 43.1115 17.1046 21.2929 32.9292 11.2544C48.7539 1.216 70.2608 6.75911 80.9663 23.6353C91.6718 40.5115 87.5219 62.3301 71.6973 72.3686C55.8727 82.407 34.3657 76.8639 23.6602 59.9877Z" fill="#232DE3"/>
</g>
<g filter="url(#filter2_f_188_207)">
<path d="M28.3794 37.2237C19.4392 23.1304 23.6166 4.45796 37.71 -4.48224C51.8034 -13.4224 70.4758 -9.24497 79.416 4.8484C88.3562 18.9418 84.1787 37.6142 70.0853 46.5544C55.992 55.4946 37.3196 51.3171 28.3794 37.2237Z" fill="#232DE3"/>
</g>
<g filter="url(#filter3_f_188_207)">
<path d="M39.0412 35.5882C34.2502 28.0357 36.4599 18.0477 43.9766 13.2794C51.4933 8.51112 61.4707 10.7682 66.2617 18.3208C71.0527 25.8733 68.843 35.8613 61.3263 40.6296C53.8096 45.3978 43.8322 43.1407 39.0412 35.5882Z" fill="#EBF7FD"/>
</g>
<g filter="url(#filter4_f_188_207)">
<path d="M-26.0054 27.0065L-0.557842 20.7074C1.7265 115.558 118.29 88.6092 92.6173 7.71483L116.775 -0.471353L140.3 74.6468L90.0459 163.535L2.43581 117.822L-26.0054 27.0065Z" fill="#2A224D"/>
</g>
<g filter="url(#filter5_f_188_207)">
<path d="M99.1223 89.3426L80.8909 84.0996C113.562 24.7993 30.7386 -0.391054 17.7598 58.6929L-0.340707 55.0759L11.9087 0.323522L75.3998 -36.4578L113.931 23.1486L99.1223 89.3426Z" fill="white"/>
</g>
<g opacity="0.15" filter="url(#filter6_f_188_207)">
<path d="M55.6145 55.575C54.788 56.3315 53.5027 56.2723 52.7438 55.4431C51.9847 54.6138 52.0392 53.3285 52.8657 52.572C53.6922 51.8155 54.9773 51.8746 55.7364 52.7039C56.4954 53.5331 56.441 54.8185 55.6145 55.575Z" fill="white"/>
<path fill-rule="evenodd" clip-rule="evenodd" d="M49.4546 48.9362C49.3809 48.1057 49.3384 47.317 49.3272 46.5805C49.1543 46.5273 48.9929 46.4286 48.8619 46.2856C48.4709 45.8584 48.499 45.1963 48.9247 44.8065C49.0596 44.6831 49.2182 44.6017 49.3842 44.5619C49.4585 43.6325 49.6027 42.831 49.8216 42.2014C50.0931 41.4209 50.5227 40.7871 51.194 40.6396C51.8652 40.4924 52.5242 40.8871 53.1016 41.4814C53.6959 42.0925 54.2984 43.0083 54.8803 44.142C55.3656 45.0875 55.8432 46.1978 56.294 47.4347C57.3699 46.6826 58.3955 46.0495 59.333 45.556C60.4573 44.9639 61.4738 44.5624 62.3094 44.4053C63.1217 44.2523 63.8867 44.3096 64.3519 44.8179C64.8171 45.3261 64.8066 46.0932 64.5826 46.8888C64.3523 47.7072 63.8627 48.6843 63.1738 49.7521C62.5994 50.6422 61.8783 51.6081 61.0341 52.6135C61.8413 52.9914 62.5898 53.3763 63.268 53.7616C63.6931 53.4461 64.2971 53.4983 64.6634 53.8985C64.8947 54.1511 64.9792 54.486 64.9218 54.7982C65.6596 55.3147 66.2587 55.827 66.6825 56.3188C67.2234 56.9463 67.5585 57.6376 67.3525 58.2931C67.1464 58.9488 66.4772 59.3209 65.6757 59.5224C64.8513 59.7295 63.7589 59.7911 62.4881 59.725C61.4285 59.6698 60.2298 59.525 58.9348 59.2935C59.0512 60.6038 59.0895 61.8107 59.0509 62.8711C59.0047 64.1427 58.847 65.2253 58.5677 66.0284C58.2964 66.8088 57.8666 67.4427 57.1955 67.59C56.5241 67.7376 55.8653 67.3425 55.2878 66.7485C54.6937 66.1372 54.0912 65.2215 53.5093 64.0877C53.0239 63.1424 52.5462 62.0319 52.0954 60.7952C51.0194 61.5472 49.994 62.1802 49.0566 62.6738C47.9322 63.2657 46.9157 63.6672 46.0801 63.8244C45.2678 63.9773 44.5028 63.92 44.0377 63.4118C43.5724 62.9035 43.5829 62.1365 43.8069 61.3409C43.972 60.7542 44.2703 60.0861 44.6798 59.3614C44.6387 59.3282 44.5997 59.2916 44.5631 59.2516C44.1719 58.8243 44.2002 58.1622 44.626 57.7725C44.9554 57.4709 45.4265 57.4209 45.804 57.6117C46.2584 56.9727 46.7781 56.3039 47.3552 55.6165C46.1631 55.0582 45.0992 54.4844 44.2004 53.9176C43.1224 53.2379 42.2634 52.5568 41.7069 51.9111C41.1661 51.2834 40.8309 50.5923 41.0369 49.9365C41.2429 49.281 41.9124 48.9089 42.7136 48.7075C43.5382 48.5001 44.6306 48.4388 45.9013 48.5049C46.9609 48.5599 48.1597 48.7047 49.4546 48.9362ZM55.9242 48.6116C55.3269 49.052 54.7162 49.5273 54.0982 50.0347C54.514 50.1555 54.9341 50.2829 55.3568 50.4172C55.7796 50.5514 56.1959 50.6896 56.6054 50.831C56.3895 50.0589 56.1615 49.3168 55.9242 48.6116ZM55.6703 47.8801C54.8755 48.4591 54.0579 49.099 53.232 49.7919C52.1892 49.5093 51.1761 49.2713 50.2093 49.0788C50.124 48.1755 50.0762 47.3228 50.0653 46.5352C50.1637 46.4908 50.2569 46.4304 50.3408 46.3536C50.7666 45.9638 50.7946 45.3017 50.4036 44.8745C50.3194 44.7825 50.2226 44.7087 50.1183 44.6538C50.1888 43.7511 50.3251 43.0055 50.5197 42.4463C50.7722 41.7198 51.0801 41.4219 51.3549 41.3615C51.6293 41.3013 52.035 41.4424 52.5728 41.9956C53.0939 42.5316 53.6569 43.3745 54.2232 44.4779C54.7183 45.4423 55.2084 46.5909 55.6703 47.8801ZM45.401 59.5911C45.6314 59.5773 45.8585 59.4872 46.0419 59.3194C46.3672 59.0216 46.4604 58.565 46.3118 58.1754C46.8096 57.4657 47.3943 56.7132 48.0546 55.9355C48.9559 56.3362 49.9211 56.7264 50.9362 57.0975C51.2162 58.1414 51.5198 59.1373 51.8393 60.0704C50.7247 60.8588 49.6667 61.5161 48.7105 62.0196C47.6165 62.5956 46.6739 62.9604 45.941 63.0982C45.1847 63.2404 44.7721 63.1218 44.5818 62.9138C44.3913 62.7058 44.3096 62.2843 44.5181 61.5436C44.6725 60.9947 44.9699 60.3354 45.401 59.5911ZM62.8685 54.3835C62.1659 53.9859 61.3839 53.5869 60.5355 53.1954C59.8886 53.936 59.1787 54.6941 58.4159 55.4555C58.6052 56.5194 58.7531 57.5493 58.8594 58.5293C60.2049 58.7776 61.4431 58.9307 62.524 58.9869C63.7607 59.0512 64.7703 58.9874 65.4934 58.8055C66.2395 58.618 66.5632 58.3376 66.6477 58.0693C66.7319 57.8011 66.6271 57.3846 66.1237 56.8001C65.7584 56.3761 65.224 55.9135 64.5382 55.4303C64.1123 55.7634 63.4942 55.7164 63.1217 55.3095C62.8839 55.0497 62.8009 54.703 62.8685 54.3835ZM56.5501 48.1594C56.8697 49.0926 57.1731 50.0884 57.4532 51.1324C58.4683 51.5034 59.4336 51.8936 60.3349 52.2943C61.2187 51.2535 61.9666 50.2579 62.5527 49.3497C63.223 48.3107 63.6696 47.404 63.8715 46.6861C64.0798 45.9455 63.9981 45.5238 63.8078 45.3159C63.6174 45.1079 63.2047 44.9893 62.4486 45.1315C61.7157 45.2694 60.773 45.6341 59.679 46.2101C58.7225 46.7137 57.6648 47.3711 56.5501 48.1594ZM56.8384 51.6952C56.285 51.4976 55.7165 51.306 55.1355 51.1215C54.5545 50.9369 53.9797 50.7656 53.4138 50.6075C52.9679 50.9877 52.5192 51.3838 52.0707 51.7944C51.6223 52.2048 51.1881 52.6168 50.7701 53.0274C50.8775 53.605 50.9975 54.1927 51.13 54.7877C51.2626 55.3828 51.4031 55.9659 51.5509 56.5347C52.1045 56.7322 52.6731 56.9238 53.2541 57.1083C53.8351 57.2928 54.4098 57.4641 54.9758 57.6222C55.4217 57.2421 55.8704 56.8459 56.3188 56.4355C56.7673 56.025 57.2015 55.613 57.6195 55.2024C57.5121 54.6247 57.3921 54.0371 57.2595 53.442C57.127 52.847 56.9863 52.2638 56.8384 51.6952ZM58.2504 54.571C58.1668 54.1462 58.0771 53.7167 57.9806 53.2837C57.8842 52.8508 57.7833 52.4238 57.6785 52.0034C58.4285 52.2866 59.1476 52.5792 59.8292 52.878C59.3379 53.434 58.8104 54.0003 58.2504 54.571ZM57.7751 56.0835C57.4639 56.3831 57.1449 56.6828 56.8186 56.9815C56.4921 57.2803 56.1656 57.5714 55.8396 57.8551C56.6154 58.0565 57.3713 58.2319 58.0998 58.3813C58.0156 57.6423 57.9072 56.8741 57.7751 56.0835ZM58.18 59.151C57.2133 58.9587 56.2003 58.7204 55.1574 58.438C54.3315 59.1308 53.514 59.7707 52.7191 60.3499C53.1809 61.6389 53.6711 62.7876 54.1661 63.752C54.7324 64.8555 55.2957 65.6981 55.8168 66.2342C56.3543 66.7874 56.7599 66.9286 57.0347 66.8682C57.3093 66.808 57.6171 66.5102 57.8699 65.7834C58.1147 65.0793 58.2674 64.0793 58.3127 62.8416C58.3519 61.7599 58.3085 60.5132 58.18 59.151ZM52.4651 59.6182C53.0625 59.178 53.6732 58.7024 54.2911 58.195C53.875 58.0746 53.4553 57.9471 53.0326 57.8128C52.6099 57.6784 52.1935 57.5404 51.784 57.3989C51.9999 58.171 52.2278 58.913 52.4651 59.6182ZM50.7107 56.2263C50.606 55.8061 50.5053 55.3791 50.4087 54.9462C50.3123 54.5133 50.2222 54.0838 50.139 53.6587C49.579 54.2294 49.0515 54.7959 48.5602 55.352C49.2416 55.6506 49.9608 55.9432 50.7107 56.2263ZM50.6143 52.1464C50.9256 51.8465 51.2445 51.5471 51.5709 51.2483C51.8972 50.9497 52.2239 50.6582 52.5498 50.3748C51.774 50.1735 51.018 49.998 50.2896 49.8487C50.374 50.5875 50.4822 51.3558 50.6143 52.1464ZM49.53 49.7008C49.6363 50.6807 49.7842 51.7106 49.9735 52.7745C49.2104 53.5359 48.5009 54.2938 47.8539 55.0345C46.6105 54.4607 45.5097 53.8711 44.5927 53.2928C43.5436 52.6314 42.7539 51.996 42.2659 51.4296C41.7622 50.8453 41.6574 50.4287 41.7419 50.1604C41.826 49.8922 42.1499 49.6119 42.8961 49.4242C43.6191 49.2426 44.6286 49.1786 45.8656 49.2428C46.9464 49.2991 48.1845 49.4523 49.53 49.7008Z" fill="white"/>
</g>
<g opacity="0.15" filter="url(#filter7_f_188_207)">
<path d="M55.6145 55.575C54.788 56.3315 53.5027 56.2723 52.7438 55.4431C51.9847 54.6138 52.0392 53.3285 52.8657 52.572C53.6922 51.8155 54.9773 51.8746 55.7364 52.7039C56.4954 53.5331 56.441 54.8185 55.6145 55.575Z" fill="white"/>
<path fill-rule="evenodd" clip-rule="evenodd" d="M49.4546 48.9362C49.3809 48.1057 49.3384 47.317 49.3272 46.5805C49.1543 46.5273 48.9929 46.4286 48.8619 46.2856C48.4709 45.8584 48.499 45.1963 48.9247 44.8065C49.0596 44.6831 49.2182 44.6017 49.3842 44.5619C49.4585 43.6325 49.6027 42.831 49.8216 42.2014C50.0931 41.4209 50.5227 40.7871 51.194 40.6396C51.8652 40.4924 52.5242 40.8871 53.1016 41.4814C53.6959 42.0925 54.2984 43.0083 54.8803 44.142C55.3656 45.0875 55.8432 46.1978 56.294 47.4347C57.3699 46.6826 58.3955 46.0495 59.333 45.556C60.4573 44.9639 61.4738 44.5624 62.3094 44.4053C63.1217 44.2523 63.8867 44.3096 64.3519 44.8179C64.8171 45.3261 64.8066 46.0932 64.5826 46.8888C64.3523 47.7072 63.8627 48.6843 63.1738 49.7521C62.5994 50.6422 61.8783 51.6081 61.0341 52.6135C61.8413 52.9914 62.5898 53.3763 63.268 53.7616C63.6931 53.4461 64.2971 53.4983 64.6634 53.8985C64.8947 54.1511 64.9792 54.486 64.9218 54.7982C65.6596 55.3147 66.2587 55.827 66.6825 56.3188C67.2234 56.9463 67.5585 57.6376 67.3525 58.2931C67.1464 58.9488 66.4772 59.3209 65.6757 59.5224C64.8513 59.7295 63.7589 59.7911 62.4881 59.725C61.4285 59.6698 60.2298 59.525 58.9348 59.2935C59.0512 60.6038 59.0895 61.8107 59.0509 62.8711C59.0047 64.1427 58.847 65.2253 58.5677 66.0284C58.2964 66.8088 57.8666 67.4427 57.1955 67.59C56.5241 67.7376 55.8653 67.3425 55.2878 66.7485C54.6937 66.1372 54.0912 65.2215 53.5093 64.0877C53.0239 63.1424 52.5462 62.0319 52.0954 60.7952C51.0194 61.5472 49.994 62.1802 49.0566 62.6738C47.9322 63.2657 46.9157 63.6672 46.0801 63.8244C45.2678 63.9773 44.5028 63.92 44.0377 63.4118C43.5724 62.9035 43.5829 62.1365 43.8069 61.3409C43.972 60.7542 44.2703 60.0861 44.6798 59.3614C44.6387 59.3282 44.5997 59.2916 44.5631 59.2516C44.1719 58.8243 44.2002 58.1622 44.626 57.7725C44.9554 57.4709 45.4265 57.4209 45.804 57.6117C46.2584 56.9727 46.7781 56.3039 47.3552 55.6165C46.1631 55.0582 45.0992 54.4844 44.2004 53.9176C43.1224 53.2379 42.2634 52.5568 41.7069 51.9111C41.1661 51.2834 40.8309 50.5923 41.0369 49.9365C41.2429 49.281 41.9124 48.9089 42.7136 48.7075C43.5382 48.5001 44.6306 48.4388 45.9013 48.5049C46.9609 48.5599 48.1597 48.7047 49.4546 48.9362ZM55.9242 48.6116C55.3269 49.052 54.7162 49.5273 54.0982 50.0347C54.514 50.1555 54.9341 50.2829 55.3568 50.4172C55.7796 50.5514 56.1959 50.6896 56.6054 50.831C56.3895 50.0589 56.1615 49.3168 55.9242 48.6116ZM55.6703 47.8801C54.8755 48.4591 54.0579 49.099 53.232 49.7919C52.1892 49.5093 51.1761 49.2713 50.2093 49.0788C50.124 48.1755 50.0762 47.3228 50.0653 46.5352C50.1637 46.4908 50.2569 46.4304 50.3408 46.3536C50.7666 45.9638 50.7946 45.3017 50.4036 44.8745C50.3194 44.7825 50.2226 44.7087 50.1183 44.6538C50.1888 43.7511 50.3251 43.0055 50.5197 42.4463C50.7722 41.7198 51.0801 41.4219 51.3549 41.3615C51.6293 41.3013 52.035 41.4424 52.5728 41.9956C53.0939 42.5316 53.6569 43.3745 54.2232 44.4779C54.7183 45.4423 55.2084 46.5909 55.6703 47.8801ZM45.401 59.5911C45.6314 59.5773 45.8585 59.4872 46.0419 59.3194C46.3672 59.0216 46.4604 58.565 46.3118 58.1754C46.8096 57.4657 47.3943 56.7132 48.0546 55.9355C48.9559 56.3362 49.9211 56.7264 50.9362 57.0975C51.2162 58.1414 51.5198 59.1373 51.8393 60.0704C50.7247 60.8588 49.6667 61.5161 48.7105 62.0196C47.6165 62.5956 46.6739 62.9604 45.941 63.0982C45.1847 63.2404 44.7721 63.1218 44.5818 62.9138C44.3913 62.7058 44.3096 62.2843 44.5181 61.5436C44.6725 60.9947 44.9699 60.3354 45.401 59.5911ZM62.8685 54.3835C62.1659 53.9859 61.3839 53.5869 60.5355 53.1954C59.8886 53.936 59.1787 54.6941 58.4159 55.4555C58.6052 56.5194 58.7531 57.5493 58.8594 58.5293C60.2049 58.7776 61.4431 58.9307 62.524 58.9869C63.7607 59.0512 64.7703 58.9874 65.4934 58.8055C66.2395 58.618 66.5632 58.3376 66.6477 58.0693C66.7319 57.8011 66.6271 57.3846 66.1237 56.8001C65.7584 56.3761 65.224 55.9135 64.5382 55.4303C64.1123 55.7634 63.4942 55.7164 63.1217 55.3095C62.8839 55.0497 62.8009 54.703 62.8685 54.3835ZM56.5501 48.1594C56.8697 49.0926 57.1731 50.0884 57.4532 51.1324C58.4683 51.5034 59.4336 51.8936 60.3349 52.2943C61.2187 51.2535 61.9666 50.2579 62.5527 49.3497C63.223 48.3107 63.6696 47.404 63.8715 46.6861C64.0798 45.9455 63.9981 45.5238 63.8078 45.3159C63.6174 45.1079 63.2047 44.9893 62.4486 45.1315C61.7157 45.2694 60.773 45.6341 59.679 46.2101C58.7225 46.7137 57.6648 47.3711 56.5501 48.1594ZM56.8384 51.6952C56.285 51.4976 55.7165 51.306 55.1355 51.1215C54.5545 50.9369 53.9797 50.7656 53.4138 50.6075C52.9679 50.9877 52.5192 51.3838 52.0707 51.7944C51.6223 52.2048 51.1881 52.6168 50.7701 53.0274C50.8775 53.605 50.9975 54.1927 51.13 54.7877C51.2626 55.3828 51.4031 55.9659 51.5509 56.5347C52.1045 56.7322 52.6731 56.9238 53.2541 57.1083C53.8351 57.2928 54.4098 57.4641 54.9758 57.6222C55.4217 57.2421 55.8704 56.8459 56.3188 56.4355C56.7673 56.025 57.2015 55.613 57.6195 55.2024C57.5121 54.6247 57.3921 54.0371 57.2595 53.442C57.127 52.847 56.9863 52.2638 56.8384 51.6952ZM58.2504 54.571C58.1668 54.1462 58.0771 53.7167 57.9806 53.2837C57.8842 52.8508 57.7833 52.4238 57.6785 52.0034C58.4285 52.2866 59.1476 52.5792 59.8292 52.878C59.3379 53.434 58.8104 54.0003 58.2504 54.571ZM57.7751 56.0835C57.4639 56.3831 57.1449 56.6828 56.8186 56.9815C56.4921 57.2803 56.1656 57.5714 55.8396 57.8551C56.6154 58.0565 57.3713 58.2319 58.0998 58.3813C58.0156 57.6423 57.9072 56.8741 57.7751 56.0835ZM58.18 59.151C57.2133 58.9587 56.2003 58.7204 55.1574 58.438C54.3315 59.1308 53.514 59.7707 52.7191 60.3499C53.1809 61.6389 53.6711 62.7876 54.1661 63.752C54.7324 64.8555 55.2957 65.6981 55.8168 66.2342C56.3543 66.7874 56.7599 66.9286 57.0347 66.8682C57.3093 66.808 57.6171 66.5102 57.8699 65.7834C58.1147 65.0793 58.2674 64.0793 58.3127 62.8416C58.3519 61.7599 58.3085 60.5132 58.18 59.151ZM52.4651 59.6182C53.0625 59.178 53.6732 58.7024 54.2911 58.195C53.875 58.0746 53.4553 57.9471 53.0326 57.8128C52.6099 57.6784 52.1935 57.5404 51.784 57.3989C51.9999 58.171 52.2278 58.913 52.4651 59.6182ZM50.7107 56.2263C50.606 55.8061 50.5053 55.3791 50.4087 54.9462C50.3123 54.5133 50.2222 54.0838 50.139 53.6587C49.579 54.2294 49.0515 54.7959 48.5602 55.352C49.2416 55.6506 49.9608 55.9432 50.7107 56.2263ZM50.6143 52.1464C50.9256 51.8465 51.2445 51.5471 51.5709 51.2483C51.8972 50.9497 52.2239 50.6582 52.5498 50.3748C51.774 50.1735 51.018 49.998 50.2896 49.8487C50.374 50.5875 50.4822 51.3558 50.6143 52.1464ZM49.53 49.7008C49.6363 50.6807 49.7842 51.7106 49.9735 52.7745C49.2104 53.5359 48.5009 54.2938 47.8539 55.0345C46.6105 54.4607 45.5097 53.8711 44.5927 53.2928C43.5436 52.6314 42.7539 51.996 42.2659 51.4296C41.7622 50.8453 41.6574 50.4287 41.7419 50.1604C41.826 49.8922 42.1499 49.6119 42.8961 49.4242C43.6191 49.2426 44.6286 49.1786 45.8656 49.2428C46.9464 49.2991 48.1845 49.4523 49.53 49.7008Z" fill="white"/>
</g>
<g opacity="0.75" filter="url(#filter8_f_188_207)">
<path d="M55.6147 55.575C54.7882 56.3315 53.503 56.2723 52.744 55.4431C51.9849 54.6138 52.0395 53.3285 52.866 52.572C53.6925 51.8155 54.9776 51.8746 55.7367 52.7039C56.4956 53.5331 56.4412 54.8185 55.6147 55.575Z" fill="white"/>
</g>
</g>
<defs>
<filter id="filter0_f_188_207" x="-15.6717" y="-27.0296" width="173.136" height="173.137" filterUnits="userSpaceOnUse" color-interpolation-filters="sRGB">
<feFlood flood-opacity="0" result="BackgroundImageFix"/>
<feBlend mode="normal" in="SourceGraphic" in2="BackgroundImageFix" result="shape"/>
<feGaussianBlur stdDeviation="30.3992" result="effect1_foregroundBlur_188_207"/>
</filter>
<filter id="filter1_f_188_207" x="-37.5554" y="-49.0195" width="179.737" height="181.662" filterUnits="userSpaceOnUse" color-interpolation-filters="sRGB">
<feFlood flood-opacity="0" result="BackgroundImageFix"/>
<feBlend mode="normal" in="SourceGraphic" in2="BackgroundImageFix" result="shape"/>
<feGaussianBlur stdDeviation="27.6356" result="effect1_foregroundBlur_188_207"/>
</filter>
<filter id="filter2_f_188_207" x="-31.5969" y="-64.4587" width="170.989" height="170.989" filterUnits="userSpaceOnUse" color-interpolation-filters="sRGB">
<feFlood flood-opacity="0" result="BackgroundImageFix"/>
<feBlend mode="normal" in="SourceGraphic" in2="BackgroundImageFix" result="shape"/>
<feGaussianBlur stdDeviation="27.6356" result="effect1_foregroundBlur_188_207"/>
</filter>
<filter id="filter3_f_188_207" x="-29.8157" y="-55.5457" width="164.934" height="165" filterUnits="userSpaceOnUse" color-interpolation-filters="sRGB">
<feFlood flood-opacity="0" result="BackgroundImageFix"/>
<feBlend mode="normal" in="SourceGraphic" in2="BackgroundImageFix" result="shape"/>
<feGaussianBlur stdDeviation="33.1627" result="effect1_foregroundBlur_188_207"/>
</filter>
<filter id="filter4_f_188_207" x="-81.2766" y="-55.7427" width="276.848" height="274.549" filterUnits="userSpaceOnUse" color-interpolation-filters="sRGB">
<feFlood flood-opacity="0" result="BackgroundImageFix"/>
<feBlend mode="normal" in="SourceGraphic" in2="BackgroundImageFix" result="shape"/>
<feGaussianBlur stdDeviation="27.6356" result="effect1_foregroundBlur_188_207"/>
</filter>
<filter id="filter5_f_188_207" x="-30.74" y="-66.8569" width="175.071" height="186.599" filterUnits="userSpaceOnUse" color-interpolation-filters="sRGB">
<feFlood flood-opacity="0" result="BackgroundImageFix"/>
<feBlend mode="normal" in="SourceGraphic" in2="BackgroundImageFix" result="shape"/>
<feGaussianBlur stdDeviation="15.1996" result="effect1_foregroundBlur_188_207"/>
</filter>
<filter id="filter6_f_188_207" x="-49.9024" y="-50.2693" width="208.194" height="208.768" filterUnits="userSpaceOnUse" color-interpolation-filters="sRGB">
<feFlood flood-opacity="0" result="BackgroundImageFix"/>
<feBlend mode="normal" in="SourceGraphic" in2="BackgroundImageFix" result="shape"/>
<feGaussianBlur stdDeviation="45.439" result="effect1_foregroundBlur_188_207"/>
</filter>
<filter id="filter7_f_188_207" x="8.72858" y="8.36163" width="90.9323" height="91.5065" filterUnits="userSpaceOnUse" color-interpolation-filters="sRGB">
<feFlood flood-opacity="0" result="BackgroundImageFix"/>
<feBlend mode="normal" in="SourceGraphic" in2="BackgroundImageFix" result="shape"/>
<feGaussianBlur stdDeviation="16.1235" result="effect1_foregroundBlur_188_207"/>
</filter>
<filter id="filter8_f_188_207" x="37.5508" y="37.3833" width="33.3789" height="33.3804" filterUnits="userSpaceOnUse" color-interpolation-filters="sRGB">
<feFlood flood-opacity="0" result="BackgroundImageFix"/>
<feBlend mode="normal" in="SourceGraphic" in2="BackgroundImageFix" result="shape"/>
<feGaussianBlur stdDeviation="7.32886" result="effect1_foregroundBlur_188_207"/>
</filter>
</defs>
</svg>
