<svg width="115" height="79" viewBox="0 0 115 79" fill="none" xmlns="http://www.w3.org/2000/svg">
<g clip-path="url(#clip0_381_3536)">
<path d="M98.0172 69.1183C75.7731 82.012 39.7084 82.012 17.4643 69.1183C-4.77977 56.2246 -4.77977 35.3198 17.4643 22.4261C39.7084 9.53244 75.7731 9.53244 98.0172 22.4261C120.261 35.3198 120.261 56.2246 98.0172 69.1183Z" fill="url(#paint0_linear_381_3536)"/>
<path d="M96.9125 65.4886C75.2797 77.9773 40.206 77.9773 18.5732 65.4886C8.36025 59.5927 2.96888 51.9674 2.39906 44.2455L2.35156 33.4744C2.49679 41.5469 7.90399 49.5936 18.5732 55.7529C40.206 68.2415 75.2797 68.2415 96.9125 55.7529C107.537 49.6192 112.944 41.6139 113.132 33.5754V32.7051C113.139 32.9952 113.139 33.2853 113.132 33.5754V43.3109C112.944 51.3495 107.537 59.3549 96.9125 65.4886Z" fill="#2DD98F"/>
<path d="M113.132 33.5754C112.944 41.6139 107.537 49.6192 96.9125 55.7529C75.2797 68.2415 40.206 68.2415 18.5732 55.7529C7.90399 49.5936 2.49679 41.5469 2.35156 33.4744L2.39906 44.2455C2.96888 51.9674 8.36025 59.5927 18.5732 65.4886C40.206 77.9773 75.2797 77.9773 96.9125 65.4886C107.537 59.3549 112.944 51.3495 113.132 43.3109V33.5754ZM113.132 33.5754V32.7051C113.139 32.9952 113.139 33.2853 113.132 33.5754Z" stroke="#0D0B33" stroke-width="0.59185"/>
<path d="M96.9116 55.2499C75.2788 67.7386 40.2051 67.7386 18.5723 55.2499C-3.06054 42.7613 -3.06054 22.5133 18.5723 10.0247C40.2051 -2.46396 75.2788 -2.46396 96.9116 10.0247C118.544 22.5133 118.544 42.7613 96.9116 55.2499Z" fill="#F7F6FF" stroke="#0D0B33" stroke-width="0.59185"/>
<path d="M2.34766 36.5508C5.50724 44.5106 7.9491 48.1687 14.6575 51.9381V62.7092C8.53219 58.3738 5.25278 55.7135 2.34766 46.5525V36.5508Z" fill="#0D0B33"/>
<path d="M19.2734 55.7871L23.8896 58.0952V68.8663L19.2734 66.5582V55.7871Z" fill="#0D0B33"/>
<path fill-rule="evenodd" clip-rule="evenodd" d="M65.5395 31.2506C65.2906 31.4178 63.9829 32.2693 60.8794 34.0609C58.411 35.486 56.5838 36.4547 55.9395 36.7927C45.9774 42.0557 37.1842 45.2005 35.1813 44.0442C33.1783 42.888 38.6281 37.8129 47.7379 32.0579L54.2735 35.8308C54.9425 35.4968 56.835 34.5269 59.3034 33.1019C62.2656 31.3919 63.6246 30.4638 63.8667 30.2952L57.3335 26.5236C67.2799 21.2748 76.0574 18.1391 78.0559 19.2927C80.0543 20.4464 74.6247 25.5124 65.5283 31.2545L65.5395 31.2506ZM56.6665 26.1282L50.8183 22.752L64.103 15.0827L55.1847 9.9342L19.0153 30.8148L27.9336 35.9633L41.216 28.2954L47.062 31.6703C36.7656 38.1913 30.801 44.122 33.3827 45.6124C35.9643 47.1028 46.2354 43.6582 57.5333 37.7153L76.274 48.5343L85.874 42.9923L67.1265 32.1694C77.3983 25.6626 83.3516 19.7409 80.7722 18.2518C78.1929 16.7627 67.942 20.1957 56.662 26.1282H56.6665Z" fill="#0D0B33"/>
</g>
<defs>
<linearGradient id="paint0_linear_381_3536" x1="-27.4629" y1="19.791" x2="-21.5946" y2="71.4903" gradientUnits="userSpaceOnUse">
<stop stop-color="white"/>
<stop offset="1" stop-color="white" stop-opacity="0"/>
</linearGradient>
<clipPath id="clip0_381_3536">
<rect width="115" height="79" fill="white"/>
</clipPath>
</defs>
</svg>
