<svg width="154" height="154" viewBox="0 0 154 154" fill="none" xmlns="http://www.w3.org/2000/svg">
<mask id="mask0_106_111" style="mask-type:luminance" maskUnits="userSpaceOnUse" x="29" y="29" width="95" height="95">
<path d="M116.402 51.6962L116.402 51.6964C130.273 73.5619 123.792 102.532 101.926 116.402L101.926 116.402C80.0604 130.273 51.0907 123.791 37.2202 101.926L37.2201 101.926C23.3496 80.0603 29.8309 51.0906 51.6963 37.2201L51.6965 37.22C73.562 23.3496 102.532 29.8308 116.402 51.6962Z" fill="white"/>
</mask>
<g mask="url(#mask0_106_111)">
<path d="M116.402 51.6964L116.402 51.6965C130.273 73.562 123.792 102.532 101.926 116.402L101.926 116.402C80.0604 130.273 51.0907 123.792 37.2202 101.926L37.2201 101.926C23.3496 80.0604 29.8309 51.0907 51.6963 37.2203L51.6965 37.2201C73.562 23.3497 102.532 29.8309 116.402 51.6964Z" fill="#0A0718"/>
<g filter="url(#filter0_f_106_111)">
<path d="M69.7396 104.089C58.921 87.0343 63.9762 64.4386 81.0307 53.62C98.0852 42.8014 120.681 47.8566 131.499 64.9111C142.318 81.9656 137.263 104.561 120.208 115.38C103.154 126.198 80.5582 121.143 69.7396 104.089Z" fill="#232DE3"/>
</g>
<g filter="url(#filter1_f_106_111)">
<path d="M33.5799 85.1376C18.3861 61.1861 24.2758 30.2201 46.7348 15.9732C69.1939 1.72615 99.7175 9.59318 114.911 33.5446C130.105 57.4961 124.215 88.4621 101.756 102.709C79.2972 116.956 48.7736 109.089 33.5799 85.1376Z" fill="#232DE3"/>
</g>
<g filter="url(#filter2_f_106_111)">
<path d="M40.2774 52.8299C27.5891 32.828 33.5179 6.32731 53.5199 -6.36102C73.5218 -19.0493 100.022 -13.1205 112.711 6.88144C125.399 26.8834 119.47 53.3841 99.4684 66.0724C79.4664 78.7607 52.9657 72.8319 40.2774 52.8299Z" fill="#232DE3"/>
</g>
<g filter="url(#filter3_f_106_111)">
<path d="M55.4095 50.5087C48.6099 39.7898 51.746 25.6144 62.414 18.8471C73.0821 12.0797 87.2424 15.2831 94.042 26.002C100.842 36.7209 97.7056 50.8963 87.0375 57.6636C76.3694 64.431 62.2091 61.2276 55.4095 50.5087Z" fill="#EBF7FD"/>
</g>
<g filter="url(#filter4_f_106_111)">
<path d="M-36.908 38.329L-0.791588 29.389C2.45045 164.005 167.883 125.758 131.447 10.9494L165.733 -0.66879L199.12 105.942L127.797 232.097L3.45713 167.219L-36.908 38.329Z" fill="#2A224D"/>
</g>
<g filter="url(#filter5_f_106_111)">
<path d="M140.679 126.799L114.804 119.358C161.173 35.1963 43.6258 -0.554979 25.2057 83.2996L-0.483325 78.1662L16.9016 0.459182L107.011 -51.7425L161.697 32.8535L140.679 126.799Z" fill="white"/>
</g>
<g opacity="0.15" filter="url(#filter6_f_106_111)">
<path d="M78.9305 78.8747C77.7575 79.9483 75.9335 79.8643 74.8563 78.6875C73.779 77.5105 73.8564 75.6863 75.0294 74.6126C76.2024 73.539 78.0263 73.6228 79.1036 74.7998C80.1808 75.9767 80.1035 77.801 78.9305 78.8747Z" fill="white"/>
<path fill-rule="evenodd" clip-rule="evenodd" d="M70.1882 69.4527C70.0836 68.274 70.0233 67.1546 70.0073 66.1094C69.762 66.0339 69.5329 65.8939 69.3471 65.6909C68.7921 65.0846 68.8319 64.1448 69.4362 63.5917C69.6275 63.4166 69.8526 63.3011 70.0882 63.2445C70.1937 61.9254 70.3984 60.7879 70.709 59.8944C71.0944 58.7867 71.704 57.8872 72.6568 57.6778C73.6095 57.4689 74.5447 58.0291 75.3641 58.8725C76.2076 59.7399 77.0628 61.0395 77.8886 62.6486C78.5773 63.9904 79.2552 65.5663 79.8949 67.3218C81.4219 66.2543 82.8776 65.3557 84.2081 64.6554C85.8037 63.8151 87.2464 63.2453 88.4323 63.0222C89.5851 62.8052 90.6708 62.8865 91.3311 63.6079C91.9913 64.3291 91.9764 65.4177 91.6585 66.5469C91.3317 67.7085 90.6367 69.0953 89.659 70.6106C88.8438 71.874 87.8204 73.2448 86.6224 74.6716C87.7679 75.208 88.8303 75.7543 89.7928 76.3012C90.3961 75.8533 91.2533 75.9274 91.7732 76.4954C92.1014 76.854 92.2215 77.3293 92.1399 77.7723C93.1871 78.5053 94.0373 79.2325 94.6387 79.9305C95.4064 80.8209 95.8821 81.8022 95.5897 82.7325C95.2971 83.6631 94.3474 84.1911 93.2098 84.4771C92.0398 84.7711 90.4894 84.8585 88.6859 84.7647C87.182 84.6863 85.4808 84.4808 83.6429 84.1523C83.808 86.0119 83.8625 87.7247 83.8077 89.2298C83.7421 91.0345 83.5183 92.5709 83.1219 93.7107C82.7369 94.8183 82.1269 95.718 81.1744 95.9271C80.2216 96.1364 79.2865 95.5758 78.4669 94.7328C77.6238 93.8652 76.7686 92.5655 75.9427 90.9564C75.2539 89.6147 74.5759 88.0387 73.9361 86.2835C72.409 87.3508 70.9537 88.2492 69.6233 88.9497C68.0275 89.7898 66.5848 90.3596 65.3989 90.5827C64.2461 90.7997 63.1604 90.7184 62.5002 89.9972C61.8399 89.2758 61.8548 88.1871 62.1727 87.058C62.407 86.2254 62.8304 85.2771 63.4116 84.2486C63.3533 84.2015 63.2979 84.1496 63.2459 84.0928C62.6908 83.4864 62.7309 82.5467 63.3352 81.9935C63.8027 81.5656 64.4713 81.4946 65.0071 81.7653C65.652 80.8585 66.3896 79.9093 67.2087 78.9337C65.5167 78.1414 64.0068 77.327 62.7312 76.5225C61.2012 75.5578 59.9821 74.5913 59.1923 73.6748C58.4248 72.7839 57.949 71.8032 58.2415 70.8724C58.5338 69.9421 59.4839 69.414 60.6211 69.1281C61.7914 68.8338 63.3418 68.7467 65.1452 68.8406C66.6491 68.9187 68.3504 69.1241 70.1882 69.4527ZM79.3701 68.992C78.5224 69.617 77.6557 70.2916 76.7786 71.0118C77.3687 71.1832 77.9649 71.364 78.5649 71.5545C79.1649 71.7451 79.7558 71.9412 80.3369 72.1419C80.0305 71.0461 79.7069 69.9929 79.3701 68.992ZM79.0097 67.9538C77.8817 68.7756 76.7213 69.6837 75.5492 70.6672C74.0692 70.266 72.6314 69.9283 71.2593 69.6551C71.1382 68.373 71.0704 67.1629 71.0549 66.0451C71.1946 65.9821 71.3268 65.8963 71.4459 65.7873C72.0502 65.2342 72.09 64.2945 71.535 63.6882C71.4155 63.5576 71.2782 63.4529 71.1301 63.3749C71.2302 62.0937 71.4236 61.0357 71.6997 60.242C72.0582 59.2108 72.4951 58.7881 72.8851 58.7024C73.2747 58.6169 73.8504 58.8172 74.6137 59.6022C75.3533 60.3631 76.1523 61.5593 76.956 63.1252C77.6586 64.494 78.3543 66.1242 79.0097 67.9538ZM64.4351 84.5746C64.7621 84.5551 65.0845 84.4272 65.3447 84.189C65.8065 83.7664 65.9386 83.1183 65.7278 82.5654C66.4343 81.5582 67.2641 80.4901 68.2013 79.3865C69.4804 79.9551 70.8503 80.509 72.2909 81.0356C72.6884 82.5171 73.1191 83.9305 73.5727 85.2549C71.9907 86.3738 70.4892 87.3067 69.1322 88.0212C67.5794 88.8387 66.2416 89.3564 65.2015 89.5521C64.1282 89.7539 63.5425 89.5855 63.2724 89.2904C63.0022 88.9951 62.8861 88.3969 63.182 87.3457C63.4012 86.5666 63.8232 85.631 64.4351 84.5746ZM89.2257 77.1837C88.2287 76.6194 87.1187 76.0532 85.9147 75.4976C84.9965 76.5487 83.9891 77.6245 82.9065 78.7051C83.1751 80.2151 83.385 81.6768 83.536 83.0677C85.4454 83.4201 87.2028 83.6374 88.7369 83.7171C90.492 83.8084 91.9249 83.7178 92.9512 83.4597C94.01 83.1936 94.4695 82.7956 94.5894 82.4148C94.7089 82.0342 94.5601 81.443 93.8457 80.6135C93.3273 80.0118 92.5687 79.3553 91.5955 78.6694C90.991 79.1422 90.1138 79.0755 89.5852 78.498C89.2477 78.1293 89.1298 77.6373 89.2257 77.1837ZM80.2585 68.3503C80.7121 69.6746 81.1427 71.0879 81.5401 72.5697C82.9809 73.0962 84.3508 73.65 85.6299 74.2187C86.8842 72.7415 87.9458 71.3285 88.7776 70.0395C89.7289 68.565 90.3627 67.2781 90.6493 66.2593C90.945 65.2081 90.829 64.6097 90.5589 64.3146C90.2887 64.0194 89.7029 63.8511 88.6298 64.053C87.5897 64.2486 86.2518 64.7662 84.699 65.5836C83.3417 66.2984 81.8405 67.2314 80.2585 68.3503ZM80.6676 73.3684C79.8822 73.088 79.0754 72.816 78.2508 72.5541C77.4262 72.2923 76.6104 72.049 75.8073 71.8247C75.1744 72.3642 74.5376 72.9265 73.9011 73.5091C73.2647 74.0916 72.6484 74.6763 72.0551 75.2591C72.2077 76.0789 72.378 76.9129 72.5661 77.7575C72.7541 78.602 72.9536 79.4296 73.1633 80.2368C73.949 80.5171 74.756 80.789 75.5806 81.0509C76.4052 81.3128 77.2208 81.5559 78.0241 81.7803C78.6569 81.2408 79.2938 80.6785 79.9301 80.096C80.5667 79.5134 81.183 78.9287 81.7762 78.3459C81.6237 77.5261 81.4534 76.6921 81.2653 75.8476C81.0772 75.0031 80.8775 74.1754 80.6676 73.3684ZM82.6716 77.4499C82.5529 76.847 82.4256 76.2374 82.2887 75.6229C82.1519 75.0085 82.0086 74.4024 81.8599 73.8058C82.9244 74.2078 83.945 74.6231 84.9123 75.047C84.215 75.8362 83.4663 76.6399 82.6716 77.4499ZM81.997 79.5965C81.5553 80.0217 81.1026 80.4471 80.6395 80.871C80.1762 81.295 79.7128 81.7082 79.25 82.1109C80.3511 82.3966 81.424 82.6456 82.4578 82.8576C82.3383 81.8088 82.1845 80.7186 81.997 79.5965ZM82.5717 83.95C81.1996 83.677 79.762 83.3389 78.2818 82.9381C77.1097 83.9213 75.9495 84.8296 74.8213 85.6515C75.4767 87.481 76.1725 89.1113 76.875 90.4799C77.6787 92.0461 78.4781 93.242 79.2176 94.0028C79.9805 94.7879 80.5562 94.9883 80.9462 94.9026C81.3359 94.8172 81.7728 94.3945 82.1316 93.363C82.479 92.3637 82.6957 90.9445 82.76 89.1879C82.8157 87.6527 82.754 85.8833 82.5717 83.95ZM74.4608 84.6131C75.3086 83.9883 76.1754 83.3134 77.0524 82.5933C76.4619 82.4223 75.8662 82.2413 75.2662 82.0508C74.6664 81.8601 74.0753 81.6642 73.4942 81.4634C73.8006 82.5592 74.124 83.6123 74.4608 84.6131ZM71.9709 79.7992C71.8223 79.2028 71.6793 78.5967 71.5423 77.9824C71.4055 77.3679 71.2777 76.7584 71.1595 76.1551C70.3647 76.9651 69.6161 77.7691 68.9187 78.5583C69.886 78.9821 70.9065 79.3974 71.9709 79.7992ZM71.8341 74.0088C72.2759 73.5832 72.7285 73.1583 73.1917 72.7342C73.6549 72.3103 74.1184 71.8967 74.581 71.4944C73.4799 71.2087 72.4071 70.9597 71.3732 70.7477C71.4931 71.7962 71.6466 72.8868 71.8341 74.0088ZM70.2952 70.5378C70.4461 71.9286 70.6559 73.3903 70.9246 74.9002C69.8417 75.9808 68.8347 77.0565 67.9164 78.1077C66.1517 77.2933 64.5893 76.4565 63.2879 75.6358C61.799 74.6971 60.6783 73.7953 59.9857 72.9915C59.2708 72.1621 59.122 71.571 59.2419 71.1902C59.3614 70.8096 59.821 70.4117 60.8801 70.1454C61.9062 69.8876 63.3389 69.7967 65.0945 69.8879C66.6284 69.9678 68.3856 70.1852 70.2952 70.5378Z" fill="white"/>
</g>
<g opacity="0.15" filter="url(#filter7_f_106_111)">
<path d="M78.9305 78.8747C77.7575 79.9483 75.9335 79.8643 74.8563 78.6875C73.779 77.5105 73.8564 75.6863 75.0294 74.6126C76.2024 73.539 78.0263 73.6228 79.1036 74.7998C80.1808 75.9767 80.1035 77.801 78.9305 78.8747Z" fill="white"/>
<path fill-rule="evenodd" clip-rule="evenodd" d="M70.1882 69.4527C70.0836 68.274 70.0233 67.1546 70.0073 66.1094C69.762 66.0339 69.5329 65.8939 69.3471 65.6909C68.7921 65.0846 68.8319 64.1448 69.4362 63.5917C69.6275 63.4166 69.8526 63.3011 70.0882 63.2445C70.1937 61.9254 70.3984 60.7879 70.709 59.8944C71.0944 58.7867 71.704 57.8872 72.6568 57.6778C73.6095 57.4689 74.5447 58.0291 75.3641 58.8725C76.2076 59.7399 77.0628 61.0395 77.8886 62.6486C78.5773 63.9904 79.2552 65.5663 79.8949 67.3218C81.4219 66.2543 82.8776 65.3557 84.2081 64.6554C85.8037 63.8151 87.2464 63.2453 88.4323 63.0222C89.5851 62.8052 90.6708 62.8865 91.3311 63.6079C91.9913 64.3291 91.9764 65.4177 91.6585 66.5469C91.3317 67.7085 90.6367 69.0953 89.659 70.6106C88.8438 71.874 87.8204 73.2448 86.6224 74.6716C87.7679 75.208 88.8303 75.7543 89.7928 76.3012C90.3961 75.8533 91.2533 75.9274 91.7732 76.4954C92.1014 76.854 92.2215 77.3293 92.1399 77.7723C93.1871 78.5053 94.0373 79.2325 94.6387 79.9305C95.4064 80.8209 95.8821 81.8022 95.5897 82.7325C95.2971 83.6631 94.3474 84.1911 93.2098 84.4771C92.0398 84.7711 90.4894 84.8585 88.6859 84.7647C87.182 84.6863 85.4808 84.4808 83.6429 84.1523C83.808 86.0119 83.8625 87.7247 83.8077 89.2298C83.7421 91.0345 83.5183 92.5709 83.1219 93.7107C82.7369 94.8183 82.1269 95.718 81.1744 95.9271C80.2216 96.1364 79.2865 95.5758 78.4669 94.7328C77.6238 93.8652 76.7686 92.5655 75.9427 90.9564C75.2539 89.6147 74.5759 88.0387 73.9361 86.2835C72.409 87.3508 70.9537 88.2492 69.6233 88.9497C68.0275 89.7898 66.5848 90.3596 65.3989 90.5827C64.2461 90.7997 63.1604 90.7184 62.5002 89.9972C61.8399 89.2758 61.8548 88.1871 62.1727 87.058C62.407 86.2254 62.8304 85.2771 63.4116 84.2486C63.3533 84.2015 63.2979 84.1496 63.2459 84.0928C62.6908 83.4864 62.7309 82.5467 63.3352 81.9935C63.8027 81.5656 64.4713 81.4946 65.0071 81.7653C65.652 80.8585 66.3896 79.9093 67.2087 78.9337C65.5167 78.1414 64.0068 77.327 62.7312 76.5225C61.2012 75.5578 59.9821 74.5913 59.1923 73.6748C58.4248 72.7839 57.949 71.8032 58.2415 70.8724C58.5338 69.9421 59.4839 69.414 60.6211 69.1281C61.7914 68.8338 63.3418 68.7467 65.1452 68.8406C66.6491 68.9187 68.3504 69.1241 70.1882 69.4527ZM79.3701 68.992C78.5224 69.617 77.6557 70.2916 76.7786 71.0118C77.3687 71.1832 77.9649 71.364 78.5649 71.5545C79.1649 71.7451 79.7558 71.9412 80.3369 72.1419C80.0305 71.0461 79.7069 69.9929 79.3701 68.992ZM79.0097 67.9538C77.8817 68.7756 76.7213 69.6837 75.5492 70.6672C74.0692 70.266 72.6314 69.9283 71.2593 69.6551C71.1382 68.373 71.0704 67.1629 71.0549 66.0451C71.1946 65.9821 71.3268 65.8963 71.4459 65.7873C72.0502 65.2342 72.09 64.2945 71.535 63.6882C71.4155 63.5576 71.2782 63.4529 71.1301 63.3749C71.2302 62.0937 71.4236 61.0357 71.6997 60.242C72.0582 59.2108 72.4951 58.7881 72.8851 58.7024C73.2747 58.6169 73.8504 58.8172 74.6137 59.6022C75.3533 60.3631 76.1523 61.5593 76.956 63.1252C77.6586 64.494 78.3543 66.1242 79.0097 67.9538ZM64.4351 84.5746C64.7621 84.5551 65.0845 84.4272 65.3447 84.189C65.8065 83.7664 65.9386 83.1183 65.7278 82.5654C66.4343 81.5582 67.2641 80.4901 68.2013 79.3865C69.4804 79.9551 70.8503 80.509 72.2909 81.0356C72.6884 82.5171 73.1191 83.9305 73.5727 85.2549C71.9907 86.3738 70.4892 87.3067 69.1322 88.0212C67.5794 88.8387 66.2416 89.3564 65.2015 89.5521C64.1282 89.7539 63.5425 89.5855 63.2724 89.2904C63.0022 88.9951 62.8861 88.3969 63.182 87.3457C63.4012 86.5666 63.8232 85.631 64.4351 84.5746ZM89.2257 77.1837C88.2287 76.6194 87.1187 76.0532 85.9147 75.4976C84.9965 76.5487 83.9891 77.6245 82.9065 78.7051C83.1751 80.2151 83.385 81.6768 83.536 83.0677C85.4454 83.4201 87.2028 83.6374 88.7369 83.7171C90.492 83.8084 91.9249 83.7178 92.9512 83.4597C94.01 83.1936 94.4695 82.7956 94.5894 82.4148C94.7089 82.0342 94.5601 81.443 93.8457 80.6135C93.3273 80.0118 92.5687 79.3553 91.5955 78.6694C90.991 79.1422 90.1138 79.0755 89.5852 78.498C89.2477 78.1293 89.1298 77.6373 89.2257 77.1837ZM80.2585 68.3503C80.7121 69.6746 81.1427 71.0879 81.5401 72.5697C82.9809 73.0962 84.3508 73.65 85.6299 74.2187C86.8842 72.7415 87.9458 71.3285 88.7776 70.0395C89.7289 68.565 90.3627 67.2781 90.6493 66.2593C90.945 65.2081 90.829 64.6097 90.5589 64.3146C90.2887 64.0194 89.7029 63.8511 88.6298 64.053C87.5897 64.2486 86.2518 64.7662 84.699 65.5836C83.3417 66.2984 81.8405 67.2314 80.2585 68.3503ZM80.6676 73.3684C79.8822 73.088 79.0754 72.816 78.2508 72.5541C77.4262 72.2923 76.6104 72.049 75.8073 71.8247C75.1744 72.3642 74.5376 72.9265 73.9011 73.5091C73.2647 74.0916 72.6484 74.6763 72.0551 75.2591C72.2077 76.0789 72.378 76.9129 72.5661 77.7575C72.7541 78.602 72.9536 79.4296 73.1633 80.2368C73.949 80.5171 74.756 80.789 75.5806 81.0509C76.4052 81.3128 77.2208 81.5559 78.0241 81.7803C78.6569 81.2408 79.2938 80.6785 79.9301 80.096C80.5667 79.5134 81.183 78.9287 81.7762 78.3459C81.6237 77.5261 81.4534 76.6921 81.2653 75.8476C81.0772 75.0031 80.8775 74.1754 80.6676 73.3684ZM82.6716 77.4499C82.5529 76.847 82.4256 76.2374 82.2887 75.6229C82.1519 75.0085 82.0086 74.4024 81.8599 73.8058C82.9244 74.2078 83.945 74.6231 84.9123 75.047C84.215 75.8362 83.4663 76.6399 82.6716 77.4499ZM81.997 79.5965C81.5553 80.0217 81.1026 80.4471 80.6395 80.871C80.1762 81.295 79.7128 81.7082 79.25 82.1109C80.3511 82.3966 81.424 82.6456 82.4578 82.8576C82.3383 81.8088 82.1845 80.7186 81.997 79.5965ZM82.5717 83.95C81.1996 83.677 79.762 83.3389 78.2818 82.9381C77.1097 83.9213 75.9495 84.8296 74.8213 85.6515C75.4767 87.481 76.1725 89.1113 76.875 90.4799C77.6787 92.0461 78.4781 93.242 79.2176 94.0028C79.9805 94.7879 80.5562 94.9883 80.9462 94.9026C81.3359 94.8172 81.7728 94.3945 82.1316 93.363C82.479 92.3637 82.6957 90.9445 82.76 89.1879C82.8157 87.6527 82.754 85.8833 82.5717 83.95ZM74.4608 84.6131C75.3086 83.9883 76.1754 83.3134 77.0524 82.5933C76.4619 82.4223 75.8662 82.2413 75.2662 82.0508C74.6664 81.8601 74.0753 81.6642 73.4942 81.4634C73.8006 82.5592 74.124 83.6123 74.4608 84.6131ZM71.9709 79.7992C71.8223 79.2028 71.6793 78.5967 71.5423 77.9824C71.4055 77.3679 71.2777 76.7584 71.1595 76.1551C70.3647 76.9651 69.6161 77.7691 68.9187 78.5583C69.886 78.9821 70.9065 79.3974 71.9709 79.7992ZM71.8341 74.0088C72.2759 73.5832 72.7285 73.1583 73.1917 72.7342C73.6549 72.3103 74.1184 71.8967 74.581 71.4944C73.4799 71.2087 72.4071 70.9597 71.3732 70.7477C71.4931 71.7962 71.6466 72.8868 71.8341 74.0088ZM70.2952 70.5378C70.4461 71.9286 70.6559 73.3903 70.9246 74.9002C69.8417 75.9808 68.8347 77.0565 67.9164 78.1077C66.1517 77.2933 64.5893 76.4565 63.2879 75.6358C61.799 74.6971 60.6783 73.7953 59.9857 72.9915C59.2708 72.1621 59.122 71.571 59.2419 71.1902C59.3614 70.8096 59.821 70.4117 60.8801 70.1454C61.9062 69.8876 63.3389 69.7967 65.0945 69.8879C66.6284 69.9678 68.3856 70.1852 70.2952 70.5378Z" fill="white"/>
</g>
<g opacity="0.75" filter="url(#filter8_f_106_111)">
<path d="M78.931 78.8748C77.758 79.9485 75.934 79.8644 74.8568 78.6876C73.7795 77.5106 73.8569 75.6864 75.0299 74.6128C76.2029 73.5391 78.0268 73.623 79.1041 74.8C80.1813 75.9768 80.104 77.8011 78.931 78.8748Z" fill="white"/>
</g>
</g>
<defs>
<filter id="filter0_f_106_111" x="3.24754" y="-12.8721" width="194.744" height="194.744" filterUnits="userSpaceOnUse" color-interpolation-filters="sRGB">
<feFlood flood-opacity="0" result="BackgroundImageFix"/>
<feBlend mode="normal" in="SourceGraphic" in2="BackgroundImageFix" result="shape"/>
<feGaussianBlur stdDeviation="30.3992" result="effect1_foregroundBlur_106_111"/>
</filter>
<filter id="filter1_f_106_111" x="-30.1279" y="-46.3982" width="208.747" height="211.479" filterUnits="userSpaceOnUse" color-interpolation-filters="sRGB">
<feFlood flood-opacity="0" result="BackgroundImageFix"/>
<feBlend mode="normal" in="SourceGraphic" in2="BackgroundImageFix" result="shape"/>
<feGaussianBlur stdDeviation="27.6356" result="effect1_foregroundBlur_106_111"/>
</filter>
<filter id="filter2_f_106_111" x="-21.6716" y="-68.3101" width="196.331" height="196.331" filterUnits="userSpaceOnUse" color-interpolation-filters="sRGB">
<feFlood flood-opacity="0" result="BackgroundImageFix"/>
<feBlend mode="normal" in="SourceGraphic" in2="BackgroundImageFix" result="shape"/>
<feGaussianBlur stdDeviation="27.6356" result="effect1_foregroundBlur_106_111"/>
</filter>
<filter id="filter3_f_106_111" x="-14.5088" y="-51.0258" width="178.469" height="178.562" filterUnits="userSpaceOnUse" color-interpolation-filters="sRGB">
<feFlood flood-opacity="0" result="BackgroundImageFix"/>
<feBlend mode="normal" in="SourceGraphic" in2="BackgroundImageFix" result="shape"/>
<feGaussianBlur stdDeviation="33.1627" result="effect1_foregroundBlur_106_111"/>
</filter>
<filter id="filter4_f_106_111" x="-92.1792" y="-55.9401" width="346.571" height="343.308" filterUnits="userSpaceOnUse" color-interpolation-filters="sRGB">
<feFlood flood-opacity="0" result="BackgroundImageFix"/>
<feBlend mode="normal" in="SourceGraphic" in2="BackgroundImageFix" result="shape"/>
<feGaussianBlur stdDeviation="27.6356" result="effect1_foregroundBlur_106_111"/>
</filter>
<filter id="filter5_f_106_111" x="-30.8826" y="-82.1416" width="222.979" height="239.34" filterUnits="userSpaceOnUse" color-interpolation-filters="sRGB">
<feFlood flood-opacity="0" result="BackgroundImageFix"/>
<feBlend mode="normal" in="SourceGraphic" in2="BackgroundImageFix" result="shape"/>
<feGaussianBlur stdDeviation="15.1996" result="effect1_foregroundBlur_106_111"/>
</filter>
<filter id="filter6_f_106_111" x="-32.7237" y="-33.244" width="219.278" height="220.093" filterUnits="userSpaceOnUse" color-interpolation-filters="sRGB">
<feFlood flood-opacity="0" result="BackgroundImageFix"/>
<feBlend mode="normal" in="SourceGraphic" in2="BackgroundImageFix" result="shape"/>
<feGaussianBlur stdDeviation="45.439" result="effect1_foregroundBlur_106_111"/>
</filter>
<filter id="filter7_f_106_111" x="25.9073" y="25.3869" width="102.016" height="102.831" filterUnits="userSpaceOnUse" color-interpolation-filters="sRGB">
<feFlood flood-opacity="0" result="BackgroundImageFix"/>
<feBlend mode="normal" in="SourceGraphic" in2="BackgroundImageFix" result="shape"/>
<feGaussianBlur stdDeviation="16.1235" result="effect1_foregroundBlur_106_111"/>
</filter>
<filter id="filter8_f_106_111" x="59.4392" y="59.2015" width="35.0825" height="35.0843" filterUnits="userSpaceOnUse" color-interpolation-filters="sRGB">
<feFlood flood-opacity="0" result="BackgroundImageFix"/>
<feBlend mode="normal" in="SourceGraphic" in2="BackgroundImageFix" result="shape"/>
<feGaussianBlur stdDeviation="7.32886" result="effect1_foregroundBlur_106_111"/>
</filter>
</defs>
</svg>
