<svg width="38" height="38" viewBox="0 0 38 38" fill="none" xmlns="http://www.w3.org/2000/svg">
<path d="M28.8906 25.1385C27.649 23.9128 26.099 23.9128 24.8653 25.1385C23.9242 26.0717 22.9831 27.0049 22.0579 27.9539C21.8048 28.2148 21.5913 28.2702 21.2829 28.0962C20.6739 27.7641 20.0255 27.4952 19.4403 27.1314C16.7119 25.4153 14.4265 23.2089 12.4019 20.7258C11.3976 19.4921 10.504 18.1714 9.87923 16.6847C9.7527 16.3841 9.77642 16.1864 10.0216 15.9413C10.9627 15.0318 11.88 14.0987 12.8053 13.1655C14.0943 11.8686 14.0943 10.3502 12.7974 9.04532C12.0619 8.30195 11.3264 7.57439 10.591 6.83102C9.83178 6.07183 9.0805 5.30474 8.3134 4.55345C7.07181 3.3435 5.5218 3.3435 4.28812 4.56136C3.33913 5.49453 2.42969 6.45143 1.46488 7.36878C0.571255 8.21496 0.120487 9.25094 0.0255882 10.4609C-0.124668 12.43 0.357733 14.2885 1.03784 16.0995C2.42969 19.8479 4.54909 23.1773 7.11926 26.2299C10.591 30.358 14.7349 33.6241 19.5826 35.9807C21.7653 37.0404 24.027 37.855 26.4865 37.9894C28.1788 38.0843 29.6498 37.6573 30.8281 36.3366C31.6347 35.435 32.5442 34.6126 33.3983 33.7506C34.6636 32.4695 34.6715 30.9195 33.4141 29.6541C31.9115 28.1437 30.4011 26.6411 28.8906 25.1385Z" fill="#2DD98F"/>
<path d="M27.3782 18.8353L30.2963 18.3371C29.8376 15.6562 28.5723 13.2284 26.6506 11.2988C24.6182 9.26639 22.048 7.98525 19.2169 7.58984L18.8057 10.5238C20.9962 10.8322 22.9891 11.8207 24.5628 13.3945C26.0496 14.8812 27.0223 16.7634 27.3782 18.8353Z" fill="#2DD98F"/>
<path d="M31.9424 6.15064C28.5735 2.78174 24.311 0.654429 19.6056 -0.00195312L19.1943 2.932C23.2592 3.50139 26.9444 5.344 29.8546 8.24632C32.6146 11.0063 34.4256 14.4938 35.0819 18.3293L38.0001 17.8311C37.233 13.3867 35.1373 9.35347 31.9424 6.15064Z" fill="#2DD98F"/>
</svg>
