<svg width="11" height="15" viewBox="0 0 11 15" fill="none" xmlns="http://www.w3.org/2000/svg">
<path d="M10.4925 7.86938C10.144 7.41876 9.61813 7.10924 8.91492 6.94101C9.81042 6.48423 10.204 5.70896 10.0959 4.61508C10.0598 4.21842 9.95016 3.87464 9.76678 3.58324C9.58327 3.29178 9.33564 3.05747 9.02293 2.88021C8.71047 2.70274 8.37064 2.56763 8.00423 2.47449C7.63771 2.38135 7.21693 2.31371 6.74215 2.27169V0H5.35403V2.20857C5.11366 2.20857 4.74708 2.21457 4.25434 2.2266V0H2.86603V2.27169C2.66765 2.27772 2.37622 2.28078 1.99162 2.28078L0.0805664 2.27169V3.75011H1.08112C1.53787 3.75011 1.8053 3.95449 1.88341 4.36309V6.95033C1.94359 6.95033 1.99162 6.95342 2.0277 6.95942H1.88341V10.5831C1.83539 10.8896 1.66113 11.0429 1.36061 11.0429H0.360123L0.0806295 12.6926H1.88357C1.99777 12.6926 2.16294 12.6941 2.37938 12.6969C2.59569 12.6999 2.75789 12.7014 2.86609 12.7014V15.0001H4.25462V12.7284C4.50696 12.7346 4.87354 12.7375 5.35431 12.7375V15.0001H6.74246V12.7014C7.23537 12.6774 7.67254 12.6326 8.05399 12.5662C8.43562 12.4999 8.80081 12.3964 9.14929 12.2551C9.49774 12.1139 9.78917 11.938 10.0235 11.7277C10.258 11.5175 10.4516 11.25 10.6051 10.9254C10.7581 10.6008 10.8559 10.2252 10.8979 9.79843C10.9763 8.9633 10.841 8.3202 10.4925 7.86938ZM4.28133 3.849C4.32342 3.849 4.44211 3.84749 4.63742 3.84445C4.83284 3.84136 4.99503 3.83839 5.12423 3.83536C5.25347 3.83239 5.42775 3.83991 5.64719 3.85794C5.86654 3.87596 6.05131 3.90006 6.20151 3.93005C6.3517 3.96005 6.51712 4.00965 6.69725 4.07876C6.8777 4.14782 7.02183 4.23199 7.12988 4.33114C7.23815 4.43028 7.32977 4.55654 7.40476 4.7098C7.47997 4.86303 7.51754 5.03881 7.51754 5.23709C7.51754 5.40538 7.49055 5.55867 7.43653 5.69697C7.3826 5.83517 7.30126 5.95088 7.19321 6.04403C7.08514 6.1372 6.97374 6.21841 6.85954 6.28746C6.74546 6.35652 6.59959 6.41215 6.42237 6.45417C6.24517 6.49626 6.09043 6.52932 5.95829 6.55332C5.82606 6.57738 5.66083 6.59395 5.46249 6.60292C5.26411 6.61189 5.11381 6.61801 5.0117 6.62098C4.9095 6.62395 4.76981 6.62395 4.59246 6.62098C4.41508 6.61801 4.31155 6.61643 4.28143 6.61643V3.84897L4.28133 3.849ZM8.07211 9.98784C8.01487 10.1261 7.94136 10.2464 7.85128 10.3486C7.76104 10.4506 7.64229 10.5409 7.49513 10.6189C7.34799 10.6971 7.20512 10.7601 7.06701 10.8082C6.92872 10.8565 6.76188 10.8983 6.56676 10.9345C6.37119 10.9706 6.20002 10.996 6.05264 11.0111C5.90547 11.0262 5.72976 11.0381 5.52535 11.0472C5.3211 11.0561 5.16174 11.0606 5.0476 11.0606C4.9334 11.0606 4.78914 11.059 4.61485 11.0561C4.44047 11.0532 4.32939 11.0517 4.28127 11.0517V8.00468C4.32929 8.00468 4.47204 8.00174 4.70948 7.99562C4.94695 7.98956 5.14065 7.98675 5.29091 7.98675C5.44114 7.98675 5.64855 7.99562 5.91308 8.01377C6.17735 8.03168 6.39973 8.05861 6.58017 8.09467C6.7604 8.13079 6.95707 8.18629 7.17058 8.2615C7.38386 8.33659 7.55673 8.42821 7.68899 8.53639C7.82122 8.64475 7.93233 8.78276 8.02244 8.95108C8.11278 9.11931 8.15783 9.31166 8.15783 9.52806C8.1578 9.69651 8.12929 9.84952 8.07211 9.98784Z" fill="white"/>
</svg>
