<svg width="16" height="15" viewBox="0 0 16 15" fill="none" xmlns="http://www.w3.org/2000/svg">
<path d="M3.83334 10.8332C2 10.8332 0.5 9.33318 0.5 7.49985C0.5 5.66651 2 4.1665 3.83334 4.1665C5.66668 4.1665 7.16668 5.66651 7.16668 7.49985C7.16668 9.33318 5.66668 10.8332 3.83334 10.8332ZM3.83334 5.83318C2.91667 5.83318 2.16667 6.58318 2.16667 7.49985C2.16667 8.41652 2.91667 9.16652 3.83334 9.16652C4.75001 9.16652 5.50001 8.41652 5.50001 7.49985C5.50001 6.58318 4.75001 5.83318 3.83334 5.83318Z" fill="white"/>
<path d="M12.1666 6.66668C10.3333 6.66668 8.83325 5.16668 8.83325 3.33334C8.83325 1.5 10.3333 0 12.1666 0C13.9999 0 15.4999 1.5 15.4999 3.33334C15.4999 5.16668 13.9999 6.66668 12.1666 6.66668ZM12.1666 1.66667C11.2499 1.66667 10.4999 2.41667 10.4999 3.33334C10.4999 4.25001 11.2499 5.00001 12.1666 5.00001C13.0833 5.00001 13.8333 4.25001 13.8333 3.33334C13.8333 2.41667 13.0833 1.66667 12.1666 1.66667Z" fill="white"/>
<path d="M12.1666 15.0002C10.3333 15.0002 8.83325 13.5002 8.83325 11.6668C8.83325 9.8335 10.3333 8.3335 12.1666 8.3335C13.9999 8.3335 15.4999 9.8335 15.4999 11.6668C15.4999 13.5002 13.9999 15.0002 12.1666 15.0002ZM12.1666 10.0002C11.2499 10.0002 10.4999 10.7502 10.4999 11.6668C10.4999 12.5835 11.2499 13.3335 12.1666 13.3335C13.0833 13.3335 13.8333 12.5835 13.8333 11.6668C13.8333 10.7502 13.0833 10.0002 12.1666 10.0002Z" fill="white"/>
<path d="M8.83334 8.3332H6.33334C5.83333 8.3332 5.5 7.99986 5.5 7.49986C5.5 6.99986 5.83333 6.66653 6.33334 6.66653H8.41667L9.83334 4.91652C10.0833 4.58319 10.6667 4.49985 11 4.74985C11.3333 4.99985 11.4167 5.58319 11.1667 5.91652L9.50001 7.99986C9.33334 8.24986 9.08334 8.3332 8.83334 8.3332Z" fill="white"/>
<path d="M10.4999 10.4166C10.2499 10.4166 9.99993 10.3332 9.83326 10.0832L8.16659 7.99988C7.91659 7.66655 7.91659 7.08321 8.33325 6.83321C8.66659 6.58321 9.24992 6.58321 9.49992 6.99988L11.1666 9.08322C11.4166 9.41655 11.4166 9.99989 10.9999 10.2499C10.8333 10.3332 10.6666 10.4166 10.4999 10.4166Z" fill="white"/>
</svg>
