<svg width="12" height="14" viewBox="0 0 12 14" fill="none" xmlns="http://www.w3.org/2000/svg">
<path d="M4.56207 11.5353L5.82491 8.12509L9.30245 7.41076C9.73849 7.32139 10.089 7.03397 10.2243 6.65482L10.2372 6.61853C10.5346 5.78518 9.69557 4.98207 8.73866 5.18411L6.76265 5.59274L8.19476 1.72537C8.50961 0.875167 7.79717 0 6.79021 0C6.15859 0 5.59672 0.356609 5.39163 0.887611L3.29135 6.32567L0.975281 6.81631C0.576435 6.90051 0.248196 7.15126 0.0945517 7.48911C-0.289127 8.33277 0.554437 9.21114 1.55201 9.00666L2.31882 8.84373L0.753553 12.8965C0.544715 13.4372 0.996725 14 1.63991 14H10.6125C11.2067 14 11.7348 13.6635 11.9255 13.1633C12.2303 12.3642 11.5618 11.5353 10.6125 11.5353H4.56207Z" fill="white"/>
</svg>
