<svg width="41" height="33" viewBox="0 0 41 33" fill="none" xmlns="http://www.w3.org/2000/svg">
<path d="M23.9265 21.246C22.9064 21.9574 21.7216 22.3334 20.5 22.3334C19.2785 22.3334 18.0937 21.9574 17.0736 21.246L0.272986 9.52825C0.179775 9.46324 0.0889668 9.39547 0 9.32577V28.5265C0 30.7279 1.70767 32.475 3.77432 32.475H37.2256C39.3299 32.475 40.9999 30.6886 40.9999 28.5265V9.32568C40.9108 9.39555 40.8198 9.46349 40.7264 9.52859L23.9265 21.246Z" fill="#2DD98F"/>
<path d="M1.60557 7.4372L18.4062 19.155C19.0422 19.5986 19.771 19.8203 20.4999 19.8203C21.2289 19.8203 21.9578 19.5985 22.5938 19.155L39.3944 7.4372C40.3998 6.73643 41 5.56359 41 4.29777C41 2.12123 39.3074 0.350586 37.227 0.350586H3.77304C1.69261 0.35067 0 2.12132 0 4.29986C0 5.56359 0.600266 6.73643 1.60557 7.4372Z" fill="#2DD98F"/>
</svg>
