<svg width="96" height="96" viewBox="0 0 96 96" fill="none" xmlns="http://www.w3.org/2000/svg">
<g clip-path="url(#clip0_122_19)">
<mask id="mask0_122_19" style="mask-type:luminance" maskUnits="userSpaceOnUse" x="0" y="0" width="96" height="96">
<path d="M96 48C96 21.4903 74.5097 0 48 0C21.4903 0 0 21.4903 0 48C0 74.5097 21.4903 96 48 96C74.5097 96 96 74.5097 96 48Z" fill="white"/>
</mask>
<g mask="url(#mask0_122_19)">
<path d="M96 48C96 21.4903 74.5097 0 48 0C21.4903 0 0 21.4903 0 48C0 74.5097 21.4903 96 48 96C74.5097 96 96 74.5097 96 48Z" fill="#0A0718"/>
<mask id="mask1_122_19" style="mask-type:luminance" maskUnits="userSpaceOnUse" x="0" y="0" width="97" height="96">
<path d="M96.0077 48C96.0077 74.5097 74.5174 96 48.0077 96C21.498 96 0.00769043 74.5097 0.00769043 48C0.00769043 21.4903 21.498 7.62939e-06 48.0077 7.62939e-06C74.5174 7.62939e-06 96.0077 21.4903 96.0077 48Z" fill="white"/>
</mask>
<g mask="url(#mask1_122_19)">
<g filter="url(#filter0_f_122_19)">
<path d="M57.0341 -15.4928C86.8794 -15.4928 111.074 8.70161 111.074 38.5469C111.074 68.3923 86.8794 92.5867 57.0341 92.5867C27.1888 92.5867 2.99438 68.3923 2.99438 38.5469C2.99438 8.70161 27.1888 -15.4928 57.0341 -15.4928Z" fill="#1BB8FF"/>
</g>
<g filter="url(#filter1_f_122_19)">
<path d="M64.2209 -17.7066C92.2622 -17.7066 114.994 5.02536 114.994 33.0667C114.994 61.1081 92.2622 83.8401 64.2209 83.8401C36.1795 83.8401 13.4475 61.1081 13.4475 33.0667C13.4475 5.02536 36.1795 -17.7066 64.2209 -17.7066Z" fill="#232DE3"/>
</g>
<g filter="url(#filter2_f_122_19)">
<path d="M72.861 -16.2134C94.0098 -16.2134 111.154 0.93108 111.154 22.0799C111.154 43.2288 94.0098 60.3733 72.861 60.3733C51.7122 60.3733 34.5676 43.2288 34.5676 22.0799C34.5676 0.93108 51.7122 -16.2134 72.861 -16.2134Z" fill="#EBF7FD"/>
</g>
<g filter="url(#filter3_f_122_19)">
<path d="M51.8478 13.0132C69.6387 13.0132 84.0611 27.4356 84.0611 45.2266C84.0611 63.0175 69.6387 77.4399 51.8478 77.4399C34.0568 77.4399 19.6344 63.0175 19.6344 45.2266C19.6344 27.4356 34.0568 13.0132 51.8478 13.0132Z" fill="#232DE3"/>
</g>
<g filter="url(#filter4_f_122_19)">
<path d="M48 23.2535C61.6672 23.2535 72.7466 34.3329 72.7466 48.0002C72.7466 61.6674 61.6672 72.7468 48 72.7468C34.3328 72.7468 23.2533 61.6674 23.2533 48.0002C23.2533 34.3329 34.3328 23.2535 48 23.2535Z" fill="#1730FF"/>
</g>
</g>
</g>
<path d="M66 68H30C29.18 68 28.5 67.32 28.5 66.5C28.5 65.68 29.18 65 30 65H66C66.82 65 67.5 65.68 67.5 66.5C67.5 67.32 66.82 68 66 68Z" fill="white"/>
<path d="M62.04 30.9601C58.16 27.0801 54.36 26.9801 50.38 30.9601L47.96 33.3801C47.76 33.5801 47.68 33.9001 47.76 34.1801C49.28 39.4801 53.52 43.7201 58.82 45.2401C58.9 45.2601 58.98 45.2801 59.06 45.2801C59.28 45.2801 59.48 45.2001 59.64 45.0401L62.04 42.6201C64.02 40.6601 64.98 38.7601 64.98 36.8401C65 34.8601 64.04 32.9401 62.04 30.9601Z" fill="white"/>
<path d="M55.22 47.0601C54.64 46.7801 54.08 46.5001 53.54 46.1801C53.1 45.9201 52.68 45.6401 52.26 45.3401C51.92 45.1201 51.52 44.8001 51.14 44.4801C51.1 44.4601 50.96 44.3401 50.8 44.1801C50.14 43.6201 49.4 42.9001 48.74 42.1001C48.68 42.0601 48.58 41.9201 48.44 41.7401C48.24 41.5001 47.9 41.1001 47.6 40.6401C47.36 40.3401 47.08 39.9001 46.82 39.4601C46.5 38.9201 46.22 38.3801 45.94 37.8201C45.7824 37.4823 45.6437 37.1508 45.517 36.8292C45.3833 36.4901 44.9463 36.3939 44.6885 36.6516L32.68 48.6601C32.42 48.9201 32.18 49.4201 32.12 49.7601L31.04 57.4201C30.84 58.7801 31.22 60.0601 32.06 60.9201C32.78 61.6201 33.78 62.0001 34.86 62.0001C35.1 62.0001 35.34 61.9801 35.58 61.9401L43.26 60.8601C43.62 60.8001 44.12 60.5601 44.36 60.3001L56.3613 48.2988C56.6209 48.0392 56.5221 47.5964 56.1809 47.4609C55.87 47.3374 55.5543 47.205 55.22 47.0601Z" fill="white"/>
</g>
<defs>
<filter id="filter0_f_122_19" x="-14.4449" y="-32.9322" width="142.958" height="142.958" filterUnits="userSpaceOnUse" color-interpolation-filters="sRGB">
<feFlood flood-opacity="0" result="BackgroundImageFix"/>
<feBlend mode="normal" in="SourceGraphic" in2="BackgroundImageFix" result="shape"/>
<feGaussianBlur stdDeviation="8.71965" result="effect1_foregroundBlur_122_19"/>
</filter>
<filter id="filter1_f_122_19" x="-21.6637" y="-52.8177" width="171.769" height="171.769" filterUnits="userSpaceOnUse" color-interpolation-filters="sRGB">
<feFlood flood-opacity="0" result="BackgroundImageFix"/>
<feBlend mode="normal" in="SourceGraphic" in2="BackgroundImageFix" result="shape"/>
<feGaussianBlur stdDeviation="17.5556" result="effect1_foregroundBlur_122_19"/>
</filter>
<filter id="filter2_f_122_19" x="-0.543571" y="-51.3246" width="146.809" height="146.809" filterUnits="userSpaceOnUse" color-interpolation-filters="sRGB">
<feFlood flood-opacity="0" result="BackgroundImageFix"/>
<feBlend mode="normal" in="SourceGraphic" in2="BackgroundImageFix" result="shape"/>
<feGaussianBlur stdDeviation="17.5556" result="effect1_foregroundBlur_122_19"/>
</filter>
<filter id="filter3_f_122_19" x="-8.4544" y="-15.0756" width="120.604" height="120.604" filterUnits="userSpaceOnUse" color-interpolation-filters="sRGB">
<feFlood flood-opacity="0" result="BackgroundImageFix"/>
<feBlend mode="normal" in="SourceGraphic" in2="BackgroundImageFix" result="shape"/>
<feGaussianBlur stdDeviation="14.0444" result="effect1_foregroundBlur_122_19"/>
</filter>
<filter id="filter4_f_122_19" x="-46.9689" y="-46.9688" width="189.938" height="189.938" filterUnits="userSpaceOnUse" color-interpolation-filters="sRGB">
<feFlood flood-opacity="0" result="BackgroundImageFix"/>
<feBlend mode="normal" in="SourceGraphic" in2="BackgroundImageFix" result="shape"/>
<feGaussianBlur stdDeviation="35.1111" result="effect1_foregroundBlur_122_19"/>
</filter>
<clipPath id="clip0_122_19">
<rect width="96" height="96" fill="white"/>
</clipPath>
</defs>
</svg>
