<svg width="25" height="24" viewBox="0 0 25 24" fill="none" xmlns="http://www.w3.org/2000/svg">
<path fill-rule="evenodd" clip-rule="evenodd" d="M16.7071 10.5H14.9949L13.021 7.5H12.3991L10.4949 10.5H8.79137C8.82312 10.3764 8.87405 10.2567 8.94392 10.1456L10.6272 7.5H8.4171L6.29524 10.9888L11.0564 15.6862L9.20111 12H10.8792L12.7129 15.6468L14.6015 12H16.2879L14.3016 15.8263L19.2061 10.9875L17.1021 7.5H14.7988L16.5512 10.1407C16.6228 10.2532 16.6748 10.3745 16.7071 10.5ZM8.13598 6H17.3844C17.7348 6 18.0597 6.1834 18.2407 6.48344L20.6781 10.5237C20.7251 10.6017 20.75 10.691 20.75 10.782V11.3623C20.75 11.4961 20.6964 11.6243 20.6012 11.7183L13.5126 18.7119C13.3255 18.8965 13.0732 19 12.8103 19H12.6897C12.4268 19 12.1745 18.8965 11.9874 18.7119L4.89884 11.7183C4.80361 11.6243 4.75 11.4961 4.75 11.3623V10.783C4.75 10.6913 4.77519 10.6014 4.8228 10.5231L7.28159 6.48037C7.463 6.18208 7.78685 6 8.13598 6Z" fill="#2DD98F"/>
</svg>
