<svg width="25" height="24" viewBox="0 0 25 24" fill="none" xmlns="http://www.w3.org/2000/svg">
<path fill-rule="evenodd" clip-rule="evenodd" d="M11.5339 6.02916C11.2671 6.10063 11.1088 6.3748 11.1803 6.64153L12.2156 10.5052C12.2871 10.772 12.5612 10.9303 12.828 10.8588L18.9373 9.22178C19.2041 9.15031 19.3624 8.87615 19.2909 8.60941L18.2556 4.74571C18.1842 4.47898 17.91 4.32068 17.6433 4.39216L11.5339 6.02916ZM13.4057 9.15108L12.888 7.21923L17.0656 6.09986L17.5832 8.03171L13.4057 9.15108ZM3.25 8.12546C3.25 7.84932 3.47386 7.62546 3.75 7.62546H10.5749V11.1253H18.8341C19.1102 11.1253 19.3341 11.3492 19.3341 11.6253V14.6253H21.75C22.0261 14.6253 22.25 14.8492 22.25 15.1253V19.1253C22.25 19.4015 22.0261 19.6253 21.75 19.6253H3.75C3.47386 19.6253 3.25 19.4015 3.25 19.1253V14.6253H6.16667V12.6255H3.25V8.12546ZM10.0749 12.6255H7.66667V14.6253H12V12.6255H13.5V14.6253H17.8333V12.6255L10.0874 12.6253L10.0749 12.6255ZM9.0749 9.12546V11.1253H6.66667L6.6542 11.1255H4.75V9.12546H9.0749ZM6.16667 16.1253H4.75V18.1253H9.08334V16.1255H10.5833V18.1253H14.9167V16.1255H16.4167V18.1253H20.75V16.1253H19.3341H6.16667Z" fill="#2DD98F"/>
</svg>
