<svg width="25" height="24" viewBox="0 0 25 24" fill="none" xmlns="http://www.w3.org/2000/svg">
<path fill-rule="evenodd" clip-rule="evenodd" d="M18.25 9.5V9C18.25 8.72386 18.0261 8.5 17.75 8.5H8.75C8.47386 8.5 8.25 8.72386 8.25 9V9.5H6.75V9C6.75 7.89543 7.64543 7 8.75 7H17.75C18.8546 7 19.75 7.89543 19.75 9V9.5H18.25ZM9.75 15.5V16.5H16.75V15.5H9.75ZM9.75 14H16.75V13C16.75 11.8954 17.6454 11 18.75 11C19.8546 11 20.75 11.8954 20.75 13V17.75C20.75 17.8881 20.6381 18 20.5 18H6C5.86193 18 5.75 17.8881 5.75 17.75V13C5.75 11.8954 6.64543 11 7.75 11C8.85457 11 9.75 11.8954 9.75 13V14ZM7.25 16.5H8.25V13C8.25 12.7239 8.02614 12.5 7.75 12.5C7.47386 12.5 7.25 12.7239 7.25 13V16.5ZM18.25 16.5H19.25V13C19.25 12.7239 19.0261 12.5 18.75 12.5C18.4739 12.5 18.25 12.7239 18.25 13V16.5Z" fill="#2DD98F"/>
</svg>
