<svg width="19" height="18" viewBox="0 0 19 18" fill="none" xmlns="http://www.w3.org/2000/svg">
<path d="M14.4731 12.6225L14.7787 14.9925C14.8571 15.615 14.1597 16.05 13.6033 15.7275L10.32 13.86C9.95957 13.86 9.60696 13.8375 9.26217 13.7925C9.84204 13.14 10.1868 12.315 10.1868 11.4225C10.1868 9.29249 8.25915 7.56752 5.877 7.56752C4.96803 7.56752 4.12957 7.815 3.43217 8.25C3.40866 8.0625 3.40082 7.87499 3.40082 7.67999C3.40082 4.26749 6.49605 1.5 10.32 1.5C14.144 1.5 17.2392 4.26749 17.2392 7.67999C17.2392 9.70499 16.15 11.4975 14.4731 12.6225Z" stroke="#2DD98F" stroke-width="1.5" stroke-linecap="round" stroke-linejoin="round"/>
<path d="M10.1868 11.4226C10.1868 12.3151 9.84204 13.1401 9.26218 13.7926C8.48641 14.6926 7.25615 15.2701 5.87701 15.2701L3.83181 16.4326C3.48702 16.6351 3.04821 16.3576 3.09522 15.9751L3.29112 14.4976C2.2411 13.8001 1.5672 12.6826 1.5672 11.4226C1.5672 10.1026 2.30379 8.94011 3.43218 8.25011C4.12958 7.81511 4.96803 7.56763 5.87701 7.56763C8.25916 7.56763 10.1868 9.29259 10.1868 11.4226Z" stroke="#2DD98F" stroke-width="1.5" stroke-linecap="round" stroke-linejoin="round"/>
</svg>
