<svg width="22" height="23" viewBox="0 0 22 23" fill="none" xmlns="http://www.w3.org/2000/svg">
<path d="M5.63751 11.5C1.78751 11.5 1.78751 13.2154 1.78751 15.3333V16.2917C1.78751 18.9367 1.78751 21.0833 6.60001 21.0833H14.3C18.15 21.0833 19.1125 18.9367 19.1125 16.2917V15.3333C19.1125 13.2154 19.1125 11.5 15.2625 11.5C14.3 11.5 14.0305 11.7013 13.53 12.075L12.5483 13.11C11.4125 14.3175 9.48751 14.3175 8.34213 13.11L7.37001 12.075C6.86951 11.7013 6.60001 11.5 5.63751 11.5Z" stroke="#2DD98F" stroke-width="2" stroke-miterlimit="10" stroke-linecap="round" stroke-linejoin="round"/>
<path d="M17.1875 11.5001V5.75008C17.1875 3.63216 17.1875 1.91675 13.3375 1.91675H7.56249C3.71249 1.91675 3.71249 3.63216 3.71249 5.75008V11.5001" stroke="#2DD98F" stroke-width="2" stroke-miterlimit="10" stroke-linecap="round" stroke-linejoin="round"/>
<path d="M9.05438 8.84546H12.2595" stroke="#2DD98F" stroke-width="2" stroke-linecap="round" stroke-linejoin="round"/>
<path d="M8.25549 5.97046H13.068" stroke="#2DD98F" stroke-width="2" stroke-linecap="round" stroke-linejoin="round"/>
</svg>
