<svg width="17" height="16" viewBox="0 0 17 16" fill="none" xmlns="http://www.w3.org/2000/svg">
<path d="M12.865 11.2202L13.1366 13.3268C13.2063 13.8802 12.5864 14.2668 12.0918 13.9801L9.17336 12.3202C8.85295 12.3202 8.53952 12.3002 8.23304 12.2602C8.74848 11.6802 9.05495 10.9468 9.05495 10.1535C9.05495 8.26015 7.34147 6.72685 5.224 6.72685C4.41602 6.72685 3.67073 6.94683 3.05082 7.3335C3.02992 7.16683 3.02295 7.00016 3.02295 6.82682C3.02295 3.79349 5.77426 1.3335 9.17336 1.3335C12.5724 1.3335 15.3238 3.79349 15.3238 6.82682C15.3238 8.62682 14.3556 10.2202 12.865 11.2202Z" stroke="#2DD98F" stroke-width="2" stroke-linecap="round" stroke-linejoin="round"/>
<path d="M9.05495 10.1532C9.05495 10.9465 8.74848 11.6799 8.23305 12.2599C7.54348 13.0599 6.44991 13.5732 5.22401 13.5732L3.40605 14.6065C3.09958 14.7865 2.70952 14.5399 2.75131 14.1999L2.92544 12.8866C1.99208 12.2666 1.39307 11.2732 1.39307 10.1532C1.39307 8.97986 2.04781 7.94654 3.05082 7.33321C3.67074 6.94654 4.41603 6.72656 5.22401 6.72656C7.34148 6.72656 9.05495 8.25986 9.05495 10.1532Z" stroke="#2DD98F" stroke-width="2" stroke-linecap="round" stroke-linejoin="round"/>
</svg>
