<svg width="55" height="54" viewBox="0 0 55 54" fill="none" xmlns="http://www.w3.org/2000/svg">
<rect x="0.5" width="54" height="54" rx="27" fill="#2DD98F"/>
<path d="M27.499 35.35C27.3997 35.35 27.3167 35.3165 27.25 35.2495C27.1834 35.1823 27.15 35.0992 27.15 35V31C27.15 30.9008 27.1837 30.8177 27.251 30.7505C27.3182 30.6835 27.4015 30.65 27.501 30.65C27.6004 30.65 27.6834 30.6835 27.75 30.7505C27.8167 30.8177 27.85 30.9008 27.85 31V32.65H35.5C35.5992 32.65 35.6823 32.6837 35.7493 32.751C35.8164 32.8182 35.85 32.9015 35.85 33.001C35.85 33.1003 35.8164 33.1833 35.7493 33.25C35.6823 33.3167 35.5992 33.35 35.5 33.35H27.85V35C27.85 35.0992 27.8164 35.1823 27.749 35.2495C27.6819 35.3165 27.5985 35.35 27.499 35.35ZM19.5 33.35C19.4009 33.35 19.3177 33.3163 19.2505 33.249C19.1835 33.1818 19.15 33.0985 19.15 32.999C19.15 32.8997 19.1835 32.8167 19.2505 32.75C19.3177 32.6833 19.4009 32.65 19.5 32.65H23.5C23.5992 32.65 23.6824 32.6837 23.7495 32.751C23.8165 32.8182 23.85 32.9015 23.85 33.001C23.85 33.1003 23.8165 33.1833 23.7495 33.25C23.6824 33.3167 23.5992 33.35 23.5 33.35H19.5ZM23.499 29.35C23.3997 29.35 23.3167 29.3165 23.25 29.2495C23.1834 29.1823 23.15 29.0992 23.15 29V27.35H19.5C19.4009 27.35 19.3177 27.3163 19.2505 27.249C19.1835 27.1818 19.15 27.0985 19.15 26.999C19.15 26.8997 19.1835 26.8167 19.2505 26.75C19.3177 26.6833 19.4009 26.65 19.5 26.65H23.15V25C23.15 24.9008 23.1837 24.8178 23.251 24.7508C23.3182 24.6836 23.4015 24.65 23.501 24.65C23.6004 24.65 23.6834 24.6836 23.75 24.7508C23.8167 24.8178 23.85 24.9008 23.85 25V29C23.85 29.0992 23.8164 29.1823 23.749 29.2495C23.6819 29.3165 23.5985 29.35 23.499 29.35ZM27.5 27.35C27.4009 27.35 27.3177 27.3163 27.2505 27.249C27.1835 27.1818 27.15 27.0985 27.15 26.999C27.15 26.8997 27.1835 26.8167 27.2505 26.75C27.3177 26.6833 27.4009 26.65 27.5 26.65H35.5C35.5992 26.65 35.6823 26.6837 35.7493 26.751C35.8164 26.8182 35.85 26.9015 35.85 27.001C35.85 27.1003 35.8164 27.1833 35.7493 27.25C35.6823 27.3167 35.5992 27.35 35.5 27.35H27.5ZM31.499 23.35C31.3997 23.35 31.3167 23.3164 31.25 23.2493C31.1834 23.1823 31.15 23.0992 31.15 23V19C31.15 18.9008 31.1837 18.8178 31.251 18.7508C31.3182 18.6836 31.4015 18.65 31.501 18.65C31.6004 18.65 31.6834 18.6836 31.75 18.7508C31.8167 18.8178 31.85 18.9008 31.85 19V20.65H35.5C35.5992 20.65 35.6823 20.6837 35.7493 20.751C35.8164 20.8182 35.85 20.9015 35.85 21.001C35.85 21.1003 35.8164 21.1833 35.7493 21.25C35.6823 21.3167 35.5992 21.35 35.5 21.35H31.85V23C31.85 23.0992 31.8164 23.1823 31.749 23.2493C31.6819 23.3164 31.5985 23.35 31.499 23.35ZM19.5 21.35C19.4009 21.35 19.3177 21.3163 19.2505 21.249C19.1835 21.1818 19.15 21.0985 19.15 20.999C19.15 20.8997 19.1835 20.8167 19.2505 20.75C19.3177 20.6833 19.4009 20.65 19.5 20.65H27.5C27.5992 20.65 27.6824 20.6837 27.7495 20.751C27.8165 20.8182 27.85 20.9015 27.85 21.001C27.85 21.1003 27.8165 21.1833 27.7495 21.25C27.6824 21.3167 27.5992 21.35 27.5 21.35H19.5Z" fill="black"/>
</svg>
