<svg width="158" height="158" viewBox="0 0 158 158" fill="none" xmlns="http://www.w3.org/2000/svg">
<mask id="mask0_178_164" style="mask-type:luminance" maskUnits="userSpaceOnUse" x="0" y="0" width="158" height="158">
<path d="M158 79C158 35.3695 122.63 0 79 0C35.3695 0 0 35.3695 0 79C0 122.63 35.3695 158 79 158C122.63 158 158 122.63 158 79Z" fill="white"/>
</mask>
<g mask="url(#mask0_178_164)">
<path d="M158 79C158 35.3695 122.63 0 79 0C35.3695 0 0 35.3695 0 79C0 122.63 35.3695 158 79 158C122.63 158 158 122.63 158 79Z" fill="#0A0718"/>
<mask id="mask1_178_164" style="mask-type:luminance" maskUnits="userSpaceOnUse" x="0" y="0" width="159" height="158">
<path d="M158.013 79C158.013 122.63 122.643 158 79.0127 158C35.3822 158 0.0126953 122.63 0.0126953 79C0.0126953 35.3695 35.3822 0 79.0127 0C122.643 0 158.013 35.3695 158.013 79Z" fill="white"/>
</mask>
<g mask="url(#mask1_178_164)">
<path d="M78.8381 -27.205C137.397 -27.205 184.869 20.2667 184.869 78.826C184.869 137.385 137.397 184.857 78.8381 184.857C20.2788 184.857 -27.1929 137.385 -27.1929 78.826C-27.1929 20.2667 20.2788 -27.205 78.8381 -27.205Z" fill="#EBF7FD"/>
<g filter="url(#filter0_f_178_164)">
<path d="M93.8686 -25.4988C142.989 -25.4988 182.809 14.3212 182.809 63.4416C182.809 112.562 142.989 152.382 93.8686 152.382C44.7482 152.382 4.92822 112.562 4.92822 63.4416C4.92822 14.3212 44.7482 -25.4988 93.8686 -25.4988Z" fill="#1BB8FF"/>
</g>
<g filter="url(#filter1_f_178_164)">
<path d="M105.697 -29.142C151.848 -29.142 189.261 8.2711 189.261 54.4225C189.261 100.574 151.848 137.987 105.697 137.987C59.5454 137.987 22.1323 100.574 22.1323 54.4225C22.1323 8.2711 59.5454 -29.142 105.697 -29.142Z" fill="#232DE3"/>
</g>
<g filter="url(#filter2_f_178_164)">
<path d="M119.917 -26.6845C154.725 -26.6845 182.942 1.53253 182.942 36.34C182.942 71.1475 154.725 99.3645 119.917 99.3645C85.1096 99.3645 56.8926 71.1475 56.8926 36.34C56.8926 1.53253 85.1096 -26.6845 119.917 -26.6845Z" fill="#EBF7FD"/>
</g>
<g filter="url(#filter3_f_178_164)">
<path d="M85.3327 21.4174C114.614 21.4174 138.351 45.1543 138.351 74.4352C138.351 103.716 114.614 127.453 85.3327 127.453C56.0518 127.453 32.3149 103.716 32.3149 74.4352C32.3149 45.1543 56.0518 21.4174 85.3327 21.4174Z" fill="#232DE3"/>
</g>
<g filter="url(#filter4_f_178_164)">
<path d="M78.9999 38.2712C101.494 38.2712 119.729 56.5062 119.729 79.0001C119.729 101.494 101.494 119.729 78.9999 119.729C56.5059 119.729 38.271 101.494 38.271 79.0001C38.271 56.5062 56.5059 38.2712 78.9999 38.2712Z" fill="#1730FF"/>
</g>
</g>
</g>
<path d="M92.75 54.25H65.25C57.66 54.25 51.5 60.41 51.5 68V70.75V90C51.5 97.59 57.66 103.75 65.25 103.75H90H92.75C100.34 103.75 106.5 97.59 106.5 90V68C106.5 60.41 100.34 54.25 92.75 54.25ZM74.8475 92.2275C74.765 92.2275 74.6825 92.255 74.5725 92.255C73.555 92.255 72.675 91.485 72.5375 90.4675C72.18 87.6625 70.145 85.6275 67.34 85.27C66.2125 85.1325 65.415 84.0875 65.5525 82.96C65.69 81.8325 66.735 81.035 67.8625 81.1725C72.51 81.7775 76.03 85.2975 76.635 89.945C76.7725 91.045 75.975 92.09 74.8475 92.2275ZM83.235 90.825C83.1525 90.825 83.07 90.8525 82.96 90.8525C81.9425 90.8525 81.0625 90.0825 80.925 89.065C80.0725 82.52 75.315 77.735 68.7425 76.8825C67.615 76.745 66.8175 75.7 66.955 74.5725C67.0925 73.445 68.1375 72.6475 69.265 72.785C77.735 73.885 83.9225 80.045 85.0225 88.5425C85.16 89.6425 84.3625 90.66 83.235 90.825ZM90.66 88.4325C90.5775 88.4325 90.495 88.46 90.385 88.46C89.3675 88.46 88.4875 87.69 88.35 86.6725C87.1675 77.3775 80.4025 70.6125 71.1075 69.43C69.98 69.2925 69.1825 68.2475 69.32 67.12C69.4575 65.9925 70.5025 65.195 71.63 65.3325C82.8225 66.7625 90.99 74.93 92.4475 86.15C92.585 87.2775 91.7875 88.295 90.66 88.4325Z" fill="white"/>
<defs>
<filter id="filter0_f_178_164" x="-12.5111" y="-42.9381" width="212.759" height="212.759" filterUnits="userSpaceOnUse" color-interpolation-filters="sRGB">
<feFlood flood-opacity="0" result="BackgroundImageFix"/>
<feBlend mode="normal" in="SourceGraphic" in2="BackgroundImageFix" result="shape"/>
<feGaussianBlur stdDeviation="8.71965" result="effect1_foregroundBlur_178_164"/>
</filter>
<filter id="filter1_f_178_164" x="-12.9789" y="-64.2532" width="237.351" height="237.351" filterUnits="userSpaceOnUse" color-interpolation-filters="sRGB">
<feFlood flood-opacity="0" result="BackgroundImageFix"/>
<feBlend mode="normal" in="SourceGraphic" in2="BackgroundImageFix" result="shape"/>
<feGaussianBlur stdDeviation="17.5556" result="effect1_foregroundBlur_178_164"/>
</filter>
<filter id="filter2_f_178_164" x="21.7814" y="-61.7957" width="196.271" height="196.271" filterUnits="userSpaceOnUse" color-interpolation-filters="sRGB">
<feFlood flood-opacity="0" result="BackgroundImageFix"/>
<feBlend mode="normal" in="SourceGraphic" in2="BackgroundImageFix" result="shape"/>
<feGaussianBlur stdDeviation="17.5556" result="effect1_foregroundBlur_178_164"/>
</filter>
<filter id="filter3_f_178_164" x="4.22614" y="-6.67141" width="162.213" height="162.213" filterUnits="userSpaceOnUse" color-interpolation-filters="sRGB">
<feFlood flood-opacity="0" result="BackgroundImageFix"/>
<feBlend mode="normal" in="SourceGraphic" in2="BackgroundImageFix" result="shape"/>
<feGaussianBlur stdDeviation="14.0444" result="effect1_foregroundBlur_178_164"/>
</filter>
<filter id="filter4_f_178_164" x="-31.9512" y="-31.951" width="221.902" height="221.902" filterUnits="userSpaceOnUse" color-interpolation-filters="sRGB">
<feFlood flood-opacity="0" result="BackgroundImageFix"/>
<feBlend mode="normal" in="SourceGraphic" in2="BackgroundImageFix" result="shape"/>
<feGaussianBlur stdDeviation="35.1111" result="effect1_foregroundBlur_178_164"/>
</filter>
</defs>
</svg>
