<svg width="158" height="158" viewBox="0 0 158 158" fill="none" xmlns="http://www.w3.org/2000/svg">
<mask id="mask0_178_175" style="mask-type:luminance" maskUnits="userSpaceOnUse" x="0" y="0" width="158" height="158">
<path d="M158 79C158 35.3695 122.63 0 79 0C35.3695 0 0 35.3695 0 79C0 122.63 35.3695 158 79 158C122.63 158 158 122.63 158 79Z" fill="white"/>
</mask>
<g mask="url(#mask0_178_175)">
<path d="M158 79C158 35.3695 122.63 0 79 0C35.3695 0 0 35.3695 0 79C0 122.63 35.3695 158 79 158C122.63 158 158 122.63 158 79Z" fill="#0A0718"/>
<mask id="mask1_178_175" style="mask-type:luminance" maskUnits="userSpaceOnUse" x="0" y="0" width="159" height="158">
<path d="M158.013 79C158.013 122.63 122.643 158 79.0127 158C35.3822 158 0.0126953 122.63 0.0126953 79C0.0126953 35.3695 35.3822 0 79.0127 0C122.643 0 158.013 35.3695 158.013 79Z" fill="white"/>
</mask>
<g mask="url(#mask1_178_175)">
<path d="M78.8381 -27.205C137.397 -27.205 184.869 20.2667 184.869 78.826C184.869 137.385 137.397 184.857 78.8381 184.857C20.2788 184.857 -27.1929 137.385 -27.1929 78.826C-27.1929 20.2667 20.2788 -27.205 78.8381 -27.205Z" fill="#EBF7FD"/>
<g filter="url(#filter0_f_178_175)">
<path d="M93.8686 -25.4988C142.989 -25.4988 182.809 14.3212 182.809 63.4416C182.809 112.562 142.989 152.382 93.8686 152.382C44.7482 152.382 4.92822 112.562 4.92822 63.4416C4.92822 14.3212 44.7482 -25.4988 93.8686 -25.4988Z" fill="#1BB8FF"/>
</g>
<g filter="url(#filter1_f_178_175)">
<path d="M105.697 -29.142C151.848 -29.142 189.261 8.2711 189.261 54.4225C189.261 100.574 151.848 137.987 105.697 137.987C59.5454 137.987 22.1323 100.574 22.1323 54.4225C22.1323 8.2711 59.5454 -29.142 105.697 -29.142Z" fill="#232DE3"/>
</g>
<g filter="url(#filter2_f_178_175)">
<path d="M119.917 -26.6845C154.725 -26.6845 182.942 1.53253 182.942 36.34C182.942 71.1475 154.725 99.3645 119.917 99.3645C85.1097 99.3645 56.8926 71.1475 56.8926 36.34C56.8926 1.53253 85.1097 -26.6845 119.917 -26.6845Z" fill="#EBF7FD"/>
</g>
<g filter="url(#filter3_f_178_175)">
<path d="M85.3327 21.4174C114.614 21.4174 138.351 45.1543 138.351 74.4352C138.351 103.716 114.614 127.453 85.3327 127.453C56.0518 127.453 32.3149 103.716 32.3149 74.4352C32.3149 45.1543 56.0518 21.4174 85.3327 21.4174Z" fill="#232DE3"/>
</g>
<g filter="url(#filter4_f_178_175)">
<path d="M78.9999 38.2712C101.494 38.2712 119.729 56.5062 119.729 79.0001C119.729 101.494 101.494 119.729 78.9999 119.729C56.5059 119.729 38.271 101.494 38.271 79.0001C38.271 56.5062 56.5059 38.2712 78.9999 38.2712Z" fill="#1730FF"/>
</g>
</g>
</g>
<path d="M52.0791 73.1667C50.825 73.1667 49.8333 72.175 49.8333 70.9208V64.1833C49.8333 56.2792 56.2791 49.8333 64.1833 49.8333H70.9208C72.175 49.8333 73.1666 50.825 73.1666 52.0792C73.1666 53.3333 72.175 54.325 70.9208 54.325H64.1833C58.7291 54.325 54.325 58.7583 54.325 64.1833V70.9208C54.325 72.175 53.3041 73.1667 52.0791 73.1667Z" fill="white"/>
<path d="M105.921 73.1667C104.696 73.1667 103.675 72.175 103.675 70.9208V64.1833C103.675 58.7292 99.2416 54.325 93.8166 54.325H87.0791C85.825 54.325 84.8333 53.3042 84.8333 52.0792C84.8333 50.8542 85.825 49.8333 87.0791 49.8333H93.8166C101.721 49.8333 108.167 56.2792 108.167 64.1833V70.9208C108.167 72.175 107.175 73.1667 105.921 73.1667Z" fill="white"/>
<path d="M93.8167 108.167H89.7625C88.5375 108.167 87.5167 107.175 87.5167 105.921C87.5167 104.696 88.5083 103.675 89.7625 103.675H93.8167C99.2708 103.675 103.675 99.2417 103.675 93.8167V89.7917C103.675 88.5667 104.667 87.5458 105.921 87.5458C107.146 87.5458 108.167 88.5375 108.167 89.7917V93.8167C108.167 101.721 101.721 108.167 93.8167 108.167Z" fill="white"/>
<path d="M70.9208 108.167H64.1833C56.2791 108.167 49.8333 101.721 49.8333 93.8167V87.0792C49.8333 85.825 50.825 84.8333 52.0791 84.8333C53.3333 84.8333 54.325 85.825 54.325 87.0792V93.8167C54.325 99.2708 58.7583 103.675 64.1833 103.675H70.9208C72.1458 103.675 73.1666 104.667 73.1666 105.921C73.1666 107.175 72.175 108.167 70.9208 108.167Z" fill="white"/>
<path d="M97.8416 76.7542H93.875H64.125H60.1583C58.9041 76.7542 57.9125 77.775 57.9125 79C57.9125 80.225 58.9041 81.2458 60.1583 81.2458H64.125H93.875H97.8416C99.0958 81.2458 100.087 80.225 100.087 79C100.087 77.775 99.0958 76.7542 97.8416 76.7542Z" fill="white"/>
<path d="M64.125 84.6583V85.6208C64.125 90.4625 68.0333 94.3708 72.875 94.3708H85.125C89.9667 94.3708 93.875 90.4625 93.875 85.6208V84.6583C93.875 84.3083 93.6125 84.0458 93.2625 84.0458H64.7375C64.3875 84.0458 64.125 84.3083 64.125 84.6583Z" fill="white"/>
<path d="M64.125 73.3417V72.3792C64.125 67.5375 68.0333 63.6292 72.875 63.6292H85.125C89.9667 63.6292 93.875 67.5375 93.875 72.3792V73.3417C93.875 73.6917 93.6125 73.9542 93.2625 73.9542H64.7375C64.3875 73.9542 64.125 73.6917 64.125 73.3417Z" fill="white"/>
<defs>
<filter id="filter0_f_178_175" x="-12.5111" y="-42.9381" width="212.759" height="212.759" filterUnits="userSpaceOnUse" color-interpolation-filters="sRGB">
<feFlood flood-opacity="0" result="BackgroundImageFix"/>
<feBlend mode="normal" in="SourceGraphic" in2="BackgroundImageFix" result="shape"/>
<feGaussianBlur stdDeviation="8.71965" result="effect1_foregroundBlur_178_175"/>
</filter>
<filter id="filter1_f_178_175" x="-12.9789" y="-64.2532" width="237.351" height="237.351" filterUnits="userSpaceOnUse" color-interpolation-filters="sRGB">
<feFlood flood-opacity="0" result="BackgroundImageFix"/>
<feBlend mode="normal" in="SourceGraphic" in2="BackgroundImageFix" result="shape"/>
<feGaussianBlur stdDeviation="17.5556" result="effect1_foregroundBlur_178_175"/>
</filter>
<filter id="filter2_f_178_175" x="21.7814" y="-61.7957" width="196.271" height="196.271" filterUnits="userSpaceOnUse" color-interpolation-filters="sRGB">
<feFlood flood-opacity="0" result="BackgroundImageFix"/>
<feBlend mode="normal" in="SourceGraphic" in2="BackgroundImageFix" result="shape"/>
<feGaussianBlur stdDeviation="17.5556" result="effect1_foregroundBlur_178_175"/>
</filter>
<filter id="filter3_f_178_175" x="4.22614" y="-6.67141" width="162.213" height="162.213" filterUnits="userSpaceOnUse" color-interpolation-filters="sRGB">
<feFlood flood-opacity="0" result="BackgroundImageFix"/>
<feBlend mode="normal" in="SourceGraphic" in2="BackgroundImageFix" result="shape"/>
<feGaussianBlur stdDeviation="14.0444" result="effect1_foregroundBlur_178_175"/>
</filter>
<filter id="filter4_f_178_175" x="-31.9512" y="-31.951" width="221.902" height="221.902" filterUnits="userSpaceOnUse" color-interpolation-filters="sRGB">
<feFlood flood-opacity="0" result="BackgroundImageFix"/>
<feBlend mode="normal" in="SourceGraphic" in2="BackgroundImageFix" result="shape"/>
<feGaussianBlur stdDeviation="35.1111" result="effect1_foregroundBlur_178_175"/>
</filter>
</defs>
</svg>
